<svg width="114" height="70" viewBox="0 0 114 70" fill="none" xmlns="http://www.w3.org/2000/svg">
<path d="M27.8804 47.6281C27.8804 47.6281 37.8293 64.7165 42.7022 65.3126C47.5752 65.9087 39.2506 36.5007 39.2506 36.5007" fill="#7C3C00"/>
<path d="M27.8804 47.6281C27.8804 47.6281 37.8293 64.7165 42.7022 65.3126C47.5752 65.9087 39.2506 36.5007 39.2506 36.5007" stroke="black" stroke-width="1.14616" stroke-miterlimit="10"/>
<path d="M59.555 43.0576C59.555 43.0576 59.758 51.8005 56.9154 58.9538C54.0729 66.3058 55.6972 68.2929 59.555 68.0942C63.2097 67.8955 70.5191 51.8006 70.5191 51.8006" fill="#7C3C00"/>
<path d="M59.555 43.0576C59.555 43.0576 59.758 51.8005 56.9154 58.9538C54.0729 66.3058 55.6972 68.2929 59.555 68.0942C63.2097 67.8955 70.5191 51.8006 70.5191 51.8006" stroke="black" stroke-width="1.14616" stroke-miterlimit="10"/>
<path d="M65.2375 15.2394C65.2375 15.6368 65.0345 16.0342 64.6284 16.2329C62.1919 17.6238 52.6491 23.1875 43.3092 21.2005C33.3603 19.0147 23.0052 14.2459 17.1171 22.194C16.508 22.9888 15.4928 22.9888 14.8837 22.194C13.0564 19.4122 9.60463 13.0537 11.0259 7.09263C12.0411 2.52247 5.94994 -0.259392 3.31043 3.71466C2.09219 5.70169 1.28002 8.08614 1.07698 10.868C0.467864 17.0278 3.51349 22.7901 8.79252 26.168C10.6199 27.3603 12.2442 28.1551 12.6503 28.1551C13.8685 27.9564 9.80771 37.4941 16.7111 45.4422C16.9141 45.6409 16.9141 45.8396 16.9141 46.0383C17.1171 47.8266 17.5232 55.7748 14.2746 57.3644C10.6198 59.3514 10.8229 65.5112 12.0411 66.7035C13.0563 67.697 30.9238 60.5436 31.1269 46.0383C31.1269 45.0448 32.3451 44.25 33.1573 45.0448C37.6241 48.2241 48.5882 54.3839 61.7858 48.8202C62.3949 48.6215 63.2071 48.8202 63.6132 49.4163C64.8314 52.5955 68.4861 60.5436 71.7348 61.9345C75.7956 63.5242 71.7347 62.3319 76.4047 66.9021C81.0746 71.4723 86.9627 65.7099 80.6685 56.967C74.7804 48.8202 82.4958 35.7058 83.308 34.3149C83.308 34.3149 83.308 34.1162 83.511 34.1162C83.9171 32.9239 86.7597 24.9759 93.0539 23.5849C98.1299 22.5914 100.16 17.6239 100.769 15.0407C100.972 14.2459 100.566 13.6498 99.7542 13.4511L90.8205 11.8615C90.4144 11.8615 90.0083 11.4641 89.8053 11.0667C88.9931 9.07966 85.9475 2.72114 81.4806 1.52892C76.2016 0.336704 65.8466 5.10556 65.2375 15.2394Z" fill="#7C3C00" stroke="black" stroke-width="1.14616" stroke-miterlimit="10"/>
<path d="M96.7112 15.0409C96.7112 15.0409 96.7112 13.65 97.9294 12.8552C99.1477 12.0604 100.569 11.8617 101.787 13.8487C103.005 15.8357 102.396 16.8293 99.9598 17.8228C97.5234 18.8163 96.7112 15.637 96.7112 15.637V15.0409Z" fill="black"/>
<path d="M84.7305 14.4447C85.4033 14.4447 85.9487 13.9109 85.9487 13.2525C85.9487 12.594 85.4033 12.0603 84.7305 12.0603C84.0576 12.0603 83.5122 12.594 83.5122 13.2525C83.5122 13.9109 84.0576 14.4447 84.7305 14.4447Z" fill="black"/>
<path d="M60.566 18.4188C60.566 18.4188 78.6365 33.7189 82.4942 33.9176C86.555 34.1163 85.3368 29.5462 85.3368 29.5462L64.0176 15.637C64.0176 15.8357 59.7538 15.4382 60.566 18.4188Z" fill="black"/>
<path d="M81.2776 11.6629C81.2776 11.6629 73.1561 29.1488 67.674 25.3734C62.192 21.5981 67.674 8.0863 67.674 8.0863" fill="#7C3C00"/>
<path d="M81.2776 11.6629C81.2776 11.6629 73.1561 29.1488 67.674 25.3734C62.192 21.5981 67.674 8.0863 67.674 8.0863" stroke="black" stroke-width="1.14616" stroke-miterlimit="10"/>
<path d="M88.179 22.3927L94.0672 43.0578L112.341 28.9499L103.61 14.842L99.7522 19.0148C97.1127 20.6044 97.7219 23.5849 93.052 21.3992L88.179 22.3927Z" fill="#FEFCFE" stroke="black" stroke-width="1.14616" stroke-miterlimit="10"/>
<path d="M99.3462 28.1553L101.174 33.9177L108.483 28.354L106.25 24.7773L99.3462 28.1553Z" fill="#FEFCFE" stroke="black" stroke-width="0.652772" stroke-miterlimit="10"/>
</svg>
