<svg width="222" height="180" viewBox="0 0 222 180" fill="none" xmlns="http://www.w3.org/2000/svg">
<path d="M203.915 152.462H37.8564V157.409H203.915V152.462Z" fill="#D28C5A" stroke="black" stroke-width="0.955913" stroke-miterlimit="10" stroke-linecap="round" stroke-linejoin="round"/>
<path d="M220.713 146.497L203.914 157.991V153.044L220.713 141.551V146.497Z" fill="#D28C5A" stroke="black" stroke-width="0.955913" stroke-miterlimit="10" stroke-linecap="round" stroke-linejoin="round"/>
<path d="M37.8564 152.462L66.846 142.132L220.714 141.551L203.915 152.462H37.8564Z" fill="#D28C5A" stroke="black" stroke-width="0.955913" stroke-miterlimit="10" stroke-linecap="round" stroke-linejoin="round"/>
<path d="M94.9443 127.147H68.7793V141.841H94.9443V127.147Z" fill="#D28C5A" stroke="black" stroke-width="0.955913" stroke-miterlimit="10" stroke-linecap="round" stroke-linejoin="round"/>
<path d="M154.707 126.856H128.542V141.55H154.707V126.856Z" fill="#D28C5A" stroke="black" stroke-width="0.955913" stroke-miterlimit="10" stroke-linecap="round" stroke-linejoin="round"/>
<path d="M211.646 126.856H185.481V141.55H211.646V126.856Z" fill="#D28C5A" stroke="black" stroke-width="0.955913" stroke-miterlimit="10" stroke-linecap="round" stroke-linejoin="round"/>
<path d="M134.042 137.768H107.877V152.462H134.042V137.768Z" fill="#D28C5A" stroke="black" stroke-width="0.955913" stroke-miterlimit="10" stroke-linecap="round" stroke-linejoin="round"/>
<path d="M190.388 137.768H164.223V152.462H190.388V137.768Z" fill="#D28C5A" stroke="black" stroke-width="0.955913" stroke-miterlimit="10" stroke-linecap="round" stroke-linejoin="round"/>
<path d="M220.713 125.837L203.914 137.768V132.821L220.713 120.891V125.837Z" fill="#D28C5A" stroke="black" stroke-width="0.955913" stroke-miterlimit="10" stroke-linecap="round" stroke-linejoin="round"/>
<path d="M203.915 132.821H37.8564V137.768H203.915V132.821Z" fill="#D28C5A" stroke="black" stroke-width="0.955913" stroke-miterlimit="10" stroke-linecap="round" stroke-linejoin="round"/>
<path d="M220.714 120.891L203.915 132.821H37.8564L74.2793 120.309L220.714 120.891Z" fill="#D28C5A" stroke="black" stroke-width="0.955913" stroke-miterlimit="10" stroke-linecap="round" stroke-linejoin="round"/>
<path d="M76.2118 137.768H50.0469V152.462H76.2118V137.768Z" fill="#D28C5A" stroke="black" stroke-width="0.955913" stroke-miterlimit="10" stroke-linecap="round" stroke-linejoin="round"/>
<path d="M200.356 8.53821H102.386V131.331H200.356V8.53821Z" fill="#F9CA82" stroke="black" stroke-width="0.957251" stroke-miterlimit="10" stroke-linecap="round" stroke-linejoin="round"/>
<path d="M214.776 119.692L200.356 131.185V8.53807L214.776 0.827148V119.692Z" fill="#F9CA82" stroke="black" stroke-width="0.957251" stroke-miterlimit="10" stroke-linecap="round" stroke-linejoin="round"/>
<path d="M102.386 8.53807L123.348 0.827148H214.777L200.356 8.53807H102.386Z" fill="#F9CA82" stroke="black" stroke-width="0.957251" stroke-miterlimit="10" stroke-linecap="round" stroke-linejoin="round"/>
<path d="M154.866 8.53821H143.716V38.8H154.866V8.53821Z" fill="#FBF9FA" stroke="black" stroke-width="0.957251" stroke-miterlimit="10" stroke-linecap="round" stroke-linejoin="round"/>
<path d="M143.716 8.53807L164.232 0.827148H173.151L154.866 8.53807H143.716Z" fill="#FBF2D3" stroke="black" stroke-width="0.957251" stroke-miterlimit="10" stroke-linecap="round" stroke-linejoin="round"/>
<path d="M138.512 103.543H109.374V124.493H138.512V103.543Z" stroke="black" stroke-width="0.957251" stroke-miterlimit="10" stroke-linecap="round" stroke-linejoin="round"/>
<path d="M113.389 112.272H125.133C125.133 112.272 119.781 104.27 113.389 112.272Z" fill="#D49C61" stroke="black" stroke-width="0.957251" stroke-miterlimit="10" stroke-linecap="round" stroke-linejoin="round"/>
<path d="M115.174 117.655C115.174 117.655 114.43 121.001 117.552 120.71C120.674 120.419 119.931 111.981 119.931 111.981H119.188C119.188 111.981 119.336 119.692 117.552 119.837C115.768 119.983 115.768 117.509 115.768 117.509L115.174 117.655Z" fill="#D49C61" stroke="black" stroke-width="0.957251" stroke-miterlimit="10" stroke-linecap="round" stroke-linejoin="round"/>
<path d="M135.687 111.981L132.268 108.635L131.227 107.616L130.038 108.635L126.619 111.981H130.336V110.671V121.001H131.971L132.12 110.817V111.835L135.687 111.981Z" fill="#D49C61" stroke="black" stroke-width="0.957251" stroke-miterlimit="10" stroke-linecap="round" stroke-linejoin="round"/>
<path d="M4.26831 170.031V111.544L72.8026 116.345V179.051L4.26831 170.031Z" fill="#F9CA82" stroke="black" stroke-width="0.957251" stroke-miterlimit="10" stroke-linecap="round" stroke-linejoin="round"/>
<path d="M0.999756 96.7044V115.327L4.27039 116.636L70.7234 124.056L109.376 96.7044L46.4911 91.6123L0.999756 96.7044Z" fill="#F9CA82" stroke="black" stroke-width="0.957251" stroke-miterlimit="10" stroke-linecap="round" stroke-linejoin="round"/>
<path d="M109.376 96.7045L110.119 115.618H108.038V169.158L72.8047 179.051V124.056H70.7234V103.106L109.376 96.7045Z" fill="#F9CA82" stroke="black" stroke-width="0.957251" stroke-miterlimit="10" stroke-linecap="round" stroke-linejoin="round"/>
<path d="M70.7234 103.106L0.999756 96.7044L46.4911 91.6123L109.376 96.7044L70.7234 103.106Z" fill="#F9CA82" stroke="black" stroke-width="0.957251" stroke-miterlimit="10" stroke-linecap="round" stroke-linejoin="round"/>
<path d="M88.2637 151.118V169.158L103.576 165.23V148.644L88.2637 151.118Z" fill="#D28C5A" stroke="black" stroke-width="0.638217" stroke-miterlimit="10"/>
<path d="M108.038 115.618L72.8044 124.056" stroke="black" stroke-width="0.957251" stroke-miterlimit="10" stroke-linecap="round" stroke-linejoin="round"/>
</svg>
