<svg width="289" height="354" viewBox="0 0 289 354" fill="none" xmlns="http://www.w3.org/2000/svg">
<path d="M157.12 83.1733L148.01 111.068C148.01 111.068 136.844 118.401 136.55 118.401C136.257 118.401 121.27 119.264 119.654 127.459C118.038 135.655 123.18 135.655 123.18 135.655L129.204 139.106C129.204 139.106 138.02 136.949 141.987 127.747C141.987 127.747 161.234 125.446 163.878 113.8C166.523 102.153 170.343 85.6177 170.343 85.6177C170.343 85.6177 164.172 75.8403 157.12 83.1733Z" fill="#FBC9B2" stroke="black" stroke-width="1.29822" stroke-miterlimit="10"/>
<path d="M236.165 148.74L236.312 109.055C236.312 109.055 241.748 68.3638 238.81 65.9194C235.871 63.4751 210.306 52.4035 205.605 56.142C200.903 59.8804 180.04 59.4491 180.04 59.4491C180.04 59.4491 158.589 66.0632 157.12 69.8016C155.651 73.5401 173.722 160.962 174.457 162.687C175.191 164.413 236.312 175.916 236.312 175.916L236.165 148.74Z" fill="#D80034" stroke="black" stroke-width="0.944722" stroke-miterlimit="10"/>
<path d="M174.749 161.393C174.749 161.393 170.048 235.587 168.578 240.044C167.109 244.645 174.162 307.767 174.309 308.63C175.778 314.238 186.209 314.525 196.347 315.675C202.812 316.394 216.035 309.493 215.594 303.166L200.461 176.347C200.167 172.033 197.229 168.295 192.968 167.001L174.749 161.393Z" fill="#0060C9" stroke="black" stroke-width="1.5665" stroke-miterlimit="10"/>
<path d="M191.646 168.439C191.646 168.439 191.499 223.796 193.409 246.514C193.703 250.109 196.201 252.985 196.494 254.566C198.111 263.625 228.23 291.951 244.098 303.454C248.506 306.617 259.672 304.029 263.345 300.003L269.956 292.67C273.923 288.356 276.862 278.722 273.042 274.553C262.316 262.762 238.368 243.926 226.32 236.737C226.32 236.737 246.596 185.837 239.837 167.144C232.785 148.596 191.646 168.439 191.646 168.439Z" fill="#0060C9" stroke="black" stroke-width="1.5665" stroke-miterlimit="10"/>
<path d="M182.981 63.7625L183.274 53.8412C183.274 53.8412 173.871 48.8087 172.843 38.4561C171.814 28.1035 175.487 32.4171 175.634 19.4764C175.634 6.39186 196.204 6.82323 201.199 15.019C206.195 23.3586 208.398 29.2538 207.811 33.855C207.223 38.3123 206.782 42.7697 203.256 40.7567C203.256 40.7567 202.521 48.5211 206.635 54.2726C210.896 60.024 198.261 69.8014 193.853 70.089C189.445 70.2328 182.981 63.7625 182.981 63.7625Z" fill="#FBC9B2" stroke="black" stroke-width="1.37536" stroke-miterlimit="10"/>
<path d="M180.921 35.0049C180.921 35.0049 174.309 38.7433 177.835 40.6125C182.684 43.0569 184.447 39.0309 184.447 39.0309" fill="#FBC9B2"/>
<path d="M180.921 35.0049C180.921 35.0049 174.309 38.7433 177.835 40.6125C182.684 43.0569 184.447 39.0309 184.447 39.0309" stroke="black" stroke-width="1.37536" stroke-miterlimit="10" stroke-linecap="round" stroke-linejoin="round"/>
<path d="M186.356 27.0966C186.356 27.0966 189.442 23.3582 192.527 27.528L186.356 27.0966Z" fill="#FBC9B2"/>
<path d="M186.356 27.0966C186.356 27.0966 189.442 23.3582 192.527 27.528" stroke="black" stroke-width="1.37536" stroke-miterlimit="10" stroke-linecap="round" stroke-linejoin="round"/>
<path d="M176.514 26.5216C176.514 26.5216 179.599 22.7831 182.685 26.9529L176.514 26.5216Z" fill="#FBC9B2"/>
<path d="M176.514 26.5216C176.514 26.5216 179.599 22.7831 182.685 26.9529" stroke="black" stroke-width="1.37536" stroke-miterlimit="10" stroke-linecap="round" stroke-linejoin="round"/>
<path d="M190.137 31.1206C190.341 30.1888 189.864 29.2985 189.07 29.1319C188.277 28.9654 187.468 29.5858 187.264 30.5176C187.06 31.4493 187.537 32.3397 188.331 32.5062C189.124 32.6728 189.933 32.0524 190.137 31.1206Z" fill="black"/>
<path d="M180.351 30.2178C180.555 29.286 180.077 28.3956 179.284 28.2291C178.49 28.0626 177.682 28.683 177.477 29.6147C177.273 30.5465 177.751 31.4369 178.544 31.6034C179.338 31.7699 180.146 31.1495 180.351 30.2178Z" fill="black"/>
<path d="M186.945 45.3578C186.945 45.3578 191.647 46.7957 193.263 42.7697L186.945 45.3578Z" fill="#FBC9B2"/>
<path d="M186.945 45.3578C186.945 45.3578 191.647 46.7957 193.263 42.7697" stroke="black" stroke-width="1.37536" stroke-miterlimit="10" stroke-linecap="round" stroke-linejoin="round"/>
<path d="M203.104 34.5736C203.104 34.5736 205.161 30.8352 205.161 33.1357C205.161 35.4363 204.28 37.018 203.545 36.7304C202.664 36.7304 203.692 35.7239 203.104 34.5736Z" fill="black"/>
<path d="M195.466 48.9521C195.466 48.9521 191.352 56.8604 182.683 53.4095L195.466 48.9521Z" fill="#FBC9B2"/>
<path d="M195.466 48.9521C195.466 48.9521 191.352 56.8604 182.683 53.4095" stroke="black" stroke-width="1.37536" stroke-miterlimit="10" stroke-linecap="round" stroke-linejoin="round"/>
<path d="M200.609 22.7834L201.344 30.9792L206.78 29.5413C206.78 29.5413 200.609 18.9012 199.287 17.4633C198.112 16.0255 186.064 4.66639 181.069 8.83618C176.073 13.006 174.604 18.6136 175.045 18.6136C175.485 18.6136 181.656 19.1888 186.358 17.6071C191.059 16.0255 199.728 20.0515 200.609 22.7834Z" fill="black"/>
<path d="M206.338 36.1555C206.338 36.1555 217.798 26.0905 208.101 15.4503C198.551 4.81016 191.205 3.80366 185.621 7.68588C180.185 11.5681 197.082 11.2805 201.93 22.352C206.779 33.4236 207.366 26.0905 207.513 30.4041C207.66 34.7176 206.338 36.1555 206.338 36.1555Z" fill="#0060C9" stroke="black" stroke-width="1.5665" stroke-miterlimit="10"/>
<path d="M174.75 19.3324C174.75 19.3324 160.645 9.69875 170.195 3.80353C179.745 -2.09169 184.3 2.94082 190.765 9.98633C197.229 17.0318 200.021 19.0448 200.021 19.0448C200.021 19.0448 187.532 8.26089 180.186 13.7248C172.84 19.3324 174.75 19.3324 174.75 19.3324Z" fill="#0060C9" stroke="black" stroke-width="1.5665" stroke-miterlimit="10"/>
<path d="M177.982 60.0241C177.982 60.0241 177.1 74.5465 182.242 84.0364C182.242 84.0364 182.683 81.3044 183.859 79.1476C184.593 77.8536 187.825 73.6838 189.295 73.2524L192.821 72.1021C192.821 72.1021 181.067 64.0501 182.977 59.3052L177.982 60.0241Z" fill="#D80034" stroke="black" stroke-width="1.41708" stroke-miterlimit="10"/>
<path d="M162.114 84.0359L162.849 104.741C162.849 104.741 161.967 99.7085 150.066 102.44C150.066 102.44 154.474 81.1602 155.356 80.8726C156.384 80.4412 155.503 70.3762 157.706 69.0822" fill="#D80034"/>
<path d="M162.114 84.0359L162.849 104.741C162.849 104.741 161.967 99.7085 150.066 102.44C150.066 102.44 154.474 81.1602 155.356 80.8726C156.384 80.4412 155.503 70.3762 157.706 69.0822" stroke="black" stroke-width="1.41708" stroke-miterlimit="10"/>
<path d="M174.458 165.419C174.458 165.419 167.699 113.656 172.401 109.055C172.548 108.911 192.97 114.95 204.283 109.774C204.283 109.774 197.819 145.577 214.274 149.027C230.876 152.334 234.99 151.04 234.99 151.04C234.99 151.04 239.692 168.151 239.692 168.87" fill="#0060C9"/>
<path d="M174.458 165.419C174.458 165.419 167.699 113.656 172.401 109.055C172.548 108.911 192.97 114.95 204.283 109.774C204.283 109.774 197.819 145.577 214.274 149.027C230.876 152.334 234.99 151.04 234.99 151.04C234.99 151.04 239.692 168.151 239.692 168.87" stroke="black" stroke-width="1.5665" stroke-miterlimit="10"/>
<path d="M224.559 59.3049L202.667 118.401L196.056 118.976L218.241 57.5795L224.559 59.3049Z" fill="#0060C9" stroke="black" stroke-width="1.5665" stroke-miterlimit="10"/>
<path d="M169.611 62.7557L170.639 117.107C170.639 117.107 176.075 118.257 176.222 118.257C176.369 118.257 174.018 61.1741 174.018 61.1741L169.611 62.7557Z" fill="#0060C9" stroke="black" stroke-width="1.5665" stroke-miterlimit="10"/>
<path d="M173.429 123.002C173.429 123.002 186.946 126.453 196.202 124.727V133.498C196.202 133.498 178.865 135.511 173.429 132.06V123.002Z" fill="#D80034" stroke="black" stroke-width="1.41708" stroke-miterlimit="10"/>
<path d="M196.792 254.854C196.792 254.854 199.437 262.618 210.456 257.73L196.792 254.854Z" fill="#0060C9"/>
<path d="M196.792 254.854C196.792 254.854 199.437 262.618 210.456 257.73" stroke="black" stroke-width="1.5665" stroke-miterlimit="10"/>
<path d="M169.167 244.932C169.167 244.932 171.812 252.697 182.831 247.808L169.167 244.932Z" fill="#0060C9"/>
<path d="M169.167 244.932C169.167 244.932 171.812 252.697 182.831 247.808" stroke="black" stroke-width="1.5665" stroke-miterlimit="10"/>
<path d="M178.571 173.902L191.5 182.817" stroke="black" stroke-width="1.5665" stroke-miterlimit="10"/>
<path d="M208.251 170.308C208.251 170.308 204.284 186.268 234.991 182.673L208.251 170.308Z" fill="#0060C9"/>
<path d="M208.251 170.308C208.251 170.308 204.284 186.268 234.991 182.673" stroke="black" stroke-width="1.5665" stroke-miterlimit="10"/>
<path d="M207.956 54.2725C207.956 54.2725 215.008 52.9784 216.037 55.279C219.416 62.4683 209.572 84.0362 209.572 84.0362C209.572 84.0362 200.022 67.2132 193.557 72.2457C193.557 72.1019 202.96 68.7949 207.956 54.2725Z" fill="#D80034" stroke="black" stroke-width="1.41708" stroke-miterlimit="10"/>
<path d="M190.325 98.127L193.557 72.1018" stroke="black" stroke-width="1.5665" stroke-miterlimit="10" stroke-linecap="round" stroke-linejoin="round"/>
<path d="M218.679 84.0361L222.5 89.2124" stroke="black" stroke-width="1.5665" stroke-miterlimit="10" stroke-linecap="round" stroke-linejoin="round"/>
<path d="M217.947 118.976C217.947 118.976 209.866 137.237 203.695 134.074" stroke="black" stroke-width="1.41708" stroke-miterlimit="10"/>
<path d="M131.847 139.106C131.847 139.106 136.696 131.917 139.634 128.897C142.573 125.878 138.312 123.002 135.667 125.303C133.023 127.747 135.227 130.048 135.227 130.048" stroke="black" stroke-width="1.5665" stroke-miterlimit="10" stroke-linecap="round" stroke-linejoin="round"/>
<path d="M226.613 233.861C226.613 233.861 221.765 246.227 219.12 246.083" stroke="black" stroke-width="1.57223" stroke-miterlimit="10"/>
<path d="M252.178 261.037C252.178 261.037 259.377 264.344 253.353 288.356" stroke="black" stroke-width="1.57223" stroke-miterlimit="10"/>
<path d="M200.168 192.163C200.168 192.163 191.059 202.084 192.088 214.737" stroke="black" stroke-width="1.57223" stroke-miterlimit="10"/>
<path d="M175.483 338.25C175.483 338.25 159.909 339.112 157.853 333.648C155.796 328.185 161.085 330.054 170.194 325.309C179.303 320.564 181.948 314.669 181.948 314.669C181.948 314.669 200.607 317.257 202.224 317.257C203.987 317.401 207.954 331.635 203.252 335.374C198.55 339.112 191.792 330.629 175.483 338.25Z" fill="#1D1C3A" stroke="black" stroke-width="1.5665" stroke-miterlimit="10"/>
<path d="M156.972 332.93C156.972 332.93 160.645 338.537 177.982 332.354L156.972 332.93Z" fill="#1D1C3A"/>
<path d="M156.972 332.93C156.972 332.93 160.645 338.537 177.982 332.354" stroke="black" stroke-width="1.5665" stroke-miterlimit="10" stroke-linecap="round"/>
<path d="M178.129 326.172L170.783 325.022" stroke="black" stroke-width="1.5665" stroke-miterlimit="10" stroke-linecap="round" stroke-linejoin="round"/>
<path d="M183.126 323.008L175.78 321.858" stroke="black" stroke-width="1.5665" stroke-miterlimit="10" stroke-linecap="round" stroke-linejoin="round"/>
<path d="M176.071 330.054L172.986 323.44" stroke="black" stroke-width="1.5665" stroke-miterlimit="10" stroke-linecap="round" stroke-linejoin="round"/>
<path d="M180.777 326.747L177.691 320.133" stroke="black" stroke-width="1.5665" stroke-miterlimit="10" stroke-linecap="round" stroke-linejoin="round"/>
<path d="M203.549 331.061C203.549 331.061 200.904 333.649 196.056 332.211L203.549 331.061Z" fill="#1D1C3A"/>
<path d="M203.549 331.061C203.549 331.061 200.904 333.649 196.056 332.211" stroke="black" stroke-width="1.5665" stroke-miterlimit="10" stroke-linecap="round" stroke-linejoin="round"/>
<path d="M264.079 309.349C264.079 309.349 263.639 332.499 267.312 334.655C270.985 336.668 285.971 330.629 284.796 316.107C283.62 301.585 281.71 308.486 286.559 297.271C291.407 286.056 273.63 284.043 273.63 284.043C273.63 284.043 265.255 285.481 264.079 309.349Z" fill="#1D1C3A" stroke="black" stroke-width="1.57223" stroke-miterlimit="10"/>
<path d="M270.692 334.367C270.692 334.367 277.451 333.505 278.92 315.244L270.692 334.367Z" fill="#1D1C3A"/>
<path d="M270.692 334.367C270.692 334.367 277.451 333.505 278.92 315.244" stroke="black" stroke-width="1.57223" stroke-miterlimit="10" stroke-linecap="round"/>
<path d="M275.248 309.061L264.375 317.113" stroke="black" stroke-width="1.57223" stroke-miterlimit="10" stroke-linecap="round"/>
<path d="M274.511 302.735L263.491 310.787" stroke="black" stroke-width="1.57223" stroke-miterlimit="10" stroke-linecap="round"/>
<path d="M264.814 311.505L277.449 316.538" stroke="black" stroke-width="1.57223" stroke-miterlimit="10" stroke-linecap="round"/>
<path d="M263.935 305.179L276.57 310.212" stroke="black" stroke-width="1.57223" stroke-miterlimit="10" stroke-linecap="round"/>
<path d="M282.299 298.277C282.299 298.277 288.617 294.826 283.474 287.493L282.299 298.277Z" fill="#1D1C3A"/>
<path d="M282.299 298.277C282.299 298.277 288.617 294.826 283.474 287.493" stroke="black" stroke-width="1.57223" stroke-miterlimit="10" stroke-linecap="round" stroke-linejoin="round"/>
<path d="M264.961 297.271C264.961 297.271 267.018 301.009 269.809 298.565C272.601 296.12 276.274 290.225 273.336 288.787C270.397 287.35 268.781 286.918 268.781 286.918L264.814 296.839" fill="white"/>
<path d="M264.961 297.271C264.961 297.271 267.018 301.009 269.809 298.565C272.601 296.12 276.274 290.225 273.336 288.787C270.397 287.35 268.781 286.918 268.781 286.918L264.814 296.839" stroke="black" stroke-width="1.57223" stroke-miterlimit="10" stroke-linecap="round" stroke-linejoin="round"/>
<path d="M187.825 314.956C187.825 314.956 184.74 317.976 187.972 319.989C191.058 322.002 197.963 323.727 198.551 320.564C199.139 317.401 199.138 315.819 199.138 315.819L188.413 314.956" fill="white"/>
<path d="M187.825 314.956C187.825 314.956 184.74 317.976 187.972 319.989C191.058 322.002 197.963 323.727 198.551 320.564C199.139 317.401 199.138 315.819 199.138 315.819L188.413 314.956" stroke="black" stroke-width="1.5665" stroke-miterlimit="10" stroke-linecap="round" stroke-linejoin="round"/>
<path d="M123.773 165.275L155.803 163.981L154.187 170.308L122.451 170.739L123.773 165.275Z" fill="#9A939A" stroke="black" stroke-width="1.38755" stroke-miterlimit="10"/>
<path d="M80.5784 325.884L125.684 134.217C125.684 134.217 125.684 128.035 136.557 122.714C147.429 117.394 169.468 123.002 171.084 126.741C172.7 130.479 114.518 338.681 114.518 338.681L110.404 333.505C110.404 333.505 164.178 141.407 162.562 133.642C160.946 125.878 135.675 129.76 132.443 133.498C129.357 137.237 87.3369 329.047 87.3369 329.047L80.5784 325.884Z" fill="#C4C4C4" stroke="black" stroke-width="1.38755" stroke-miterlimit="10"/>
<path d="M42.9621 352.484C53.9977 352.484 62.9438 343.086 62.9438 331.492C62.9438 319.898 53.9977 310.499 42.9621 310.499C31.9265 310.499 22.9805 319.898 22.9805 331.492C22.9805 343.086 31.9265 352.484 42.9621 352.484Z" fill="#0C070C" stroke="black" stroke-width="1.38755" stroke-miterlimit="10"/>
<path d="M53.6889 352.484C64.7245 352.484 73.6707 343.086 73.6707 331.492C73.6707 319.898 64.7245 310.499 53.6889 310.499C42.6533 310.499 33.7073 319.898 33.7073 331.492C33.7073 343.086 42.6533 352.484 53.6889 352.484Z" fill="#C4C4C4" stroke="black" stroke-width="1.38755" stroke-miterlimit="10"/>
<path d="M3 327.897L55.4519 348.027L117.013 343.857L73.6705 318.838L3 327.897Z" fill="#9A939A" stroke="black" stroke-width="1.38755" stroke-miterlimit="10"/>
<path d="M146.251 320.133L150.512 324.446L117.013 343.857L114.515 338.537L146.251 320.133Z" fill="#9A939A" stroke="black" stroke-width="1.38755" stroke-miterlimit="10"/>
<path d="M75.8743 313.806L119.952 338.825L117.013 343.857L73.6704 318.838L75.8743 313.806Z" fill="#9A939A" stroke="black" stroke-width="1.38755" stroke-miterlimit="10"/>
<path d="M3 322.721V327.897L73.6706 318.838L75.8744 313.806L3 322.721Z" fill="#9A939A" stroke="black" stroke-width="1.38755" stroke-miterlimit="10"/>
<path d="M129.649 281.598L153.156 320.851L150.512 324.446L127.004 289.506L129.649 281.598Z" fill="#9A939A" stroke="black" stroke-width="1.38755" stroke-miterlimit="10"/>
<path d="M150.511 352.484C161.547 352.484 170.493 343.086 170.493 331.492C170.493 319.898 161.547 310.499 150.511 310.499C139.475 310.499 130.529 319.898 130.529 331.492C130.529 343.086 139.475 352.484 150.511 352.484Z" fill="#0C070C" stroke="black" stroke-width="1.38755" stroke-miterlimit="10"/>
<path d="M161.238 352.484C172.273 352.484 181.219 343.086 181.219 331.492C181.219 319.898 172.273 310.499 161.238 310.499C150.202 310.499 141.256 319.898 141.256 331.492C141.256 343.086 150.202 352.484 161.238 352.484Z" fill="#C4C4C4" stroke="black" stroke-width="1.38755" stroke-miterlimit="10"/>
<path d="M163.145 341.413C168.338 341.413 172.548 336.971 172.548 331.492C172.548 326.012 168.338 321.571 163.145 321.571C157.952 321.571 153.742 326.012 153.742 331.492C153.742 336.971 157.952 341.413 163.145 341.413Z" fill="#0C070C" stroke="black" stroke-width="0.655135" stroke-miterlimit="10"/>
<path d="M140.813 241.482C140.813 241.482 153.889 242.919 146.984 260.318C140.078 277.859 136.111 292.382 136.111 292.382L133.173 287.493C133.173 287.493 144.927 254.997 144.927 252.841C144.927 250.684 142.87 246.227 140.225 246.227L141.107 240.619L140.813 241.482Z" fill="#9A939A" stroke="black" stroke-width="1.38755" stroke-miterlimit="10"/>
<path d="M12.2563 250.828L25.4795 267.076L115.544 272.683L134.938 268.37L81.3107 238.318L12.2563 250.828Z" fill="#EAB671" stroke="black" stroke-width="0.705676" stroke-miterlimit="10" stroke-linecap="round" stroke-linejoin="round"/>
<path d="M35.1763 205.104L100.704 184.542L81.3104 238.318L12.2561 250.828L35.1763 205.104Z" fill="#F9CA82" stroke="black" stroke-width="0.705676" stroke-miterlimit="10" stroke-linecap="round" stroke-linejoin="round"/>
<path d="M134.938 268.37L148.749 217.757L100.704 184.543L81.3103 238.319L134.938 268.37Z" fill="#F9CA82" stroke="black" stroke-width="0.705676" stroke-miterlimit="10" stroke-linecap="round" stroke-linejoin="round"/>
<path d="M12.2563 319.27L24.8919 259.455L90.42 247.234L75.2868 312.8L12.2563 320.852V319.27Z" fill="#F9CA82" stroke="black" stroke-width="0.705676" stroke-miterlimit="10" stroke-linecap="round" stroke-linejoin="round"/>
<path d="M118.482 337.962L75.2866 312.8L90.4198 247.234L136.848 277.572L118.482 337.962Z" fill="#F9CA82" stroke="black" stroke-width="0.705676" stroke-miterlimit="10" stroke-linecap="round" stroke-linejoin="round"/>
<path d="M171.079 282.173C171.079 282.173 172.989 287.35 182.392 291.807L171.079 282.173Z" fill="#4C4968"/>
<path d="M171.079 282.173C171.079 282.173 172.989 287.35 182.392 291.807" stroke="black" stroke-width="1.5665" stroke-miterlimit="10"/>
<path d="M218.686 78.4287L212.075 101.434C212.075 101.434 228.53 96.9771 234.113 112.075C234.113 112.075 253.213 79.8666 238.815 66.3507" fill="#D80034"/>
<path d="M218.686 78.4287L212.075 101.434C212.075 101.434 228.53 96.9771 234.113 112.075C234.113 112.075 253.213 79.8666 238.815 66.3507" stroke="black" stroke-width="1.41708" stroke-miterlimit="10"/>
<path d="M213.249 99.5655L207.959 116.82C207.959 116.82 175.489 124.297 174.901 124.153C174.314 124.009 156.977 118.545 151.981 125.591C149.19 129.617 148.602 132.205 149.043 133.355C149.483 134.362 151.247 134.506 151.247 134.506L151.54 136.806C151.834 138.244 152.716 138.532 154.185 138.819L155.507 138.675C155.801 140.401 156.83 140.976 157.711 140.832C158.74 140.688 159.915 140.688 160.797 141.982C161.678 143.276 163.882 140.688 167.849 139.25C171.228 137.956 176.077 138.1 179.309 135.512C179.309 135.512 213.395 139.682 221.036 129.904C228.676 120.127 232.349 108.912 232.349 108.912C232.349 108.912 225.59 95.9709 213.249 99.5655Z" fill="#FBC9B2" stroke="black" stroke-width="1.5665" stroke-miterlimit="10"/>
<path d="M159.914 127.46C160.355 127.46 152.421 129.617 151.54 134.937" stroke="black" stroke-width="1.5665" stroke-miterlimit="10" stroke-linecap="round" stroke-linejoin="round"/>
<path d="M163.881 130.479C164.322 130.479 156.388 132.636 155.506 137.956" stroke="black" stroke-width="1.5665" stroke-miterlimit="10" stroke-linecap="round" stroke-linejoin="round"/>
<path d="M168.143 133.499C168.584 133.499 160.65 135.655 159.769 140.976" stroke="black" stroke-width="1.5665" stroke-miterlimit="10" stroke-linecap="round" stroke-linejoin="round"/>
<path d="M124.652 126.74C124.652 126.74 121.566 130.048 126.415 134.792C131.263 139.537 129.059 140.256 127.296 140.256C125.533 140.256 117.893 136.23 119.509 128.753" fill="#FBC9B2"/>
<path d="M124.652 126.74C124.652 126.74 121.566 130.048 126.415 134.792C131.263 139.537 129.059 140.256 127.296 140.256C125.533 140.256 117.893 136.23 119.509 128.753" stroke="black" stroke-width="1.29822" stroke-miterlimit="10" stroke-linecap="round" stroke-linejoin="round"/>
<path d="M125.388 125.447C125.388 125.447 125.535 129.76 130.383 134.505C135.232 139.25 130.971 138.244 129.355 138.388C127.739 138.531 119.952 134.362 121.568 126.885" fill="#FBC9B2"/>
<path d="M125.388 125.447C125.388 125.447 125.535 129.76 130.383 134.505C135.232 139.25 130.971 138.244 129.355 138.388C127.739 138.531 119.952 134.362 121.568 126.885" stroke="black" stroke-width="1.29822" stroke-miterlimit="10" stroke-linecap="round" stroke-linejoin="round"/>
<path d="M130.674 123.721C130.674 123.721 127.588 127.028 132.437 131.773C137.285 136.518 135.081 137.237 133.318 137.237C131.555 137.237 123.621 132.78 125.238 125.303" fill="#FBC9B2"/>
<path d="M130.674 123.721C130.674 123.721 127.588 127.028 132.437 131.773C137.285 136.518 135.081 137.237 133.318 137.237C131.555 137.237 123.621 132.78 125.238 125.303" stroke="black" stroke-width="1.29822" stroke-miterlimit="10" stroke-linecap="round" stroke-linejoin="round"/>
<path d="M134.936 121.996C134.936 121.996 131.851 125.303 136.699 130.048C141.548 134.793 139.344 135.511 137.581 135.511C135.818 135.511 128.031 130.479 129.794 123.002" fill="#FBC9B2"/>
<path d="M134.936 121.996C134.936 121.996 131.851 125.303 136.699 130.048C141.548 134.793 139.344 135.511 137.581 135.511C135.818 135.511 128.031 130.479 129.794 123.002" stroke="black" stroke-width="1.29822" stroke-miterlimit="10" stroke-linecap="round" stroke-linejoin="round"/>
<path d="M188.271 162.975L190.769 180.948L196.058 187.274L202.67 166.138L187.243 162.975H188.271Z" fill="#0060C9"/>
<path d="M173.869 115.238C174.843 115.238 175.632 114.465 175.632 113.512C175.632 112.56 174.843 111.787 173.869 111.787C172.895 111.787 172.106 112.56 172.106 113.512C172.106 114.465 172.895 115.238 173.869 115.238Z" fill="white" stroke="black" stroke-width="1.78909" stroke-miterlimit="10" stroke-linecap="round" stroke-linejoin="round"/>
<path d="M199.878 117.826C200.852 117.826 201.641 117.053 201.641 116.1C201.641 115.147 200.852 114.375 199.878 114.375C198.905 114.375 198.115 115.147 198.115 116.1C198.115 117.053 198.905 117.826 199.878 117.826Z" fill="white" stroke="black" stroke-width="1.78909" stroke-miterlimit="10" stroke-linecap="round" stroke-linejoin="round"/>
<path d="M149.773 105.604C149.773 105.604 147.276 104.598 149.039 99.7088C150.802 94.8201 150.067 97.6958 153.74 97.4082C157.56 97.1207 162.556 97.8396 162.556 97.8396L162.85 104.741C162.85 104.741 152.859 101.578 149.773 105.604Z" fill="#D80034" stroke="black" stroke-width="1.41708" stroke-miterlimit="10"/>
<path d="M212.072 103.591C212.072 103.591 209.575 96.1143 212.072 94.964C214.57 93.8137 230.879 92.5196 235.139 100.284C239.4 108.049 239.253 109.918 235.727 112.793C232.201 115.669 232.642 107.761 227.499 104.31C222.504 100.859 216.627 100.428 212.072 103.591Z" fill="#D80034" stroke="black" stroke-width="1.41708" stroke-miterlimit="10"/>
<path d="M214.132 120.701C214.425 120.989 213.103 119.12 208.108 116.963L214.132 120.701Z" fill="#AA151C"/>
<path d="M214.132 120.701C214.425 120.989 213.103 119.12 208.108 116.963" stroke="black" stroke-width="1.5665" stroke-miterlimit="10" stroke-linecap="round" stroke-linejoin="round"/>
<path d="M155.067 113.368C155.067 113.368 152.276 111.068 148.603 111.068L155.067 113.368Z" fill="#AA151C"/>
<path d="M155.067 113.368C155.067 113.368 152.276 111.068 148.603 111.068" stroke="black" stroke-width="1.5665" stroke-miterlimit="10" stroke-linecap="round" stroke-linejoin="round"/>
<path d="M197.381 80.4416C198.03 80.4416 198.557 79.9266 198.557 79.2913C198.557 78.656 198.03 78.141 197.381 78.141C196.732 78.141 196.206 78.656 196.206 79.2913C196.206 79.9266 196.732 80.4416 197.381 80.4416Z" fill="#AA151C" stroke="black" stroke-width="1.5665" stroke-miterlimit="10" stroke-linecap="round" stroke-linejoin="round"/>
<path d="M195.469 92.0884C196.118 92.0884 196.645 91.5734 196.645 90.9381C196.645 90.3028 196.118 89.7878 195.469 89.7878C194.82 89.7878 194.294 90.3028 194.294 90.9381C194.294 91.5734 194.82 92.0884 195.469 92.0884Z" fill="#AA151C" stroke="black" stroke-width="1.5665" stroke-miterlimit="10" stroke-linecap="round" stroke-linejoin="round"/>
</svg>
