<svg width="146" height="151" viewBox="0 0 146 151" fill="none" xmlns="http://www.w3.org/2000/svg">
<path d="M15.0768 111.097L1 165.117C1 165.117 9.8991 173.18 17.6656 169.31C25.2703 165.44 31.2569 113.515 31.2569 113.515C31.2569 113.515 17.9892 105.13 15.0768 111.097Z" fill="#FBC9B2" stroke="black" stroke-width="0.399505" stroke-miterlimit="10"/>
<path d="M83.8423 85.6184L77.3702 69.0092L56.1742 67.5579L50.1875 86.2634C50.1875 86.2634 71.3835 93.6812 71.7071 93.6812C72.1925 93.6812 83.8423 85.6184 83.8423 85.6184Z" fill="#FBC9B2" stroke="black" stroke-width="0.399505" stroke-miterlimit="10"/>
<path d="M41.2864 37.0806C42.2573 36.2743 43.2281 36.5968 44.0371 37.4031C45.3315 17.8913 53.907 9.18351 59.8936 10.3123C67.1747 11.6023 87.5617 26.1153 87.5617 26.1153C87.5617 26.1153 88.8562 29.9854 89.1798 35.7906C89.827 35.3068 90.636 35.1456 91.445 35.7906C94.3574 38.3707 92.254 47.2397 87.5617 50.3035C86.7527 50.7873 86.2673 50.9485 85.7819 50.626C84.0021 65.4615 84.0021 73.2017 65.8803 74.4918C49.0529 74.4918 47.2731 63.2039 45.0079 49.8198C39.992 49.981 38.5358 39.4994 41.2864 37.0806Z" fill="#FBC9B2" stroke="black" stroke-width="0.399505" stroke-miterlimit="10"/>
<path d="M88.8593 39.9832C88.8593 39.9832 89.6683 29.3404 83.6817 26.4378C77.695 23.5352 52.9393 14.9887 50.0269 21.2777C47.1145 27.7279 43.5548 36.1131 43.5548 39.9832C43.5548 43.8534 40.966 28.0504 42.7458 21.2777C44.5256 14.505 39.348 9.82857 48.7325 5.15217C58.117 0.47578 64.9127 3.86213 69.6049 1.28205C74.2972 -1.29803 73.8118 0.475776 72.5173 2.57209C71.2229 4.66841 77.695 -2.58807 83.6817 1.28205C89.6683 5.15217 80.7692 12.4086 80.7692 12.4086L88.8593 22.2452C88.8593 22.2452 92.2572 34.9843 88.8593 39.9832Z" fill="#512900"/>
<path d="M43.2285 33.6942C43.2285 33.6942 43.2285 15.4724 47.1118 10.796C50.995 6.1196 58.2761 4.82956 61.6739 5.31333C65.0718 5.79709 72.3528 6.1196 74.9417 4.02329C77.5305 1.92697 85.6206 -1.13687 85.1352 4.82956C84.6498 10.796 83.3554 9.50596 83.3554 9.50596C83.3554 9.50596 92.2545 11.2798 88.533 23.0514C84.8116 34.823 63.7773 19.665 55.6873 22.2451C47.4354 24.6639 43.2285 33.6942 43.2285 33.6942Z" fill="#663200"/>
<path d="M57.1465 44.6597C58.3082 44.6597 59.25 43.1435 59.25 41.2733C59.25 39.4031 58.3082 37.887 57.1465 37.887C55.9847 37.887 55.043 39.4031 55.043 41.2733C55.043 43.1435 55.9847 44.6597 57.1465 44.6597Z" fill="black"/>
<path d="M72.5156 41.757C72.5156 43.692 73.8101 40.6282 75.7518 40.6282C77.6935 40.6282 79.1498 43.692 79.1498 41.757C79.1498 39.8219 77.6935 38.3706 75.9136 38.3706C74.1337 38.3706 72.5156 39.8219 72.5156 41.757Z" fill="black"/>
<path d="M69.7647 48.5295C69.7647 48.5295 70.2501 51.4321 65.0723 51.1096L69.7647 48.5295Z" fill="#FBC9B2"/>
<path d="M69.7647 48.5295C69.7647 48.5295 70.2501 51.4321 65.0723 51.1096" stroke="#D38C73" stroke-width="1.21356" stroke-miterlimit="10" stroke-linecap="round" stroke-linejoin="round"/>
<path d="M81.901 31.2756C81.901 31.2756 73.3251 28.6955 71.707 30.4693L81.901 31.2756Z" fill="#FBC9B2"/>
<path d="M81.901 31.2756C81.901 31.2756 73.3251 28.6955 71.707 30.4693" stroke="#663200" stroke-width="0.809042" stroke-miterlimit="10" stroke-linecap="round" stroke-linejoin="round"/>
<path d="M51.1602 34.6618C51.1602 34.6618 57.9561 31.7592 61.3541 33.3718L51.1602 34.6618Z" fill="#FBC9B2"/>
<path d="M51.1602 34.6618C51.1602 34.6618 57.9561 31.7592 61.3541 33.3718" stroke="#663200" stroke-width="0.809042" stroke-miterlimit="10" stroke-linecap="round" stroke-linejoin="round"/>
<path d="M74.1345 57.2374C74.1345 57.2374 61.3516 56.1086 57.1445 57.7211C57.1445 57.7211 58.9244 64.8164 66.2058 64.3326C73.8108 63.6876 73.8108 59.4949 74.1345 57.2374Z" fill="white" stroke="#D38C73" stroke-width="0.809042" stroke-miterlimit="10" stroke-linecap="round" stroke-linejoin="round"/>
<path d="M89.8292 40.4668C89.8292 40.4668 91.1236 42.5631 89.3438 45.1432" stroke="#D38C73" stroke-width="1.21356" stroke-miterlimit="10" stroke-linecap="round" stroke-linejoin="round"/>
<path d="M43.23 40.467C43.23 40.467 41.9355 42.5634 43.7154 45.1434" stroke="#D38C73" stroke-width="1.21356" stroke-miterlimit="10" stroke-linecap="round" stroke-linejoin="round"/>
<path d="M81.576 79.1682C81.576 79.1682 97.4326 79.9745 106.332 85.6184C115.231 91.1011 122.188 100.454 122.188 100.454C122.188 100.454 119.276 116.579 119.599 120.449C120.085 124.32 121.379 130.609 116.687 130.609C111.995 130.609 108.597 126.416 108.597 126.416L104.39 166.407C104.39 166.407 44.3616 179.308 30.932 165.923L28.8286 133.672C28.8286 133.672 28.8286 134.962 27.5342 134.479C26.2398 133.995 12.972 115.773 14.7519 111.58C16.5317 107.388 18.1497 84.3284 52.2899 80.1357C52.2899 80.1357 54.3933 87.7147 66.852 87.7147C79.3108 87.7147 81.576 79.1682 81.576 79.1682Z" fill="#D80034" stroke="black" stroke-width="0.404521" stroke-miterlimit="10"/>
<path d="M113.613 90.4561L106.332 93.0361H108.921L112.642 115.128C112.642 115.128 110.539 113.999 111.833 105.453C113.128 96.9063 105.361 85.6184 108.112 85.6184C110.701 85.6184 112.804 99.4863 112.804 104.808C112.804 110.129 138.531 79.1682 141.281 79.1682C143.87 79.1682 146.621 80.4583 141.281 87.7147C135.942 94.9712 140.634 93.6812 140.634 93.6812C140.634 93.6812 143.87 92.3911 144.679 94.3262C145.326 96.2612 145.326 99.0026 141.443 100.938C137.398 102.873 136.104 108.839 134.162 110.774C132.22 112.709 116.202 109.645 116.202 109.645C119.276 90.1336 145.973 111.742 139.987 125.932C135.618 136.252 111.995 140.606 114.26 121.901C118.305 83.3609 113.613 90.4561 113.613 90.4561Z" fill="#FBC9B2" stroke="black" stroke-width="0.404521" stroke-miterlimit="10"/>
<path d="M106.493 121.901H137.398C138.692 121.901 139.825 120.772 139.825 119.482V59.8175C139.825 58.5275 138.692 57.3987 137.398 57.3987H106.493C105.199 57.3987 104.066 58.5275 104.066 59.8175V119.482C104.066 120.933 105.037 121.901 106.493 121.901Z" fill="#273143"/>
<path d="M138.907 64.4049L138.907 114.957L105.01 114.957L105.01 64.4049L138.907 64.4049Z" fill="white" stroke="black" stroke-width="0.404521" stroke-miterlimit="10"/>
<path d="M128.853 101.429C128.853 101.429 126.24 99.3857 125.779 96.7143C125.471 94.8286 126.239 92 128.853 92C131.621 92 132.236 94.8286 131.929 96.7143C131.621 99.3857 128.853 101.429 128.853 101.429Z" stroke="#D80034" stroke-miterlimit="10" stroke-linecap="round" stroke-linejoin="round"/>
<path d="M128.857 97.1853C129.724 97.1853 130.428 96.4818 130.428 95.6139C130.428 94.746 129.724 94.0425 128.857 94.0425C127.989 94.0425 127.285 94.746 127.285 95.6139C127.285 96.4818 127.989 97.1853 128.857 97.1853Z" stroke="#D80034" stroke-miterlimit="10" stroke-linecap="round" stroke-linejoin="round"/>
<circle cx="113.143" cy="73.1429" r="3.14286" fill="white" stroke="#D80034"/>
<circle cx="128.858" cy="107.714" r="3.14286" fill="white" stroke="#D80034"/>
<path d="M116.286 73.1428C132.786 68.4285 136.714 81.7856 121.785 88.0713C108.974 93.4655 111.571 108.5 125.714 107.714" stroke="#D80034"/>
<path d="M110.702 61.9141H111.673C111.996 61.9141 112.32 61.5916 112.32 61.269V60.3015C112.32 59.979 111.996 59.6565 111.673 59.6565H110.702C110.378 59.6565 110.055 59.979 110.055 60.3015V61.269C110.216 61.5916 110.378 61.9141 110.702 61.9141Z" fill="black"/>
<path d="M116.041 60.7851H129.309C129.471 60.7851 129.471 60.6239 129.471 60.6239V60.3014C129.471 60.1401 129.309 60.1401 129.309 60.1401H116.041C115.879 60.1401 115.879 60.3014 115.879 60.3014V60.6239C115.879 60.6239 115.879 60.7851 116.041 60.7851Z" fill="black"/>
<path d="M139.665 106.743C139.665 106.743 144.357 104.163 142.254 101.421C140.312 98.8413 135.62 96.745 134.972 99.4863C134.325 102.228 139.665 106.743 139.665 106.743Z" fill="#FBC9B2" stroke="black" stroke-width="0.404521" stroke-miterlimit="10"/>
<path d="M139.663 113.354C139.663 113.354 143.223 111.258 141.766 109.323C140.148 107.226 136.588 105.775 136.103 107.71C135.618 109.645 139.663 113.354 139.663 113.354Z" fill="#FBC9B2" stroke="black" stroke-width="0.404521" stroke-miterlimit="10"/>
</svg>
