<svg width="364" height="153" viewBox="0 0 364 153" fill="none" xmlns="http://www.w3.org/2000/svg">
<path d="M186 125H147V134H186V125Z" fill="#3A383A" stroke="black" stroke-width="0.2393" stroke-miterlimit="10"/>
<path d="M206 134H200.826H185V125H206V134Z" fill="#3A383A" stroke="black" stroke-width="0.2424" stroke-miterlimit="10"/>
<path d="M141 134L166 134L166 130L141 130L141 134Z" fill="#140F17" stroke="black" stroke-width="0.2424" stroke-miterlimit="10"/>
<path d="M141 132L168 132L168 128L141 128L141 132Z" fill="#140F17" stroke="black" stroke-width="0.2474" stroke-miterlimit="10"/>
<path d="M183 134L193 134L193 131L183 131L183 134Z" fill="#140F17" stroke="black" stroke-width="0.2424" stroke-miterlimit="10"/>
<path d="M166 131L186 131L186 129L166 129L166 131Z" fill="#140F17" stroke="black" stroke-width="0.1315" stroke-miterlimit="10"/>
<path d="M183 126H169V128.632H172.972V130H179.227V128.632H183V126Z" fill="#D80034" stroke="black" stroke-width="0.3696" stroke-miterlimit="10"/>
<path d="M202 134H200.591C200.591 134 199.987 126.676 194.45 127.352C188.913 127.915 188.711 134 188.711 134H187C187 134 187.705 126 194.349 126C200.993 126 202 134 202 134Z" fill="#140F17" stroke="black" stroke-width="0.2424" stroke-miterlimit="10"/>
<path d="M161.746 135C161.746 135 163.408 128.365 158.227 127.242C153.045 126.221 148.548 128.365 149.036 135H161.746Z" fill="#140F17" stroke="black" stroke-width="0.2424" stroke-miterlimit="10"/>
<path d="M195 139C198.314 139 201 136.314 201 133C201 129.686 198.314 127 195 127C191.686 127 189 129.686 189 133C189 136.314 191.686 139 195 139Z" fill="#3A393B" stroke="black" stroke-width="0.2424" stroke-miterlimit="10"/>
<path d="M195 137C197.209 137 199 135.209 199 133C199 130.791 197.209 129 195 129C192.791 129 191 130.791 191 133C191 135.209 192.791 137 195 137Z" fill="#C9D6E5" stroke="black" stroke-width="0.2424" stroke-miterlimit="10"/>
<path d="M195 131C195.552 131 196 130.552 196 130C196 129.448 195.552 129 195 129C194.448 129 194 129.448 194 130C194 130.552 194.448 131 195 131Z" fill="#B6C3D3" stroke="black" stroke-width="0.2424" stroke-miterlimit="10"/>
<path d="M195 136C195.552 136 196 135.776 196 135.5C196 135.224 195.552 135 195 135C194.448 135 194 135.224 194 135.5C194 135.776 194.448 136 195 136Z" fill="#B6C3D3" stroke="black" stroke-width="0.2424" stroke-miterlimit="10"/>
<path d="M191.5 134C191.776 134 192 133.552 192 133C192 132.448 191.776 132 191.5 132C191.224 132 191 132.448 191 133C191 133.552 191.224 134 191.5 134Z" fill="#B6C3D3" stroke="black" stroke-width="0.2424" stroke-miterlimit="10"/>
<path d="M197.5 134C197.776 134 198 133.552 198 133C198 132.448 197.776 132 197.5 132C197.224 132 197 132.448 197 133C197 133.552 197.224 134 197.5 134Z" fill="#B6C3D3" stroke="black" stroke-width="0.2424" stroke-miterlimit="10"/>
<path d="M156 139C159.314 139 162 136.314 162 133C162 129.686 159.314 127 156 127C152.686 127 150 129.686 150 133C150 136.314 152.686 139 156 139Z" fill="#3A393B" stroke="black" stroke-width="0.2424" stroke-miterlimit="10"/>
<path d="M156 137C158.209 137 160 135.209 160 133C160 130.791 158.209 129 156 129C153.791 129 152 130.791 152 133C152 135.209 153.791 137 156 137Z" fill="#C9D6E5" stroke="black" stroke-width="0.2424" stroke-miterlimit="10"/>
<path d="M156 131C156.552 131 157 130.776 157 130.5C157 130.224 156.552 130 156 130C155.448 130 155 130.224 155 130.5C155 130.776 155.448 131 156 131Z" fill="#B6C3D3" stroke="black" stroke-width="0.2424" stroke-miterlimit="10"/>
<path d="M156 136C156.552 136 157 135.776 157 135.5C157 135.224 156.552 135 156 135C155.448 135 155 135.224 155 135.5C155 135.776 155.448 136 156 136Z" fill="#B6C3D3" stroke="black" stroke-width="0.2424" stroke-miterlimit="10"/>
<path d="M152.5 134C152.776 134 153 133.552 153 133C153 132.448 152.776 132 152.5 132C152.224 132 152 132.448 152 133C152 133.552 152.224 134 152.5 134Z" fill="#B6C3D3" stroke="black" stroke-width="0.2424" stroke-miterlimit="10"/>
<path d="M158.5 134C158.776 134 159 133.552 159 133C159 132.448 158.776 132 158.5 132C158.224 132 158 132.448 158 133C158 133.552 158.224 134 158.5 134Z" fill="#B6C3D3" stroke="black" stroke-width="0.2424" stroke-miterlimit="10"/>
<path d="M186 125.368V104.752C186 104.752 185.902 102.721 188.653 102.214C191.404 101.706 208.105 102.011 210.66 104.143C213.214 106.276 214 134 214 134H203.684C203.488 134 208.302 122.017 186 125.368Z" fill="#D80034" stroke="black" stroke-width="0.2424" stroke-miterlimit="10"/>
<path d="M213.231 117H212L212.385 122H214L213.231 117Z" fill="#3A383A" stroke="black" stroke-width="0.2424" stroke-miterlimit="10"/>
<path d="M214.231 127H213L213.385 133H215L214.231 127Z" fill="#ECFF5F" stroke="black" stroke-width="0.2424" stroke-miterlimit="10"/>
<path d="M204 135L215 135L215 133L204 133L204 135Z" fill="#3A383A" stroke="black" stroke-width="0.2424" stroke-miterlimit="10"/>
<path d="M199 106H194V113H199V106Z" fill="#3A383A" stroke="black" stroke-width="0.2424" stroke-miterlimit="10"/>
<path d="M199 113.364V106H209V115H205.633L203.184 113.364H199Z" fill="#3A383A" stroke="black" stroke-width="0.2424" stroke-miterlimit="10"/>
<path d="M213 111L210 111V111L213 111V111Z" stroke="black" stroke-width="0.2424" stroke-miterlimit="10"/>
<path d="M212 111L212 109L211 109L211 111L212 111Z" fill="#3A383A" stroke="black" stroke-width="0.2424" stroke-miterlimit="10"/>
<path d="M201 117L201 115L200 115L200 117L201 117Z" fill="#140F17" stroke="black" stroke-width="0.2424" stroke-miterlimit="10"/>
<path d="M210.455 110H211.273C211.545 110 211.818 109.794 211.818 109.485L212 103.618C212 103.309 211.818 103 211.545 103H210.727C210.455 103 210.182 103.206 210.182 103.515L210 109.382C210 109.691 210.182 110 210.455 110Z" fill="#D80034" stroke="black" stroke-width="0.2424" stroke-miterlimit="10"/>
<path d="M199 126H199L199 104H199L199 126Z" stroke="black" stroke-width="0.2424" stroke-miterlimit="10"/>
<path d="M192 124L192 125L214 125L214 124L192 124Z" fill="#D80034" stroke="black" stroke-width="0.2424" stroke-miterlimit="10"/>
<path d="M190 97V101.907L203 102C203 102 201.415 97.7407 190 97Z" fill="#D80034" stroke="black" stroke-width="0.3696" stroke-miterlimit="10"/>
<path d="M193 116H187V124H193V116Z" fill="#D80034" stroke="black" stroke-width="0.3696" stroke-miterlimit="10"/>
<path d="M172.5 135C173.881 135 175 134.105 175 133C175 131.895 173.881 131 172.5 131C171.119 131 170 131.895 170 133C170 134.105 171.119 135 172.5 135Z" fill="#D80034" stroke="black" stroke-width="0.3696" stroke-miterlimit="10"/>
<path d="M179 135C180.105 135 181 134.105 181 133C181 131.895 180.105 131 179 131C177.895 131 177 131.895 177 133C177 134.105 177.895 135 179 135Z" fill="#D80034" stroke="black" stroke-width="0.3696" stroke-miterlimit="10"/>
<path d="M118 125.792V130.842H104.491L102.576 135H51.6663L48.1379 130.347H34.9316L31 130.446L31.1008 127.574L34.9316 127.772V125L118 125.792Z" fill="#3A383A" stroke="black" stroke-width="0.191" stroke-miterlimit="10"/>
<path d="M118 130H104V132.632H107.972V134H114.227V132.632H118V130Z" fill="#D80034" stroke="black" stroke-width="0.3696" stroke-miterlimit="10"/>
<path d="M33 128.448V127L31.125 127.103L31 130H31.875L31.75 128.448H33Z" fill="#D80034" stroke="black" stroke-width="0.2424" stroke-miterlimit="10"/>
<path d="M102 125H52V135H102V125Z" fill="#140F17" stroke="black" stroke-width="0.2474" stroke-miterlimit="10"/>
<path d="M54 132L100 132L100 128L54 128L54 132Z" fill="#3A383A" stroke="black" stroke-width="0.2504" stroke-miterlimit="10"/>
<path d="M98 134H96.5906C96.5906 134 95.9866 126.676 90.4497 127.352C84.9127 128.028 84.7114 134 84.7114 134H83C83 134 83.7047 126 90.349 126C96.9933 126 98 134 98 134Z" fill="#140F17" stroke="black" stroke-width="0.2424" stroke-miterlimit="10"/>
<path d="M91 139C94.3137 139 97 136.314 97 133C97 129.686 94.3137 127 91 127C87.6863 127 85 129.686 85 133C85 136.314 87.6863 139 91 139Z" fill="#3A393B" stroke="black" stroke-width="0.2424" stroke-miterlimit="10"/>
<path d="M91 137C93.2091 137 95 135.209 95 133C95 130.791 93.2091 129 91 129C88.7909 129 87 130.791 87 133C87 135.209 88.7909 137 91 137Z" fill="#C9D6E5" stroke="black" stroke-width="0.2424" stroke-miterlimit="10"/>
<path d="M91 131C91.5523 131 92 130.552 92 130C92 129.448 91.5523 129 91 129C90.4477 129 90 129.448 90 130C90 130.552 90.4477 131 91 131Z" fill="#B6C3D3" stroke="black" stroke-width="0.2424" stroke-miterlimit="10"/>
<path d="M91 136C91.5523 136 92 135.776 92 135.5C92 135.224 91.5523 135 91 135C90.4477 135 90 135.224 90 135.5C90 135.776 90.4477 136 91 136Z" fill="#B6C3D3" stroke="black" stroke-width="0.2424" stroke-miterlimit="10"/>
<path d="M88.5 134C88.7761 134 89 133.552 89 133C89 132.448 88.7761 132 88.5 132C88.2239 132 88 132.448 88 133C88 133.552 88.2239 134 88.5 134Z" fill="#B6C3D3" stroke="black" stroke-width="0.2424" stroke-miterlimit="10"/>
<path d="M93.5 134C93.7761 134 94 133.552 94 133C94 132.448 93.7761 132 93.5 132C93.2239 132 93 132.448 93 133C93 133.552 93.2239 134 93.5 134Z" fill="#B6C3D3" stroke="black" stroke-width="0.2424" stroke-miterlimit="10"/>
<path d="M70 134H68.5906C68.5906 134 67.9866 126.676 62.4497 127.352C56.9127 127.915 56.7114 134 56.7114 134H55C55 134 55.7047 126 62.349 126C68.9933 126 70 134 70 134Z" fill="#140F17" stroke="black" stroke-width="0.2424" stroke-miterlimit="10"/>
<path d="M63 139C66.3137 139 69 136.314 69 133C69 129.686 66.3137 127 63 127C59.6863 127 57 129.686 57 133C57 136.314 59.6863 139 63 139Z" fill="#3A393B" stroke="black" stroke-width="0.2424" stroke-miterlimit="10"/>
<path d="M63 137C65.2091 137 67 135.209 67 133C67 130.791 65.2091 129 63 129C60.7909 129 59 130.791 59 133C59 135.209 60.7909 137 63 137Z" fill="#C9D6E5" stroke="black" stroke-width="0.2424" stroke-miterlimit="10"/>
<path d="M63 131C63.5523 131 64 130.552 64 130C64 129.448 63.5523 129 63 129C62.4477 129 62 129.448 62 130C62 130.552 62.4477 131 63 131Z" fill="#B6C3D3" stroke="black" stroke-width="0.2424" stroke-miterlimit="10"/>
<path d="M63 136C63.5523 136 64 135.776 64 135.5C64 135.224 63.5523 135 63 135C62.4477 135 62 135.224 62 135.5C62 135.776 62.4477 136 63 136Z" fill="#B6C3D3" stroke="black" stroke-width="0.2424" stroke-miterlimit="10"/>
<path d="M59.5 134C59.7761 134 60 133.552 60 133C60 132.448 59.7761 132 59.5 132C59.2239 132 59 132.448 59 133C59 133.552 59.2239 134 59.5 134Z" fill="#B6C3D3" stroke="black" stroke-width="0.2424" stroke-miterlimit="10"/>
<path d="M65.5 134C65.7761 134 66 133.552 66 133C66 132.448 65.7761 132 65.5 132C65.2239 132 65 132.448 65 133C65 133.552 65.2239 134 65.5 134Z" fill="#B6C3D3" stroke="black" stroke-width="0.2424" stroke-miterlimit="10"/>
<path d="M49 129H34V130H49V129Z" fill="#140F17" stroke="black" stroke-width="0.2424" stroke-miterlimit="10"/>
<path d="M54 131.387C54 131.387 54.1049 126.686 58.9279 124.029C62.0734 122.292 66.6868 122.701 68.9934 125.664C71.3001 128.628 70.9856 132 70.9856 132H69.7274C69.7274 132 69.8322 124.54 63.3316 124.336C56.8309 124.131 54.8388 131.796 54.8388 131.796L54 131.387Z" fill="#D80034" stroke="black" stroke-width="0.2424" stroke-miterlimit="10"/>
<path d="M83 131.387C83 131.387 83.0987 126.686 87.638 124.029C90.5985 122.292 94.9405 122.701 97.1115 125.664C99.2825 128.526 98.9864 132 98.9864 132H97.8022C97.8022 132 97.9009 124.54 91.7827 124.336C85.6644 124.131 83.7895 131.796 83.7895 131.796L83 131.387Z" fill="#D80034" stroke="black" stroke-width="0.2424" stroke-miterlimit="10"/>
<path d="M29 125H182V94.5C182 93.1 180.9 92 179.5 92H31.5C30.1 92 29 93.1 29 94.5V125Z" fill="#D80034" stroke="black" stroke-width="0.3696" stroke-miterlimit="10"/>
<g clip-path="url(#clip0_551_4591)">
<path d="M64.8855 106.687C63.4352 106.687 62.2578 107.865 62.2578 109.315C62.2578 110.765 63.4352 111.943 64.8855 111.943C66.3359 111.943 67.5132 110.765 67.5132 109.315C67.5132 107.865 66.3359 106.687 64.8855 106.687ZM64.7755 111.315C63.6715 111.254 62.8241 110.313 62.8852 109.209C62.9463 108.105 63.8874 107.258 64.9914 107.319C66.0955 107.38 66.9429 108.321 66.8818 109.425C66.8207 110.529 65.8796 111.376 64.7755 111.315Z" fill="white"/>
<path d="M66.229 113.087C66.1272 113.087 66.0335 113.022 65.9968 112.92C65.952 112.794 66.0212 112.656 66.1516 112.611C66.2738 112.57 66.3879 112.517 66.4938 112.46C66.7627 112.305 67.0112 112.134 67.2312 111.947C67.3331 111.861 67.4879 111.873 67.5734 111.975C67.659 112.077 67.6467 112.232 67.5449 112.317C67.3045 112.521 67.0316 112.709 66.7383 112.876C66.6079 112.953 66.4612 113.014 66.3105 113.067C66.286 113.075 66.2575 113.079 66.2331 113.079L66.229 113.087Z" fill="white"/>
<path d="M68.2713 111.356C68.2305 111.356 68.1857 111.344 68.149 111.323C68.035 111.254 67.9942 111.107 68.0635 110.989C68.2794 110.623 68.4098 110.223 68.4505 109.804C68.4627 109.669 68.5809 109.572 68.7153 109.584C68.8498 109.596 68.9475 109.714 68.9353 109.849C68.8864 110.337 68.7357 110.802 68.4872 111.234C68.4424 111.311 68.3609 111.356 68.2753 111.356H68.2713Z" fill="white"/>
<path d="M61.4709 110.855C61.3772 110.855 61.2875 110.802 61.2468 110.708C61.1327 110.448 60.9372 109.922 60.9086 109.307C60.9005 109.172 61.0064 109.058 61.1409 109.05C61.2753 109.046 61.3894 109.148 61.3975 109.282C61.422 109.82 61.5971 110.285 61.6949 110.513C61.7479 110.635 61.6949 110.778 61.5686 110.835C61.536 110.847 61.5034 110.855 61.4709 110.855Z" fill="white"/>
<path d="M68.5587 108.72C68.4528 108.72 68.355 108.651 68.3224 108.541C68.2084 108.125 68.0291 107.734 67.7847 107.384C67.7073 107.274 67.7358 107.123 67.8458 107.046C67.9558 106.968 68.1065 106.997 68.1839 107.107C68.4569 107.502 68.6606 107.942 68.7869 108.411C68.8235 108.541 68.7461 108.675 68.6158 108.708C68.5954 108.712 68.5709 108.716 68.5506 108.716L68.5587 108.72Z" fill="white"/>
<path d="M61.3819 108.207C61.3534 108.207 61.3208 108.203 61.2923 108.191C61.166 108.142 61.1049 107.999 61.1538 107.877C61.3249 107.437 61.5856 107.013 61.9034 106.651C61.993 106.549 62.1438 106.541 62.2456 106.626C62.3475 106.716 62.3556 106.867 62.2701 106.968C61.989 107.29 61.7567 107.665 61.606 108.052C61.5693 108.15 61.4756 108.207 61.3779 108.207H61.3819Z" fill="white"/>
<path d="M67.0323 106.537C66.9834 106.537 66.9345 106.524 66.8938 106.492C66.5312 106.243 66.1442 106.06 65.7408 105.946C65.6105 105.909 65.5371 105.775 65.5697 105.649C65.6023 105.522 65.7408 105.445 65.8671 105.477C66.3234 105.604 66.7593 105.811 67.1667 106.089C67.2767 106.166 67.3052 106.317 67.2278 106.427C67.1789 106.496 67.1056 106.533 67.0282 106.533L67.0323 106.537Z" fill="white"/>
<path d="M63.1574 106.219C63.0677 106.219 62.9822 106.17 62.9414 106.084C62.8803 105.966 62.9292 105.82 63.0474 105.759C63.4874 105.539 63.9518 105.4 64.4325 105.351C64.567 105.339 64.6851 105.437 64.6973 105.571C64.7096 105.706 64.6118 105.824 64.4773 105.836C64.0577 105.877 63.6503 105.995 63.2633 106.19C63.2266 106.207 63.19 106.215 63.1533 106.215L63.1574 106.219Z" fill="white"/>
<path d="M64.8843 103.514C61.678 103.514 59.0789 106.113 59.0789 109.319C59.0789 110.264 59.2072 111.043 59.6105 111.833H60.7216C60.2409 111.067 59.9629 110.285 59.9629 109.319C59.9629 106.602 62.1669 104.398 64.8843 104.398C67.6016 104.398 69.8056 106.602 69.8056 109.319C69.8056 111.755 68.0334 113.776 65.7113 114.171C65.7031 114.171 65.6991 114.175 65.6909 114.175C65.6013 114.187 65.5157 114.2 65.4342 114.208C65.3894 114.212 65.3446 114.216 65.2957 114.22C65.2754 114.22 65.255 114.22 65.2346 114.224C65.1817 114.224 65.1328 114.232 65.0798 114.232C64.9046 114.24 64.7946 114.236 64.7946 114.236H61.8003C62.6925 114.799 63.7517 115.124 64.8843 115.124C68.0905 115.124 70.6897 112.525 70.6897 109.319C70.6897 106.113 68.0905 103.514 64.8843 103.514Z" fill="white"/>
<path d="M73.2152 108.582C73.203 108.436 73.1052 108.309 72.9708 108.257L72.9382 108.244C72.6693 108.134 72.6082 107.784 72.8201 107.588L72.8486 107.564C72.9586 107.466 73.0034 107.315 72.9667 107.173C72.8404 106.704 72.6734 106.252 72.4697 105.824C72.4167 105.71 72.3067 105.629 72.1804 105.608L72.0297 105.58C71.773 105.535 71.6305 105.258 71.7405 105.022L71.773 104.957C71.8342 104.83 71.8219 104.68 71.7445 104.565C71.4553 104.154 71.1334 103.771 70.779 103.421C70.6894 103.331 70.559 103.294 70.4327 103.315L70.3105 103.335C70.0457 103.384 69.8135 103.156 69.8501 102.887C69.8705 102.736 69.8053 102.59 69.6831 102.504C69.292 102.227 68.8765 101.987 68.4405 101.779C68.3224 101.722 68.1839 101.73 68.0739 101.799L67.9598 101.869C67.7235 102.007 67.418 101.869 67.3691 101.6V101.591C67.3406 101.441 67.2306 101.319 67.0798 101.278C66.6032 101.147 66.1102 101.054 65.6051 101.009C65.4747 100.997 65.3443 101.054 65.2628 101.16L65.218 101.217C65.0591 101.42 64.7455 101.42 64.5906 101.209L64.554 101.16C64.4725 101.05 64.3421 100.993 64.2036 101.001C63.9429 101.021 63.6821 101.05 63.4214 101.094C63.1607 101.143 62.904 101.204 62.6555 101.274C62.5251 101.31 62.4192 101.412 62.3825 101.543L62.3663 101.6C62.2929 101.848 61.9996 101.962 61.7796 101.824L61.7185 101.787C61.6044 101.718 61.4659 101.706 61.3437 101.763C60.8874 101.979 60.4556 102.231 60.0522 102.52C59.9259 102.61 59.8648 102.761 59.8893 102.911V102.92C59.9382 103.193 59.7019 103.429 59.4289 103.376L59.2986 103.351C59.1723 103.327 59.0378 103.368 58.9482 103.461C58.6101 103.804 58.3045 104.174 58.0315 104.57C57.946 104.692 57.9338 104.855 58.0071 104.989C58.1375 105.225 57.9949 105.519 57.7301 105.568L57.6079 105.588C57.4816 105.608 57.3756 105.69 57.3227 105.804C57.2249 106.008 57.1393 106.215 57.0619 106.427C57.0416 106.48 57.0212 106.533 57.0049 106.586C56.9927 106.627 56.9764 106.664 56.9642 106.704C56.9031 106.896 56.846 107.087 56.8012 107.283C56.7931 107.397 56.8379 107.507 56.9194 107.588L56.9723 107.637C57.1597 107.821 57.119 108.13 56.8949 108.261L56.7605 108.338C56.6831 108.383 56.622 108.452 56.5894 108.534C56.5405 109.088 56.5445 109.654 56.6057 110.224C56.6505 110.302 56.7197 110.367 56.8053 110.403L56.8379 110.416C57.1068 110.526 57.1679 110.876 56.956 111.072L56.9275 111.096C56.8623 111.157 56.8175 111.239 56.8012 111.324C56.8542 111.536 56.8748 111.626 56.94 111.833H60.167C59.8778 111.32 59.7263 110.872 59.6163 110.261C59.0989 107.352 61.0422 104.574 63.951 104.06C66.8598 103.543 69.6383 105.486 70.1516 108.395C70.669 111.304 68.7257 114.082 65.8169 114.596C64.7495 114.787 63.5918 114.733 62.667 114.333H58.2226C58.5037 114.712 58.7526 114.983 59.0908 115.313C59.1682 115.353 59.2578 115.37 59.3434 115.353L59.4656 115.333C59.7304 115.284 59.9626 115.512 59.9259 115.781C59.9096 115.899 59.9463 116.013 60.0237 116.099C60.4596 116.413 60.9241 116.686 61.4089 116.914C61.5066 116.938 61.6126 116.922 61.7022 116.869L61.8163 116.8C62.0526 116.661 62.3581 116.8 62.407 117.069V117.077C62.4314 117.219 62.5333 117.333 62.6718 117.382C62.9285 117.456 63.1892 117.517 63.4581 117.561C63.4988 117.57 63.5396 117.574 63.5803 117.582C63.6658 117.594 63.7473 117.61 63.8329 117.618C63.9021 117.627 63.9714 117.635 64.0407 117.643C64.0895 117.647 64.1384 117.655 64.1873 117.659C64.3136 117.663 64.4318 117.606 64.5092 117.508L64.554 117.451C64.7129 117.248 65.0266 117.248 65.1814 117.46L65.218 117.508C65.2995 117.618 65.4299 117.676 65.5684 117.667C65.768 117.651 65.9676 117.627 66.1713 117.598C66.2365 117.59 66.3017 117.578 66.3669 117.57C66.6235 117.521 66.8721 117.464 67.1165 117.394C67.2469 117.358 67.3528 117.256 67.3895 117.126L67.4058 117.069C67.4791 116.82 67.7724 116.706 67.9924 116.844L68.0535 116.881C68.1676 116.95 68.3061 116.963 68.4283 116.906C68.8846 116.69 69.3164 116.437 69.7198 116.148C69.8461 116.058 69.9072 115.907 69.8827 115.757V115.749C69.8338 115.476 70.0701 115.239 70.3431 115.292L70.4735 115.317C70.5997 115.341 70.7342 115.3 70.8238 115.207C71.162 114.864 71.4675 114.494 71.7405 114.099C71.826 113.976 71.8382 113.813 71.7649 113.679C71.6345 113.443 71.7771 113.149 72.0419 113.1L72.1641 113.08C72.2904 113.06 72.3964 112.978 72.4493 112.864C72.6612 112.412 72.8323 111.943 72.9626 111.455C72.9993 111.32 72.9545 111.173 72.8567 111.076L72.8038 111.027C72.6164 110.843 72.6571 110.534 72.8812 110.403L73.0156 110.326C73.1256 110.261 73.1989 110.151 73.2112 110.021C73.2519 109.548 73.2519 109.067 73.2112 108.586L73.2152 108.582Z" fill="white"/>
<path d="M64.6932 113.324H63.524C63.3895 113.324 63.2795 113.214 63.2795 113.079C63.2795 112.945 63.3895 112.835 63.524 112.835H64.6932C64.7543 112.835 64.8195 112.835 64.8806 112.835C65.0151 112.835 65.121 112.941 65.125 113.075C65.125 113.21 65.0191 113.32 64.8847 113.32C64.8195 113.32 64.7543 113.32 64.6932 113.32V113.324Z" fill="white"/>
<path d="M62.1591 113.332H60.7984C60.664 113.332 60.554 113.222 60.554 113.087C60.554 112.953 60.664 112.843 60.7984 112.843H62.1591C62.2935 112.843 62.4035 112.953 62.4035 113.087C62.4035 113.222 62.2935 113.332 62.1591 113.332Z" fill="white"/>
<path d="M59.4379 113.324H58.0772C57.9428 113.324 57.8328 113.214 57.8328 113.079C57.8328 112.945 57.9428 112.835 58.0772 112.835H59.4379C59.5723 112.835 59.6823 112.945 59.6823 113.079C59.6823 113.214 59.5723 113.324 59.4379 113.324Z" fill="white"/>
<path d="M64.9054 111.689H57.0711C56.5415 111.689 56.1749 112.217 56.3541 112.723L56.7982 113.981C56.9082 114.289 57.1933 114.494 57.5152 114.494H64.9054" stroke="white" stroke-width="0.499998" stroke-miterlimit="10"/>
</g>
<g clip-path="url(#clip1_551_4591)">
<path d="M78.8319 107.97V113.334H76.6685V107.181C76.6685 107.034 76.7038 106.892 76.7744 106.75C76.845 106.608 76.9357 106.481 77.0517 106.373C77.1677 106.265 77.2988 106.172 77.4401 106.103C77.5863 106.035 77.7275 106 77.8687 106H84.0516C84.1928 106 84.334 106.035 84.4802 106.103C84.6265 106.172 84.7576 106.26 84.8685 106.373C84.9845 106.485 85.0753 106.613 85.1459 106.75C85.2165 106.892 85.2518 107.034 85.2518 107.181V113.334H83.0883V107.97H78.8319Z" fill="white"/>
<path d="M94.8388 106.103C94.9851 106.172 95.1162 106.26 95.2271 106.373C95.3431 106.485 95.4339 106.613 95.5045 106.75C95.5751 106.892 95.6104 107.034 95.6104 107.181V112.153C95.6104 112.3 95.5751 112.442 95.5045 112.584C95.4339 112.726 95.3431 112.854 95.2271 112.961C95.1111 113.069 94.98 113.162 94.8388 113.231C94.6926 113.3 94.5514 113.334 94.4102 113.334H87.4608C87.3195 113.334 87.1783 113.3 87.0321 113.231C86.8858 113.162 86.7547 113.074 86.6438 112.961C86.5278 112.849 86.437 112.721 86.3664 112.584C86.2958 112.442 86.2605 112.3 86.2605 112.153V107.181C86.2605 107.034 86.2958 106.892 86.3664 106.75C86.437 106.608 86.5278 106.481 86.6438 106.373C86.7598 106.265 86.8909 106.172 87.0321 106.103C87.1783 106.035 87.3195 106 87.4608 106H94.4102C94.5514 106 94.6926 106.035 94.8388 106.103ZM88.424 107.97V111.369H93.452V107.97H88.424Z" fill="white"/>
<path d="M98.7375 107.97V113.334H96.574V107.181C96.574 107.034 96.6093 106.892 96.6799 106.75C96.7505 106.608 96.8413 106.481 96.9572 106.373C97.0732 106.265 97.2044 106.172 97.3456 106.103C97.4918 106.035 97.633 106 97.7742 106H103.957C104.098 106 104.239 106.035 104.386 106.103C104.532 106.172 104.663 106.26 104.774 106.373C104.89 106.485 104.981 106.613 105.051 106.75C105.122 106.892 105.157 107.034 105.157 107.181V113.334H102.994V107.97H98.7324H98.7375Z" fill="white"/>
<path d="M113.1 108.773V106H115.264V112.153C115.264 112.3 115.228 112.442 115.158 112.584C115.087 112.726 114.996 112.854 114.88 112.961C114.765 113.074 114.633 113.162 114.492 113.231C114.346 113.3 114.205 113.334 114.064 113.334H106.166V111.365H113.1V110.561H107.366C107.225 110.561 107.084 110.527 106.938 110.458C106.791 110.39 106.66 110.302 106.549 110.189C106.433 110.076 106.343 109.949 106.272 109.812C106.201 109.67 106.166 109.528 106.166 109.381V106H108.33V108.773H113.105H113.1Z" fill="white"/>
<path d="M116.222 106H125.29V107.97H121.835V113.334H119.672V107.97H116.217V106H116.222Z" fill="white"/>
<path d="M133.187 108.773V106H135.35V113.334H133.187V110.561H127.453C127.311 110.561 127.17 110.527 127.024 110.458C126.878 110.39 126.747 110.302 126.636 110.189C126.52 110.076 126.429 109.949 126.358 109.812C126.288 109.67 126.252 109.528 126.252 109.381V106H128.416V108.773H133.192H133.187Z" fill="white"/>
<path d="M144.024 106H144.427C144.599 106 144.755 106.025 144.906 106.079C145.058 106.133 145.189 106.201 145.295 106.29C145.406 106.378 145.491 106.476 145.557 106.588C145.622 106.701 145.653 106.809 145.653 106.917V113.334H143.489V108.744C142.647 109.532 141.921 110.208 141.306 110.777C140.69 111.345 140.166 111.815 139.727 112.183C139.293 112.55 138.935 112.829 138.663 113.015C138.386 113.202 138.169 113.304 138.012 113.319C138.002 113.329 137.977 113.334 137.937 113.334H137.518C137.357 113.334 137.2 113.309 137.054 113.255C136.903 113.202 136.772 113.133 136.666 113.045C136.555 112.957 136.469 112.859 136.404 112.751C136.338 112.643 136.308 112.53 136.308 112.418V106H138.471V110.581C139.344 109.782 140.085 109.101 140.7 108.533C141.316 107.965 141.835 107.499 142.254 107.132C142.672 106.77 143.015 106.495 143.282 106.314C143.55 106.133 143.767 106.035 143.933 106.015C143.943 106.005 143.973 106 144.024 106Z" fill="white"/>
<path d="M148.779 108.773H150.822L153.313 106H156.001L152.728 109.674L156.001 113.334H153.313L150.822 110.561H148.779V113.334H146.616V106H148.779V108.773Z" fill="white"/>
</g>
<path d="M186 110H193" stroke="black" stroke-width="0.2424" stroke-miterlimit="10"/>
<path d="M186 111H193" stroke="black" stroke-width="0.2424" stroke-miterlimit="10"/>
<path d="M186 112H193" stroke="black" stroke-width="0.2424" stroke-miterlimit="10"/>
<path d="M186 113H193" stroke="black" stroke-width="0.2424" stroke-miterlimit="10"/>
<path d="M204.2 103.5H194.4V105.3H204.2V103.5Z" fill="#3A383A" stroke="black" stroke-width="0.2022" stroke-miterlimit="10"/>
<path d="M33 120V125" stroke="black" stroke-width="0.2424" stroke-miterlimit="10"/>
<path d="M47 120V125" stroke="black" stroke-width="0.2424" stroke-miterlimit="10"/>
<path d="M59 120V125" stroke="black" stroke-width="0.2424" stroke-miterlimit="10"/>
<path d="M73 120V125" stroke="black" stroke-width="0.2424" stroke-miterlimit="10"/>
<path d="M85 120V125" stroke="black" stroke-width="0.2424" stroke-miterlimit="10"/>
<path d="M99 120V125" stroke="black" stroke-width="0.2424" stroke-miterlimit="10"/>
<path d="M112 120V125" stroke="black" stroke-width="0.2424" stroke-miterlimit="10"/>
<path d="M127 120V125" stroke="black" stroke-width="0.2424" stroke-miterlimit="10"/>
<path d="M139 120V125" stroke="black" stroke-width="0.2424" stroke-miterlimit="10"/>
<path d="M152 120V125" stroke="black" stroke-width="0.2424" stroke-miterlimit="10"/>
<path d="M164 120V125" stroke="black" stroke-width="0.2424" stroke-miterlimit="10"/>
<path d="M178 120V125" stroke="black" stroke-width="0.2424" stroke-miterlimit="10"/>
<path d="M11.0007 144H225.001" stroke="#D80034" stroke-width="1.1778" stroke-miterlimit="10" stroke-linecap="round" stroke-linejoin="round"/>
<path d="M6.00073 149C8.76216 149 11.0007 146.761 11.0007 144C11.0007 141.239 8.76216 139 6.00073 139C3.23931 139 1.00073 141.239 1.00073 144C1.00073 146.761 3.23931 149 6.00073 149Z" fill="white" stroke="#D80034" stroke-width="1.7534" stroke-miterlimit="10" stroke-linecap="round" stroke-linejoin="round"/>
<path d="M230.001 149C232.762 149 235.001 146.761 235.001 144C235.001 141.239 232.762 139 230.001 139C227.239 139 225.001 141.239 225.001 144C225.001 146.761 227.239 149 230.001 149Z" fill="white" stroke="#D80034" stroke-width="1.7534" stroke-miterlimit="10" stroke-linecap="round" stroke-linejoin="round"/>
<path d="M356.4 95.8001L362.7 119.6C363.8 123.6 363.1 127.9 361 131.4L354.7 141.7C354.7 141.7 346.7 148.9 339.8 145.5C332.9 142.1 342 98.1001 342 98.1001C342 98.1001 353.8 90.4001 356.4 95.8001Z" fill="#FBC9B2" stroke="black" stroke-width="0.3572" stroke-miterlimit="10"/>
<path d="M259.7 97.1999L254.7 116.6C253.9 119.6 254.5 122.9 256.3 125.4L268.7 142.9C269.4 143.9 270.2 144.7 271.2 145.4C273.9 147.3 279.5 150.4 284.4 147.9C290 145.1 279.5 114.1 275.6 103.2C274.7 100.6 272.7 98.3999 270.2 97.1999C266.5 95.5999 261.4 93.8999 259.7 97.1999Z" fill="#FBC9B2" stroke="black" stroke-width="0.3572" stroke-miterlimit="10"/>
<path d="M295 72.9L300.7 58L319.6 56.7L324.9 73.5C324.9 73.5 306.2 86.1 305.8 86.1C305.4 86.1 295 72.9 295 72.9Z" fill="#FBC9B2" stroke="black" stroke-width="0.41" stroke-miterlimit="10"/>
<path d="M333 29.4002C332.1 28.6002 331.701 28.7 331.001 29.5C329.901 11.9 321.8 4.40017 316.4 5.40017C309.9 6.50017 291.6 19.5002 291.6 19.5002C291.6 19.5002 290.4 23.0002 290.2 28.2002C289.6 27.7002 288.9 27.6002 288.2 28.3002C285.5 30.6002 287.4 38.6002 291.6 41.3002C292.3 41.7002 292.8 41.8002 293.1 41.6002C294.3 42.6002 294.7 61.9002 310.9 63.0002C326 63.0002 328.2 42.4002 329.5 40.9002C334.2 40.9002 335.5 31.5002 333 29.4002Z" fill="#FBC9B2" stroke="black" stroke-width="0.41" stroke-miterlimit="10"/>
<path d="M290.4 32.1C290.4 32.1 289.6 23.8 295 21.5C300.3 19.2 322.5 12.5 325.1 17.5C327.7 22.5 330.8 29.1 330.8 32.1C330.8 35.1 333.1 22.8 331.6 17.5C330.1 12.2 334.7 8.49996 326.3 4.89996C317.9 1.19996 311.8 3.89996 307.6 1.89996C303.4 -0.100042 303.8 1.19996 304.9 2.89996C306 4.59996 300.3 -1.10004 295 1.89996C289.7 4.89996 297.7 10.5 297.7 10.5L290.5 18.1C290.4 18.1 287.4 28.1 290.4 32.1Z" fill="black"/>
<path d="M331.3 26.3C331.3 26.3 330.6 19.8 327.2 15.6C323.8 11.4 325 5.20001 314.5 5.60001C311.4 5.70001 305.2 4.90001 302.9 3.00001C300.6 1.10001 293.3 -2.29999 293.7 3.00001C294.1 8.30001 295.2 7.20001 295.2 7.20001C295.2 7.20001 282.5 18.4 290.1 26.6C297.3 34.4 311.6 19.3 318.9 21.6C326.1 24 331.3 26.3 331.3 26.3Z" fill="black"/>
<path d="M307.6 43.3999C307.6 43.3999 307.2 46.0999 311.8 45.6999L307.6 43.3999Z" fill="#FBC9B2"/>
<path d="M307.6 43.3999C307.6 43.3999 307.2 46.0999 311.8 45.6999" stroke="#D38C73" stroke-width="1.24" stroke-miterlimit="10" stroke-linecap="round" stroke-linejoin="round"/>
<path d="M296.7 32.4999C296.7 32.4999 304.6 31.4999 305.9 33.1999L296.7 32.4999Z" fill="#FBC9B2"/>
<path d="M296.7 32.4999C296.7 32.4999 304.6 31.4999 305.9 33.1999" stroke="#2C2F2F" stroke-width="0.83" stroke-miterlimit="10" stroke-linecap="round" stroke-linejoin="round"/>
<path d="M324.6 32.6001C324.6 32.6001 318.1 31.0001 315.4 33.0001L324.6 32.6001Z" fill="#FBC9B2"/>
<path d="M324.6 32.6001C324.6 32.6001 318.1 31.0001 315.4 33.0001" stroke="#2C2F2F" stroke-width="0.83" stroke-miterlimit="10" stroke-linecap="round" stroke-linejoin="round"/>
<path d="M303 50C303 50 309.2 53.9 318.8 50C318.8 50 317.3 53.8 310.7 53.9C304 54.1 303.5 50.7 303 50Z" fill="white" stroke="#D38C73" stroke-width="0.83" stroke-miterlimit="10" stroke-linecap="round" stroke-linejoin="round"/>
<path d="M289.7 32.3999C289.7 32.3999 288.6 34.2999 290.1 36.5999" stroke="#D38C73" stroke-width="1.5262" stroke-miterlimit="10" stroke-linecap="round" stroke-linejoin="round"/>
<path d="M331.2 32.3999C331.2 32.3999 332.3 34.2999 330.8 36.5999" stroke="#D38C73" stroke-width="1.5262" stroke-miterlimit="10" stroke-linecap="round" stroke-linejoin="round"/>
<path d="M296.9 67.1001C296.9 67.1001 283.8 69.4001 275.8 74.3001C267.8 79.2001 258.002 97.3001 258.002 97.3001C258.002 97.3001 269.1 104.5 268.7 107.9C268.3 111.3 269.6 112.6 273.8 112.6C278 112.6 274.2 112.5 274.2 112.5L276.7 145.2C276.7 145.2 330.3 156.8 342.3 144.8L344.2 115.8C344.2 115.8 344.2 116.9 345.3 116.6C346.4 116.2 358.602 100.8 357.002 97C355.402 93.2 353.6 71.6001 323.1 67.8001C323.1 67.8001 320.4 78.2001 309.3 78.2001C298.2 78.2001 296.9 67.1001 296.9 67.1001Z" fill="#D80034" stroke="black" stroke-width="0.41" stroke-miterlimit="10"/>
<path d="M303 41.1C303.828 41.1 304.5 40.0255 304.5 38.7C304.5 37.3746 303.828 36.3 303 36.3C302.172 36.3 301.5 37.3746 301.5 38.7C301.5 40.0255 302.172 41.1 303 41.1Z" fill="black"/>
<path d="M318.7 40.9001C319.528 40.9001 320.2 39.8256 320.2 38.5001C320.2 37.1746 319.528 36.1001 318.7 36.1001C317.872 36.1001 317.2 37.1746 317.2 38.5001C317.2 39.8256 317.872 40.9001 318.7 40.9001Z" fill="black"/>
<path d="M279.7 103.1L274.8 115.4L273.2 117.9" stroke="black" stroke-width="0.2765" stroke-miterlimit="10" stroke-linecap="round" stroke-linejoin="round"/>
<path d="M336.3 102.9L340.2 115.5L341.5 118.2" stroke="black" stroke-width="0.2765" stroke-miterlimit="10" stroke-linecap="round" stroke-linejoin="round"/>
<path d="M255.504 101.779L255.504 101.779L255.504 101.776C255.218 99.3007 257.22 97.1049 259.7 97.1049H356C358.573 97.1049 360.482 99.2934 360.197 101.875C360.197 101.876 360.196 101.877 360.196 101.877L354.297 148.772C354.297 148.773 354.297 148.773 354.297 148.774C354.009 150.875 352.194 152.495 350.1 152.495H264.5C262.413 152.495 260.593 150.782 260.304 148.676L255.504 101.779Z" fill="#9CA0A1" stroke="black" stroke-width="0.41"/>
<defs>
<clipPath id="clip0_551_4591">
<rect width="17.2492" height="16.6666" fill="white" transform="translate(56 101)"/>
</clipPath>
<clipPath id="clip1_551_4591">
<rect width="79.333" height="7.33331" fill="white" transform="translate(76.6665 106)"/>
</clipPath>
</defs>
</svg>
