<svg width="516" height="377" viewBox="0 0 516 377" fill="none" xmlns="http://www.w3.org/2000/svg">
<mask id="mask0_551_4486" style="mask-type:luminance" maskUnits="userSpaceOnUse" x="0" y="41" width="516" height="336">
<path d="M515.997 41.4829H0V377H515.997V41.4829Z" fill="white"/>
</mask>
<g mask="url(#mask0_551_4486)">
<path d="M521.029 311.321C521.029 311.321 515.28 330.312 500.763 312.903C486.246 295.494 470.291 281.251 457.212 295.494C444.132 309.738 459.08 320.342 455.343 332.37C451.463 344.556 427.316 345.031 426.31 345.505C425.303 345.98 430.621 369.72 409.924 364.972C389.083 360.224 390.664 345.98 376.147 345.98C361.63 345.98 337.771 319.709 336.621 343.132C335.471 366.554 341.795 369.403 324.835 365.605C307.874 361.806 318.079 352.311 300.688 360.224C283.296 368.137 280.422 369.72 268.779 360.224C257.137 350.728 269.786 370.827 250.382 349.62C231.122 328.571 249.951 334.902 226.666 325.406C203.381 315.91 220.917 319.076 196.195 314.328C171.473 309.58 159.974 301.667 167.161 312.745C174.348 323.823 172.91 320.658 165.724 342.815C158.537 364.972 149.769 333.319 142.583 331.737C135.396 330.154 130.941 325.406 126.629 311.162C122.317 296.919 122.317 289.006 114.986 292.171C107.656 295.336 114.986 295.336 109.237 301.667C103.488 307.997 94.7201 303.249 94.7201 303.249C94.7201 303.249 97.5947 312.745 94.7201 322.241C91.8455 331.737 103.488 330.154 91.8455 339.65C80.2032 349.145 83.0778 361.806 71.5793 371.302C60.0807 380.798 70.1419 333.319 59.937 330.154C49.732 326.989 51.1693 323.823 39.6708 314.328C28.1722 304.832 13.5116 301.667 25.1539 289.006C36.7961 276.345 20.8419 282.675 43.9827 271.597C67.1236 260.518 54.1877 270.014 49.732 241.527C45.2763 213.039 62.8116 224.118 72.8728 190.883C82.9341 157.647 83.0778 151.317 96.0137 151.317C108.95 151.317 114.843 141.821 117.717 133.908C120.592 125.995 139.421 86.4292 159.831 110.169C180.241 133.908 175.785 118.082 182.971 141.821C190.158 165.561 164.143 159.23 194.614 168.726C225.085 178.222 225.085 151.317 233.709 154.482C242.333 157.647 236.583 141.821 246.788 171.891C256.993 201.961 278.697 156.065 275.822 152.9C272.948 149.734 297.526 162.395 298.963 159.23C300.4 156.065 287.321 125.995 309.168 122.83C330.872 119.664 342.514 130.743 341.077 119.664C339.639 108.586 402.019 116.499 397.563 127.578C393.107 138.656 419.267 133.908 422.141 122.83C425.016 111.751 425.016 91.1771 439.533 95.925C454.05 100.673 470.004 83.264 472.879 75.3508C475.753 67.4377 485.958 53.1941 493.145 62.6898C500.331 72.1856 503.35 83.264 503.35 83.264L520.741 105.421V311.321H521.029Z" fill="#D80034" stroke="black" stroke-width="0.3562" stroke-miterlimit="10"/>
<path d="M265.186 138.814C265.186 138.814 236.439 122.988 255.124 107.162C273.81 91.3353 279.559 75.509 293.932 83.4222C308.305 91.3353 297.525 101.622 284.589 104.788C271.654 107.953 269.498 119.823 270.935 126.153C272.372 132.484 265.186 138.814 265.186 138.814Z" fill="#D80034" stroke="black" stroke-width="0.3562" stroke-miterlimit="10"/>
<path d="M416.106 76.1424C416.106 76.1424 429.042 74.085 426.167 84.2138C423.149 94.3426 424.586 101.148 418.118 102.098C411.65 103.047 406.476 96.0835 410.213 91.6522C413.95 87.2208 418.693 83.5808 416.968 81.8399C415.1 80.099 416.106 76.1424 416.106 76.1424Z" fill="#D80034" stroke="black" stroke-width="0.3562" stroke-miterlimit="10"/>
<path d="M337.052 103.996C337.052 103.996 365.798 91.3354 355.737 81.8396C345.676 72.3438 352.863 73.9265 347.113 72.3438C341.364 70.7612 329.866 81.8396 332.74 88.1701C335.615 94.5006 331.303 103.996 337.052 103.996Z" fill="#D80034" stroke="black" stroke-width="0.3562" stroke-miterlimit="10"/>
</g>
<mask id="mask1_551_4486" style="mask-type:luminance" maskUnits="userSpaceOnUse" x="22" y="0" width="495" height="361">
<mask id="mask2_551_4486" style="mask-type:luminance" maskUnits="userSpaceOnUse" x="21" y="0" width="496" height="376">
<path d="M516 0H21.5625V375.083H516V0Z" fill="white"/>
</mask>
<g mask="url(#mask2_551_4486)">
<path d="M516.718 -15.0349H22.2803V360.048H516.718V-15.0349Z" fill="white"/>
</g>
</mask>
<g mask="url(#mask1_551_4486)">
<path d="M450.313 211.756L431.628 309.72L321.961 344.38L294.077 334.726L273.523 347.387L283.584 288.671L252.251 232.963L184.266 271.421V302.124L222.498 311.778L287.034 288.671" stroke="white" stroke-width="0.6063" stroke-miterlimit="10" stroke-linecap="round" stroke-linejoin="round" stroke-dasharray="2.43 2.43"/>
<path d="M511.83 162.061L452.613 211.914" stroke="white" stroke-width="0.6063" stroke-miterlimit="10" stroke-linecap="round" stroke-linejoin="round" stroke-dasharray="2.43 2.43"/>
<path d="M541.439 261.767L527.497 248.314L508.381 259.868V288.671L527.497 279.017V340.423" stroke="white" stroke-width="0.6063" stroke-miterlimit="10" stroke-linecap="round" stroke-linejoin="round" stroke-dasharray="2.43 2.43"/>
<path d="M440.971 265.723L508.381 288.671" stroke="white" stroke-width="0.6063" stroke-miterlimit="10" stroke-linecap="round" stroke-linejoin="round" stroke-dasharray="2.43 2.43"/>
<path d="M78.7667 314.626L75.3171 276.169L91.8463 217.611" stroke="white" stroke-width="0.6063" stroke-miterlimit="10" stroke-linecap="round" stroke-linejoin="round" stroke-dasharray="2.43 2.43"/>
<path d="M98.7444 171.557L156.381 215.712L170.323 246.415L184.265 265.723L219.192 311.303L243.482 336.625L271.366 350.077" stroke="white" stroke-width="0.6063" stroke-miterlimit="10" stroke-linecap="round" stroke-linejoin="round" stroke-dasharray="2.43 2.43"/>
<path d="M142.44 238.819L147.614 273.32L170.324 248.314" stroke="white" stroke-width="0.6063" stroke-miterlimit="10" stroke-linecap="round" stroke-linejoin="round" stroke-dasharray="2.43 2.43"/>
<path d="M182.398 304.023L144.453 272.687" stroke="white" stroke-width="0.6063" stroke-miterlimit="10" stroke-linecap="round" stroke-linejoin="round" stroke-dasharray="2.43 2.43"/>
<path d="M145.027 136.106L98.7453 173.614L135.397 183.11L165.868 191.814L155.519 214.763L139.709 237.869L110.1 243.566L75.317 276.169L45.7083 299.275" stroke="white" stroke-width="0.6063" stroke-miterlimit="10" stroke-linecap="round" stroke-linejoin="round" stroke-dasharray="2.43 2.43"/>
<path d="M75.6047 279.017L110.963 286.772L145.89 271.421L182.398 273.32" stroke="white" stroke-width="0.6063" stroke-miterlimit="10" stroke-linecap="round" stroke-linejoin="round" stroke-dasharray="2.43 2.43"/>
<path d="M94.0024 216.029L110.963 246.415L147.614 275.219" stroke="white" stroke-width="0.6063" stroke-miterlimit="10" stroke-linecap="round" stroke-linejoin="round" stroke-dasharray="2.43 2.43"/>
<path d="M110.963 286.772L109.238 242.617" stroke="white" stroke-width="0.6063" stroke-miterlimit="10" stroke-linecap="round" stroke-linejoin="round" stroke-dasharray="2.43 2.43"/>
<path d="M91.8459 215.712H156.382" stroke="white" stroke-width="0.6063" stroke-miterlimit="10" stroke-linecap="round" stroke-linejoin="round" stroke-dasharray="2.43 2.43"/>
<path d="M138.847 236.919L170.324 246.415" stroke="white" stroke-width="0.6063" stroke-miterlimit="10" stroke-linecap="round" stroke-linejoin="round" stroke-dasharray="2.43 2.43"/>
<path d="M252.251 232.963L222.499 309.721" stroke="white" stroke-width="0.6063" stroke-miterlimit="10" stroke-linecap="round" stroke-linejoin="round" stroke-dasharray="2.43 2.43"/>
</g>
<mask id="mask3_551_4486" style="mask-type:luminance" maskUnits="userSpaceOnUse" x="22" y="0" width="495" height="361">
<mask id="mask4_551_4486" style="mask-type:luminance" maskUnits="userSpaceOnUse" x="21" y="0" width="496" height="376">
<path d="M516 0H21.5625V375.083H516V0Z" fill="white"/>
</mask>
<g mask="url(#mask4_551_4486)">
<path d="M516.718 -15.0349H22.2803V360.048H516.718V-15.0349Z" fill="white"/>
</g>
</mask>
<g mask="url(#mask3_551_4486)">
<path d="M448.875 215.87C451.018 215.87 452.756 213.957 452.756 211.597C452.756 209.237 451.018 207.324 448.875 207.324C446.732 207.324 444.994 209.237 444.994 211.597C444.994 213.957 446.732 215.87 448.875 215.87Z" fill="white" stroke="white" stroke-width="1.2126" stroke-miterlimit="10"/>
<path d="M511.686 165.859C513.829 165.859 515.567 163.946 515.567 161.586C515.567 159.226 513.829 157.313 511.686 157.313C509.543 157.313 507.805 159.226 507.805 161.586C507.805 163.946 509.543 165.859 511.686 165.859Z" fill="white" stroke="white" stroke-width="1.2126" stroke-miterlimit="10"/>
<path d="M508.094 292.628C510.237 292.628 511.975 290.715 511.975 288.355C511.975 285.995 510.237 284.082 508.094 284.082C505.951 284.082 504.213 285.995 504.213 288.355C504.213 290.715 505.951 292.628 508.094 292.628Z" fill="white" stroke="white" stroke-width="1.2126" stroke-miterlimit="10"/>
<path d="M431.053 314.152C433.196 314.152 434.934 312.239 434.934 309.879C434.934 307.519 433.196 305.605 431.053 305.605C428.91 305.605 427.172 307.519 427.172 309.879C427.172 312.239 428.91 314.152 431.053 314.152Z" fill="white" stroke="white" stroke-width="1.2126" stroke-miterlimit="10"/>
<path d="M323.542 347.862C325.685 347.862 327.423 345.949 327.423 343.589C327.423 341.229 325.685 339.315 323.542 339.315C321.399 339.315 319.661 341.229 319.661 343.589C319.661 345.949 321.399 347.862 323.542 347.862Z" fill="white" stroke="white" stroke-width="1.2126" stroke-miterlimit="10"/>
<path d="M294.509 339.632C296.652 339.632 298.389 337.719 298.389 335.359C298.389 332.999 296.652 331.086 294.509 331.086C292.365 331.086 290.628 332.999 290.628 335.359C290.628 337.719 292.365 339.632 294.509 339.632Z" fill="white" stroke="white" stroke-width="1.2126" stroke-miterlimit="10"/>
<path d="M183.404 307.03C185.547 307.03 187.284 305.116 187.284 302.756C187.284 300.396 185.547 298.483 183.404 298.483C181.26 298.483 179.523 300.396 179.523 302.756C179.523 305.116 181.26 307.03 183.404 307.03Z" fill="white" stroke="white" stroke-width="1.2126" stroke-miterlimit="10"/>
<path d="M184.985 275.061C187.128 275.061 188.865 273.147 188.865 270.788C188.865 268.428 187.128 266.514 184.985 266.514C182.841 266.514 181.104 268.428 181.104 270.788C181.104 273.147 182.841 275.061 184.985 275.061Z" fill="white" stroke="white" stroke-width="1.2126" stroke-miterlimit="10"/>
<path d="M140.428 241.826C142.571 241.826 144.309 239.912 144.309 237.552C144.309 235.192 142.571 233.279 140.428 233.279C138.285 233.279 136.547 235.192 136.547 237.552C136.547 239.912 138.285 241.826 140.428 241.826Z" fill="white" stroke="white" stroke-width="1.2126" stroke-miterlimit="10"/>
<path d="M110.244 291.678C112.387 291.678 114.125 289.765 114.125 287.405C114.125 285.045 112.387 283.132 110.244 283.132C108.101 283.132 106.363 285.045 106.363 287.405C106.363 289.765 108.101 291.678 110.244 291.678Z" fill="white" stroke="white" stroke-width="1.2126" stroke-miterlimit="10"/>
<path d="M110.244 248.631C112.387 248.631 114.125 246.718 114.125 244.358C114.125 241.998 112.387 240.085 110.244 240.085C108.101 240.085 106.363 241.998 106.363 244.358C106.363 246.718 108.101 248.631 110.244 248.631Z" fill="white" stroke="white" stroke-width="1.2126" stroke-miterlimit="10"/>
<path d="M145.889 276.96C148.033 276.96 149.77 275.047 149.77 272.687C149.77 270.327 148.033 268.414 145.889 268.414C143.746 268.414 142.009 270.327 142.009 272.687C142.009 275.047 143.746 276.96 145.889 276.96Z" fill="white" stroke="white" stroke-width="1.2126" stroke-miterlimit="10"/>
<path d="M79.4852 318.108C81.6285 318.108 83.366 316.195 83.366 313.835C83.366 311.475 81.6285 309.562 79.4852 309.562C77.342 309.562 75.6045 311.475 75.6045 313.835C75.6045 316.195 77.342 318.108 79.4852 318.108Z" fill="white" stroke="white" stroke-width="1.2126" stroke-miterlimit="10"/>
<path d="M283.872 293.577C286.015 293.577 287.752 291.664 287.752 289.304C287.752 286.944 286.015 285.031 283.872 285.031C281.728 285.031 279.991 286.944 279.991 289.304C279.991 291.664 281.728 293.577 283.872 293.577Z" fill="white" stroke="white" stroke-width="1.2126" stroke-miterlimit="10"/>
<path d="M252.683 237.552C254.826 237.552 256.564 235.639 256.564 233.279C256.564 230.919 254.826 229.006 252.683 229.006C250.539 229.006 248.802 230.919 248.802 233.279C248.802 235.639 250.539 237.552 252.683 237.552Z" fill="white" stroke="white" stroke-width="1.2126" stroke-miterlimit="10"/>
<path d="M170.036 251.638C172.179 251.638 173.917 249.725 173.917 247.365C173.917 245.005 172.179 243.092 170.036 243.092C167.893 243.092 166.155 245.005 166.155 247.365C166.155 249.725 167.893 251.638 170.036 251.638Z" fill="white" stroke="white" stroke-width="1.2126" stroke-miterlimit="10"/>
<path d="M155.52 219.036C157.663 219.036 159.401 217.123 159.401 214.763C159.401 212.403 157.663 210.49 155.52 210.49C153.377 210.49 151.639 212.403 151.639 214.763C151.639 217.123 153.377 219.036 155.52 219.036Z" fill="white" stroke="white" stroke-width="1.2126" stroke-miterlimit="10"/>
<path d="M165.724 195.296C167.868 195.296 169.605 193.383 169.605 191.023C169.605 188.663 167.868 186.75 165.724 186.75C163.581 186.75 161.844 188.663 161.844 191.023C161.844 193.383 163.581 195.296 165.724 195.296Z" fill="white" stroke="white" stroke-width="1.2126" stroke-miterlimit="10"/>
<path d="M91.9906 222.517C94.1339 222.517 95.8714 220.604 95.8714 218.244C95.8714 215.884 94.1339 213.971 91.9906 213.971C89.8473 213.971 88.1099 215.884 88.1099 218.244C88.1099 220.604 89.8473 222.517 91.9906 222.517Z" fill="white" stroke="white" stroke-width="1.2126" stroke-miterlimit="10"/>
<path d="M46.4271 302.598C48.5704 302.598 50.3079 300.685 50.3079 298.325C50.3079 295.965 48.5704 294.052 46.4271 294.052C44.2839 294.052 42.5464 295.965 42.5464 298.325C42.5464 300.685 44.2839 302.598 46.4271 302.598Z" fill="white" stroke="white" stroke-width="1.2126" stroke-miterlimit="10"/>
<path d="M144.453 140.854C146.596 140.854 148.334 138.941 148.334 136.581C148.334 134.221 146.596 132.308 144.453 132.308C142.31 132.308 140.572 134.221 140.572 136.581C140.572 138.941 142.31 140.854 144.453 140.854Z" fill="white" stroke="white" stroke-width="1.2126" stroke-miterlimit="10"/>
<path d="M98.3144 177.254C100.458 177.254 102.195 175.341 102.195 172.981C102.195 170.621 100.458 168.708 98.3144 168.708C96.1711 168.708 94.4336 170.621 94.4336 172.981C94.4336 175.341 96.1711 177.254 98.3144 177.254Z" fill="white" stroke="white" stroke-width="1.2126" stroke-miterlimit="10"/>
<path d="M75.1737 281.233C77.317 281.233 79.0545 279.32 79.0545 276.96C79.0545 274.6 77.317 272.687 75.1737 272.687C73.0304 272.687 71.293 274.6 71.293 276.96C71.293 279.32 73.0304 281.233 75.1737 281.233Z" fill="white" stroke="white" stroke-width="1.2126" stroke-miterlimit="10"/>
<path d="M223.074 315.576C225.217 315.576 226.955 313.663 226.955 311.303C226.955 308.943 225.217 307.03 223.074 307.03C220.931 307.03 219.193 308.943 219.193 311.303C219.193 313.663 220.931 315.576 223.074 315.576Z" fill="white" stroke="white" stroke-width="1.2126" stroke-miterlimit="10"/>
<path d="M271.08 354.983C273.223 354.983 274.961 353.07 274.961 350.71C274.961 348.35 273.223 346.437 271.08 346.437C268.936 346.437 267.199 348.35 267.199 350.71C267.199 353.07 268.936 354.983 271.08 354.983Z" fill="white" stroke="white" stroke-width="1.2126" stroke-miterlimit="10"/>
<path d="M242.909 339.632C245.052 339.632 246.79 337.719 246.79 335.359C246.79 332.999 245.052 331.086 242.909 331.086C240.766 331.086 239.028 332.999 239.028 335.359C239.028 337.719 240.766 339.632 242.909 339.632Z" fill="white" stroke="white" stroke-width="1.2126" stroke-miterlimit="10"/>
</g>
</svg>
