<svg width="132" height="151" viewBox="0 0 132 151" fill="none" xmlns="http://www.w3.org/2000/svg">
<path d="M17.1074 110.924L1 166.891C1 166.891 9.05371 172.101 15.094 165.714C22.6444 157.647 33.0471 110.924 33.0471 110.924C33.0471 110.924 20.2953 104.706 17.1074 110.924Z" fill="#FBC9B2" stroke="black" stroke-width="0.414561" stroke-miterlimit="10"/>
<path d="M85.061 25.0425C85.061 25.0425 93.618 35.2946 96.6382 49.4123C97.8127 54.6224 91.4368 61.6813 97.1415 66.5552C114.423 81.009 69.4569 91.4292 67.9468 90.757C66.269 90.2528 43.9535 93.9503 43.9535 93.9503C43.9535 93.9503 -2.35535 73.1099 15.9333 59.6645C20.4635 56.3031 18.9534 48.0678 20.9669 43.8661C28.3494 29.2442 33.383 21.345 33.383 21.345L45.7991 11.9332C51.6716 7.56348 59.222 7.39541 65.2623 11.5971L85.061 25.0425Z" fill="#232735"/>
<path d="M83.885 83.8658L80.6971 82.3532C80.6971 82.3532 64.0863 84.37 66.7709 67.3952L53.6836 66.7229C53.6836 66.7229 56.3682 80.6725 43.4487 82.3532C30.5292 84.0339 64.5897 99.4961 64.5897 99.4961L83.885 83.8658Z" fill="#FBC9B2" stroke="black" stroke-width="0.414561" stroke-miterlimit="10"/>
<path d="M88.7517 180C88.7517 180 81.3691 141.681 86.7383 134.622C92.1074 127.563 92.9464 127.059 91.7719 121.344C91.7719 121.344 108.886 120.84 108.718 117.143C108.383 113.445 95.4631 82.1846 80.5302 82.1846C80.5302 82.1846 70.6309 91.7644 60.2281 91.2602C49.8254 90.756 43.114 82.1846 43.114 82.1846C43.114 82.1846 17.275 92.2686 14.926 113.277C14.926 113.277 29.1878 121.68 33.5502 119.328C33.5502 119.328 46.9731 155.63 27.3422 178.487L88.7517 180Z" fill="#F5F4F2" stroke="black" stroke-width="0.414561" stroke-miterlimit="10"/>
<path d="M33.4622 34.0506C34.4689 33.2103 35.4756 33.5464 36.3145 34.3867C37.6568 14.0505 46.5495 4.97488 52.7575 6.15136C60.3079 7.4959 81.4489 22.622 81.4489 22.622C81.4489 22.622 82.7912 26.6556 83.1267 32.7061C83.7979 32.2019 84.6368 32.0338 85.4757 32.7061C88.4959 35.3951 86.3147 44.6389 81.4489 47.8321C80.61 48.3364 80.1066 48.5044 79.6032 48.1683C77.9254 57.412 76.0797 62.454 66.1804 68.5045C61.4824 71.3616 57.9589 71.0255 53.0931 68.5045C44.2005 63.7986 39.1669 58.5885 37.3213 47.496C32.1199 47.496 30.6098 36.5716 33.4622 34.0506Z" fill="#FBC9B2" stroke="black" stroke-width="0.414561" stroke-miterlimit="10"/>
<path d="M50.1617 41.8486C51.3663 41.8486 52.3429 40.2685 52.3429 38.3192C52.3429 36.37 51.3663 34.7898 50.1617 34.7898C48.957 34.7898 47.9805 36.37 47.9805 38.3192C47.9805 40.2685 48.957 41.8486 50.1617 41.8486Z" fill="black"/>
<path d="M68.7847 41.8486C69.9894 41.8486 70.9659 40.2685 70.9659 38.3192C70.9659 36.37 69.9894 34.7898 68.7847 34.7898C67.5801 34.7898 66.6035 36.37 66.6035 38.3192C66.6035 40.2685 67.5801 41.8486 68.7847 41.8486Z" fill="black"/>
<path d="M63.2466 45.8826C63.2466 45.8826 63.75 48.9078 58.3809 48.5717L63.2466 45.8826Z" fill="#FBC9B2"/>
<path d="M63.2466 45.8826C63.2466 45.8826 63.75 48.9078 58.3809 48.5717" stroke="#D38C73" stroke-width="1.24368" stroke-miterlimit="10" stroke-linecap="round" stroke-linejoin="round"/>
<path d="M77.174 30.4212C77.174 30.4212 68.2814 27.7307 66.6035 29.5804L77.174 30.4212Z" fill="#FBC9B2"/>
<path d="M77.174 30.4212C77.174 30.4212 68.2814 27.7307 66.6035 29.5804" stroke="#090038" stroke-width="0.829122" stroke-miterlimit="10" stroke-linecap="round" stroke-linejoin="round"/>
<path d="M43.9512 31.429C43.9512 31.429 50.9982 28.4038 54.5217 30.0845L43.9512 31.429Z" fill="#FBC9B2"/>
<path d="M43.9512 31.429C43.9512 31.429 50.9982 28.4038 54.5217 30.0845" stroke="#090038" stroke-width="0.829122" stroke-miterlimit="10" stroke-linecap="round" stroke-linejoin="round"/>
<path d="M67.6113 54.4549C67.6113 54.4549 55.5308 53.9507 51.5039 55.2953C51.5039 55.2953 53.014 60.3373 59.8932 59.8331C67.2758 58.9927 67.4435 55.9675 67.6113 54.4549Z" fill="white" stroke="#D38C73" stroke-width="0.829122" stroke-miterlimit="10" stroke-linecap="round" stroke-linejoin="round"/>
<path d="M84.0541 37.4792C84.0541 37.4792 85.3964 39.6641 83.5508 42.3532" stroke="#D38C73" stroke-width="1.24368" stroke-miterlimit="10" stroke-linecap="round" stroke-linejoin="round"/>
<path d="M35.7311 37.4792C35.7311 37.4792 34.3888 39.6641 36.2345 42.3532" stroke="#D38C73" stroke-width="1.24368" stroke-miterlimit="10" stroke-linecap="round" stroke-linejoin="round"/>
<path d="M45.4629 35.9671C45.4629 35.9671 47.3085 38.4895 49.9931 35.4626" stroke="black" stroke-width="1.24368" stroke-miterlimit="10" stroke-linecap="round" stroke-linejoin="round"/>
<path d="M73.1454 36.1346C73.1454 36.1346 71.2998 38.657 68.6152 35.6301" stroke="black" stroke-width="1.24368" stroke-miterlimit="10" stroke-linecap="round" stroke-linejoin="round"/>
<path d="M55.3643 14.4538C55.5321 13.6135 66.2704 31.9328 79.0221 32.269C79.0221 32.269 88.7537 39.3278 89.5926 33.9497C90.4315 28.5715 89.7604 0.840338 53.3509 0C53.3509 0 34.5589 6.55464 31.8743 26.7228C29.1898 46.8909 53.5187 22.0169 55.3643 14.4538Z" fill="#232735"/>
<path d="M128.853 102.69L88.9204 103.698C88.2492 103.698 87.5781 104.202 87.0747 104.707L63.5847 146.555C62.7458 147.9 63.7525 149.749 65.4304 149.749H104.189C104.86 149.749 105.699 149.412 106.035 148.74L130.699 106.051C131.538 104.538 130.531 102.69 128.853 102.69Z" fill="#D80034" stroke="black" stroke-width="0.414561" stroke-miterlimit="10"/>
<path d="M119.458 132.605C119.458 132.605 122.646 129.076 119.458 127.731C116.27 126.387 110.565 126.387 110.733 127.731C111.069 129.076 115.095 131.765 115.095 131.765C115.095 131.765 103.854 127.227 103.015 130.756C102.176 134.286 113.921 136.303 113.921 136.303C113.921 136.303 102.512 134.622 102.008 136.303C101.505 137.983 105.028 139.328 105.028 139.328C105.028 139.328 101.673 140.504 105.699 142.353C109.726 144.202 109.223 144.37 109.223 144.37L107 145L106 145.5C106 147 119.793 152.101 119.458 132.605Z" fill="#FBC9B2" stroke="black" stroke-width="0.414561" stroke-miterlimit="10" stroke-linejoin="round"/>
</svg>
