<svg width="100" height="100" viewBox="0 0 100 100" fill="none" xmlns="http://www.w3.org/2000/svg">
<g clip-path="url(#clip0_551_5159)">
<path d="M100 50C100 59.1 100 68.2 100 77.3C100 90.3 90.3 100 77.3 100C59.1 100 40.9 100 22.7 100C9.7 100 0 90.3 0 77.3C0 59.1 0 40.9 0 22.7C0 9.7 9.7 0 22.7 0C40.9 0 59.1 0 77.3 0C90.3 0 100 9.7 100 22.7C100 31.8 100 40.9 100 50ZM46.5 53.5C46.5 54.2 46.5 54.7 46.5 55.3C46.5 61.1 46.5 66.9 46.5 72.7C46.5 73.7 46.8 74.7 47.4 75.5C48.2 76.7 49.8 77 51.2 76.5C52.6 76 53.5 74.7 53.5 73C53.5 67 53.5 61.1 53.5 55.1C53.5 54.6 53.5 54.1 53.5 53.5C54.2 53.5 54.8 53.5 55.3 53.5C61.1 53.5 66.9 53.5 72.7 53.5C73.6 53.5 74.6 53.2 75.4 52.7C76.6 51.9 77 50.3 76.5 48.9C76 47.5 74.8 46.5 73 46.5C67 46.5 61 46.5 55 46.5C54.5 46.5 54 46.5 53.4 46.5C53.4 40 53.4 33.7 53.4 27.4C53.4 26.4 53.1 25.4 52.6 24.6C51.8 23.4 50.2 23 48.8 23.5C47.3 24 46.5 25.2 46.5 27C46.5 32.6 46.5 38.2 46.5 43.8C46.5 44.7 46.5 45.5 46.5 46.5C44.6 46.5 42.9 46.5 41.1 46.5C36.4 46.5 31.6 46.5 26.9 46.5C24.7 46.5 23.2 48 23.3 50C23.3 52 24.8 53.3 26.9 53.4C27.4 53.4 28 53.4 28.5 53.4C34.4 53.5 40.4 53.5 46.5 53.5Z" fill="black"/>
</g>
<defs>
<clipPath id="clip0_551_5159">
<rect width="100" height="100" fill="white"/>
</clipPath>
</defs>
</svg>
