<svg width="20" height="20" viewBox="0 0 20 20" fill="none" xmlns="http://www.w3.org/2000/svg">
<path fill-rule="evenodd" clip-rule="evenodd" d="M9.99966 0C10.72 0 11.304 0.583976 11.304 1.30435V18.6957C11.304 19.416 10.72 20 9.99966 20C9.27929 20 8.69531 19.416 8.69531 18.6957V1.30435C8.69531 0.583976 9.27929 0 9.99966 0Z" fill="black"/>
<path fill-rule="evenodd" clip-rule="evenodd" d="M20 10.0001C20 10.7205 19.416 11.3045 18.6957 11.3045L1.30435 11.3045C0.583978 11.3045 5.67148e-07 10.7205 5.98636e-07 10.0001C6.30125e-07 9.27978 0.583978 8.6958 1.30435 8.6958L18.6957 8.6958C19.416 8.6958 20 9.27978 20 10.0001Z" fill="black"/>
</svg>
