<svg width="98" height="100" viewBox="0 0 98 100" fill="none" xmlns="http://www.w3.org/2000/svg">
<path d="M77.4001 10.3C77.4001 11.8 77.4001 13.3 77.4001 14.8C77.4001 17.5 75.5001 19.5 72.9001 19.6C70.3001 19.7 68.1 17.8 68 15.1C67.9 11.8 67.9 8.60003 68 5.30003C68.1 2.60003 70.3001 0.700034 72.9001 0.800034C75.5001 0.900034 77.4001 2.90003 77.4001 5.60003C77.4001 7.20003 77.4001 8.70003 77.4001 10.3Z" fill="black"/>
<path d="M20.6001 10.2C20.6001 8.70003 20.6001 7.20003 20.6001 5.70003C20.6001 2.90003 22.5001 0.900034 25.1001 0.800034C27.6001 0.700034 29.9001 2.60003 30.0001 5.30003C30.1001 8.60003 30.1001 11.9 30.0001 15.2C29.9001 17.9 27.6001 19.7 25.1001 19.6C22.6001 19.5 20.7001 17.5 20.7001 14.8C20.6001 13.3 20.6001 11.7 20.6001 10.2Z" fill="black"/>
<path d="M97 20.3C96.7 16.2 94.2001 13.2 90.4 11.5C87.4 10.1 84.2001 10.5 80.9 10.6C80.9 12.8 80.8 14.9 80.7 17.1C80.5 21.1 76.6 23.8 72.1 23.6C67.7 23.4 64.5 20.5 64.4 16.5C64.4 14.5 64.4 12.6 64.4 10.6C54.1 10.6 43.9 10.6 33.6 10.6C33.6 12.7 33.5 14.9 33.4 17C33.2 21 29.3 23.7 24.8 23.5C20.4 23.3 17.2 20.4 17.1 16.4C17.1 14.4 17.1 12.4 17.1 10.4C15.1 10.4 13.3 10.3 11.4 10.4C6.20005 10.7 1.70005 14.5 1.10005 19.7C0.600047 24.3 0.900047 29 0.900047 33.7C0.900047 33.8 1.00005 33.8 1.10005 33.9C33.1 33.9 65.1 33.9 97.1 33.9C97.1 29.4 97.3 24.9 97 20.3Z" fill="black"/>
<path d="M0.800049 38.3C0.800049 39 0.800049 39.4001 0.800049 39.9001C0.800049 55.7001 0.800049 71.5001 0.800049 87.3001C0.800049 94.6001 5.60005 99.3001 12.9 99.3001C37 99.3001 61.1 99.3001 85.1 99.3001C92.4 99.3001 97.2 94.6001 97.2 87.3001C97.2 71.5001 97.2 55.7001 97.2 39.9001C97.2 39.4001 97.2 38.8 97.2 38.3C65 38.3 33 38.3 0.800049 38.3ZM30.6 88.1C30.6 90.1 29 91.7 27 91.7H15.7C13.7 91.7 12.1 90.1 12.1 88.1V76.6C12.1 74.6 13.7 73 15.7 73H27C29 73 30.6 74.6 30.6 76.6V88.1ZM30.6 61C30.6 63 29 64.6 27 64.6H15.7C13.7 64.6 12.1 63 12.1 61V49.5C12.1 47.5 13.7 45.9001 15.7 45.9001H27C29 45.9001 30.6 47.5 30.6 49.5V61ZM58.2001 88.1C58.2001 90.1 56.6 91.7 54.6 91.7H43.3C41.3 91.7 39.7001 90.1 39.7001 88.1V76.6C39.7001 74.6 41.3 73 43.3 73H54.5C56.5 73 58.1 74.6 58.1 76.6V88.1H58.2001ZM58.2001 61C58.2001 63 56.6 64.6 54.6 64.6H43.3C41.3 64.6 39.7001 63 39.7001 61V49.5C39.7001 47.5 41.3 45.9001 43.3 45.9001H54.5C56.5 45.9001 58.1 47.5 58.1 49.5V61H58.2001ZM85.8 88.1C85.8 90.1 84.2 91.7 82.2 91.7H71C69 91.7 67.4 90.1 67.4 88.1V76.6C67.4 74.6 69 73 71 73H82.2C84.2 73 85.8 74.6 85.8 76.6V88.1ZM85.8 61C85.8 63 84.2 64.6 82.2 64.6H71C69 64.6 67.4 63 67.4 61V49.5C67.4 47.5 69 45.9001 71 45.9001H82.2C84.2 45.9001 85.8 47.5 85.8 49.5V61Z" fill="black"/>
</svg>
