<svg width="85" height="100" viewBox="0 0 85 100" fill="none" xmlns="http://www.w3.org/2000/svg">
<path d="M14.1999 74.4C14.1999 73.4 14.1999 72.6001 14.1999 71.8C14.1999 53.6 14.1999 35.5 14.1999 17.3C14.1999 15.3 14.3999 11.7 13.3999 11.8C11.8999 11.9 10.4999 11.7 8.9999 11.8C5.0999 12 0.899902 10.7 0.899902 6.90005C0.899902 3.30005 3.6999 0.500049 8.3999 0.700049C10.8999 0.500049 13.3999 0.500049 15.9999 0.700049C19.1999 1.00005 21.8999 6.20005 21.8999 12.2C21.8999 32.5 21.8999 52.8 21.8999 73.1C21.8999 73.4 21.8999 73.6 21.7999 74.1C19.2999 72.7 16.7999 72.8 14.1999 74.4Z" fill="black"/>
<path d="M32.6999 86.1C33.2999 86.1 33.6999 86 34.1999 86C48.8999 86 63.5999 86 78.2999 86C81.7999 86 84.2999 87.4 84.8999 89.6C85.3999 91.3 83.3999 93.3 80.4999 93.9C79.7999 94 79.0999 94.1 78.3999 94.1C63.1999 94.1 47.9999 94.1 32.7999 94.1C32.5999 94.1 32.2999 94.1 31.8999 94C33.3999 91.5 33.6999 88.9 32.6999 86.1Z" fill="black"/>
<path d="M16.5999 76.2001C10.1999 76.2001 4.9999 81.4001 4.8999 87.9001C4.8999 94.5001 9.9999 99.8001 16.4999 99.8001C22.8999 99.8001 28.1999 94.5001 28.1999 88.1001C28.2999 81.6001 22.9999 76.2001 16.5999 76.2001ZM16.5999 93.4001C13.5999 93.4001 11.1999 91.0001 11.1999 88.0001C11.1999 85.0001 13.5999 82.6001 16.5999 82.6001C19.5999 82.6001 21.9999 85.0001 21.9999 88.0001C21.9999 91.0001 19.5999 93.4001 16.5999 93.4001Z" fill="black"/>
<path d="M77.2999 37.9C77.3999 32.8 74.1999 30.5 69.9999 30.6C56.3999 30.7 42.6999 30.6 29.0999 30.6C28.4999 30.6 27.8999 30.7 27.2999 30.7C27.1999 31 27.0999 31.2 27.0999 31.4C27.0999 45.8 27.0999 60.2 27.0999 74.6C27.0999 75.1 27.4999 75.7 27.8999 76.2C29.0999 77.5 30.4999 78.7 31.5999 80.1C32.2999 81.1 33.0999 81.3 34.1999 81.3C47.8999 81.3 61.5999 81.3 75.2999 81.3C75.8999 81.3 76.3999 81.3 77.2999 81.3C77.2999 80.5 77.2999 79.9 77.2999 79.3C77.2999 65.5 77.1999 51.7 77.2999 37.9Z" fill="black" stroke="black" stroke-width="1.9118" stroke-miterlimit="10"/>
</svg>
