<svg width="18" height="18" viewBox="0 0 18 18" fill="none" xmlns="http://www.w3.org/2000/svg">
<path fill-rule="evenodd" clip-rule="evenodd" d="M13.2425 4.757C13.5481 5.06263 13.5481 5.55815 13.2425 5.86378L5.86399 13.2423C5.55836 13.5479 5.06284 13.5479 4.75721 13.2423C4.45159 12.9367 4.45159 12.4411 4.75721 12.1355L12.1357 4.757C12.4413 4.45137 12.9369 4.45137 13.2425 4.757Z" fill="#D80034"/>
<path fill-rule="evenodd" clip-rule="evenodd" d="M13.2426 13.2428C12.9369 13.5485 12.4414 13.5485 12.1358 13.2428L4.7573 5.86434C4.45167 5.55871 4.45167 5.06319 4.7573 4.75756C5.06292 4.45193 5.55845 4.45193 5.86407 4.75756L13.2426 12.1361C13.5482 12.4417 13.5482 12.9372 13.2426 13.2428Z" fill="#D80034"/>
</svg>
