<svg width="100" height="78" viewBox="0 0 100 78" fill="none" xmlns="http://www.w3.org/2000/svg">
<path d="M35.2001 48.1999C34.0001 47.8999 33.6001 47.8999 33.4001 47.6999C29.3001 43.7999 25.3001 39.6999 21.2001 35.7999C15.7001 30.5999 8.2001 30.2999 3.5001 35.0999C-1.3999 39.9999 -1.1999 47.1999 4.2001 52.7999C11.0001 59.7999 17.9001 66.6999 24.9001 73.4999C30.8001 79.2999 37.7001 79.3999 43.6001 73.4999C61.0001 56.2999 78.3001 39.0999 95.4001 21.7999C101.2 15.9999 101.4 8.39994 96.3001 3.29994C91.4001 -1.50006 84.0001 -1.00006 78.3001 4.59994C72.8001 9.99994 67.3001 15.4999 61.9001 20.9999C52.9001 30.0999 43.9001 39.2999 35.2001 48.1999Z" fill="black"/>
</svg>
