<svg width="100" height="84" viewBox="0 0 100 84" fill="none" xmlns="http://www.w3.org/2000/svg">
<path d="M59.4993 78.5C58.9993 82.5 57.9993 83.4 53.6993 83.4C50.7993 83.4 47.9993 83.5 45.0993 83.4C41.7993 83.3 40.5993 81.8 40.6993 77.9C40.7993 74.9 42.0993 73.4 45.0993 73.4C49.8993 73.4 54.5993 73.6 59.2993 72.2C68.7993 69.2 75.9993 63.5 79.9993 54.5C81.5993 51 82.0993 47 82.5993 43.2C84.8993 26.3 73.9993 11.2 56.8993 7.39999C40.3993 3.79999 23.4993 13.7 18.1993 29.8C16.2993 35.6 16.9993 41.2 17.9993 47C18.4993 50.3 18.9993 53.5 19.4993 56.8C19.9993 60 19.1993 61.3 16.0993 62.2C10.6993 63.8 6.79928 62.6 3.69928 57.7C-0.600717 50.9 -1.20072 43.6 1.99928 36.2C3.69928 32.3 6.79928 29.8 11.0993 29C11.7993 28.9 12.5993 27.8 12.8993 27C17.2993 15.5 25.0993 7.29999 36.6993 3.09999C57.1993 -4.40001 79.7993 6.29999 87.0993 26.9C87.5993 28.4 88.1993 29.1 89.8993 29.3C93.1993 29.6 95.4993 31.6 97.1993 34.4C101.499 41.4 100.699 52.9 95.3993 59.1C92.5993 62.4 89.1993 63.8 84.9993 62.3C83.3993 61.7 82.5993 62.2 81.5993 63.5C76.4993 70.5 69.5993 75.1 61.3993 77.7C60.8993 77.9 60.3993 78 59.8993 78.2C59.6993 78.3 59.5993 78.4 59.4993 78.5Z" fill="black"/>
<path d="M75.1994 41.5999C75.2994 38.5999 75.3994 36.0999 71.4994 35.9999C69.9994 35.9999 67.6994 35.0999 67.2994 33.9999C66.8994 32.8999 67.7994 30.6999 68.8994 29.5999C71.4994 26.9999 69.8994 25.3999 67.9994 23.6999C66.1994 21.9999 64.6994 19.2999 61.5994 22.2999C60.4994 23.2999 58.0994 24.4999 57.2994 23.9999C56.0994 23.1999 55.6994 21.0999 54.9994 19.4999C54.5994 18.4999 54.2994 16.6999 53.7994 16.6999C51.3994 16.3999 48.7994 16.1999 46.3994 16.6999C45.5994 16.8999 45.0994 19.2999 44.7994 20.6999C43.9994 24.8999 41.9994 25.7999 38.7994 22.7999C36.2994 20.4999 34.4994 20.7999 32.5994 23.1999C32.1994 23.6999 31.6994 24.1999 31.1994 24.5999C29.4994 26.1999 29.2994 27.5999 30.9994 29.4999C32.0994 30.6999 32.9994 32.7999 32.6994 34.1999C32.4994 35.0999 29.9994 35.9999 28.4994 36.0999C24.5994 36.1999 24.9994 38.7999 24.8994 41.2999C24.8994 43.8999 24.5994 46.3999 28.4994 46.3999C29.9994 46.3999 32.1994 47.2999 32.6994 48.3999C33.0994 49.4999 32.1994 51.7999 31.1994 52.7999C28.3994 55.5999 30.4994 57.1999 32.2994 58.9999C34.0994 60.7999 35.5994 62.8999 38.4994 60.1999C39.5994 59.1999 41.6994 58.0999 42.7994 58.5999C43.8994 58.9999 44.8994 61.2999 44.8994 62.6999C44.8994 66.5999 47.2994 66.3999 49.9994 66.3999C52.6994 66.3999 55.2994 66.6999 55.2994 62.5999C55.2994 61.1999 56.2994 59.0999 57.4994 58.4999C58.3994 57.9999 60.1994 59.3999 61.5994 59.9999C62.6994 60.4999 64.2994 61.6999 64.6994 61.2999C66.6994 59.8999 68.5994 58.1999 69.9994 56.1999C70.3994 55.4999 69.1994 53.4999 68.2994 52.2999C65.9994 48.9999 66.7994 46.4999 70.6994 46.4999C74.6994 46.3999 75.6994 44.5999 75.1994 41.5999ZM49.8994 50.4999C44.7994 50.3999 40.5994 46.0999 40.6994 41.0999C40.7994 35.9999 45.0994 31.8999 50.2994 31.9999C55.3994 32.0999 59.5994 36.3999 59.4994 41.4999C59.2994 46.4999 55.0994 50.5999 49.8994 50.4999Z" fill="black"/>
</svg>
