<svg width="101" height="101" viewBox="0 0 101 101" fill="none" xmlns="http://www.w3.org/2000/svg">
<g clip-path="url(#clip0_1269_2)">
<path d="M0.284912 51.5405V67.6227C0.284912 72.0634 3.79878 75.6672 8.12886 75.6672V43.496C3.79878 43.496 0.284912 47.0998 0.284912 51.5405Z" fill="black"/>
<path d="M92.4409 43.5029V75.6742C96.771 75.6742 100.285 72.0704 100.285 67.6297V51.5475C100.285 47.1067 96.771 43.5029 92.4409 43.5029Z" fill="black"/>
<path d="M88.5189 46.5187V39.491C88.5189 17.8406 71.3992 0.285095 50.2883 0.285095C29.1774 0.285095 12.0784 17.8129 12.0508 39.4426V75.0171C12.0508 80.0112 16.0004 84.0646 20.877 84.0646C25.7535 84.0646 29.7031 80.0112 29.7031 75.0171V44.8587C29.7031 39.8645 25.7535 35.8111 20.877 35.8111C19.7702 35.8111 18.7119 36.0325 17.7297 36.4129C19.2514 19.3624 33.2723 5.95709 50.2883 5.95709C67.3043 5.95709 81.3183 19.3624 82.84 36.4129C81.8647 36.0325 80.8064 35.8111 79.6927 35.8111C74.8231 35.8111 70.8666 39.8645 70.8666 44.8587V75.0171C70.8666 80.0112 74.8162 84.0646 79.6927 84.0646C80.8617 84.0646 81.9685 83.8294 82.9853 83.4075V88.2286C82.9853 88.8789 82.4734 89.4045 81.837 89.4045H57.4682C56.3477 86.368 53.4909 84.2029 50.1361 84.2029C45.8061 84.2029 42.2922 87.8067 42.2922 92.2475C42.2922 96.6882 45.8061 100.292 50.1361 100.292C53.4909 100.292 56.3477 98.127 57.4682 95.0835H81.837C85.5238 95.0835 88.5189 92.0123 88.5189 88.2356V74.1178V46.5257V46.5187Z" fill="black"/>
</g>
<defs>
<clipPath id="clip0_1269_2">
<rect width="100" height="100" fill="white" transform="translate(0.284912 0.285034)"/>
</clipPath>
</defs>
</svg>
