<svg width="97" height="100" viewBox="0 0 97 100" fill="none" xmlns="http://www.w3.org/2000/svg">
<path d="M80.3002 54.7C78.2002 54.7 76.8002 54.7 75.3002 54.7C63.6002 54.7 51.9002 54.7 40.2002 54.7C36.4002 54.7 34.0002 51.4 35.4002 48.2C36.3002 46.1 38.0002 45.3 40.3002 45.3C49.5002 45.3 58.6002 45.3 67.8002 45.3C71.8002 45.3 75.7002 45.3 80.0002 45.3C79.6002 44.7 79.3002 44.4 79.0002 44C76.6002 41.6 74.2002 39.2 71.8002 36.8C69.7002 34.6 69.6002 31.8 71.5002 29.9C73.5002 28 76.2002 28.1 78.4002 30.3C83.8002 35.6 89.1002 40.9 94.4002 46.3C96.8002 48.7 96.8002 51.3 94.4002 53.7C89.0002 59.1 83.7002 64.5 78.2002 69.8C76.0002 72 73.2002 72 71.3002 70C69.4002 68 69.5002 65.4 71.6002 63.2C74.5002 60.5 77.2002 57.8 80.3002 54.7Z" fill="black"/>
<path d="M64.8001 74.7V65.7C64.8001 62.6 62.3001 60.2 59.3001 60.2H34.9001C32.7001 60.2 30.9001 58.4 30.9001 56.2V47V45.2V44.4C30.9001 41.7 33.1001 39.5 35.8001 39.5H60.9001C63.1001 39.5 64.8001 37.7 64.8001 35.6V22.6C64.8001 21.5 64.8001 20.3 64.8001 19.2V16.7C64.7001 6.8 57.9001 0 48.2001 0C37.7001 0 27.2001 0 16.8001 0C7.0001 0 0.100098 6.9 0.100098 16.8C0.100098 27.9 0.100098 38.9 0.100098 50C0.100098 61.3 0.100098 72.6 0.100098 84C0.100098 92.7 6.9001 99.9 15.5001 100C26.8001 100.2 38.1001 100.1 49.4001 100C56.9001 99.9 63.5001 94.2 64.4001 86.7C65.0001 82.6 64.9001 78.6 64.8001 74.7Z" fill="black"/>
</svg>
