<svg width="14" height="17" viewBox="0 0 14 17" fill="none" xmlns="http://www.w3.org/2000/svg">
<path d="M12.9595 7.99113L12.9589 7.9903L12.7216 7.6461L11.957 6.49891L11.2472 5.43403C11.3383 5.29728 11.4269 5.1628 11.5153 5.02868C11.6216 4.86727 11.7276 4.70639 11.8377 4.54184L11.8378 4.54185L11.8393 4.53952C12.098 4.13722 12.3652 3.74349 12.6361 3.34437C12.7375 3.19489 12.8395 3.04466 12.9417 2.89294C13.1753 2.56519 13.2036 2.15279 12.9943 1.83874C12.7922 1.53557 12.4184 1.35169 12.0022 1.35169L12.0009 1.3517C10.8007 1.36169 9.60863 1.35837 8.41311 1.35503C7.81394 1.35336 7.2139 1.35169 6.61151 1.35169H4.46884H4.46545H4.46206H4.45868H4.45529H4.4519H4.44851H4.44513H4.44174H4.43835H4.43496H4.43158H4.42819H4.4248H4.42141H4.41802H4.41464H4.41125H4.40786H4.40447H4.40109H4.3977H4.39431H4.39092H4.38754H4.38415H4.38076H4.37737H4.37399H4.3706H4.36721H4.36382H4.36044H4.35705H4.35366H4.35027H4.34689H4.3435H4.34011H4.33672H4.33334H4.32995H4.32656H4.32318H4.31979H4.3164H4.31301H4.30963H4.30624H4.30285H4.29947H4.29608H4.29269H4.28931H4.28592H4.28253H4.27915H4.27576H4.27237H4.26899H4.2656H4.26221H4.25883H4.25544H4.25206H4.24867H4.24528H4.2419H4.23851H4.23513H4.23174H4.22835H4.22497H4.22158H4.2182H4.21481H4.21142H4.20804H4.20465H4.20127H4.19788H4.1945H4.19111H4.18773H4.18434H4.18096H4.17757H4.17419H4.1708H4.16742H4.16403H4.16065H4.15726H4.15388H4.15049H4.14711H4.14373H4.14034H4.13696H4.13357H4.13019H4.12681H4.12342H4.12004H4.11665H4.11327H4.10989H4.1065H4.10312H4.09974H4.09635H4.09297H4.08959H4.0862H4.08282H4.07944H4.07606H4.07267H4.06929H4.06591H4.06253H4.05914H4.05576H4.05238H4.049H4.04562H4.04223H4.03885H4.03547H4.03209H4.02871H4.02533H4.02195H4.01856H4.01518H4.0118H4.00842H4.00504H4.00166H3.99828H3.9949H3.99152H3.98814H3.98476H3.98138H3.978H3.97462H3.97124H3.96786H3.96448H3.9611H3.95772H3.95434H3.95096H3.94759H3.94421H3.94083H3.93745H3.93407H3.93069H3.92731H3.92394H3.92056H3.91718H3.9138H3.91043H3.90705H3.90367H3.90029H3.89692H3.89354H3.89016H3.88679H3.88341H3.88003H3.87666H3.87328H3.86991H3.86653H3.86315H3.85978H3.8564H3.85303H3.84965H3.84628H3.8429H3.83953H3.83615H3.83278H3.82941H3.82603H3.82266H3.81928H3.81591H3.81254H3.80916H3.80579H3.80242H3.79904H3.79567H3.7923H3.78893H3.78555H3.78218H3.77881H3.77544H3.77207H3.76869H3.76532H3.76195H3.75858H3.75521H3.75184H3.74847H3.7451H3.74173H3.73836H3.73499H3.73162H3.72825H3.72488H3.72151H3.71814H3.71477H3.7114H3.70803H3.70467H3.7013H3.69793H3.69456H3.69119H3.68783H3.68446H3.68109H3.67772H3.67436H3.67099H3.66762H3.66426H3.66089H3.65753H3.65416H3.65079H3.64743H3.64406H3.6407H3.63733H3.63397H3.6306H3.62724H3.62388H3.62051H3.61715H3.61378H3.61042H3.60706H3.60369H3.60033H3.59697H3.59361H3.59025H3.58688H3.58352H3.58016H3.5768H3.57344H3.57008H3.56672H3.56335H3.55999H3.55663H3.55327H3.54991H3.54655H3.5432H3.53984H3.53648H3.53312H3.52976H3.5264H3.52304H3.51969H3.51633H3.51297H3.50961H3.50626H3.5029H3.49954H3.49619H3.49283H3.48947H3.48612H3.48276H3.47941H3.47605H3.4727H3.46934H3.46599H3.46264H3.45928H3.45593H3.45257H3.44922H3.44587H3.44252H3.43916H3.43581H3.43246H3.42911H3.42576H3.4224H3.41905H3.4157H3.41235H3.409H3.40565H3.4023H3.39895H3.3956H3.39225H3.3889H3.38555H3.38221H3.37886H3.37551H3.37216H3.36881H3.36547H3.36212H3.35877H3.35543H3.35208H3.34873H3.34539H3.34204H3.3387H3.33535H3.33201H3.32866H3.32532H3.32198H3.31863H3.31529H3.31195H3.3086H3.30526H3.30192H3.29858H3.29523H3.29189H3.28855H3.28521H3.28187H3.27853H3.27519H3.27185H3.26851H3.26517H3.26183H3.25849H3.25515H3.25181H3.24848H3.24514H3.2418H3.23846H3.23513H3.23179H3.22845H3.22512H3.22178H3.21844H3.21511H3.21177H3.20844H3.20511H3.20177H3.19844H3.1951H3.19177H3.18844H3.1851H3.18177H3.17844H3.17511H3.17178H3.16844H3.16511H3.16178H3.15845H3.15512H3.15179H3.14846H3.14513H3.14181H3.13848H3.13515H3.13182H3.12849H3.12516H3.12184H3.11851H3.11518H3.11186H3.10853H3.10521H3.10188H3.09856H3.09523H3.09191H3.08858H3.08526H3.08194H3.07861H3.07529H3.07197H3.06865H3.06532H3.062H3.05868H3.05536H3.05204H3.04872H3.0454H3.04208H3.03876H3.03544H3.03212H3.02881H3.02549H3.02217H3.01885H3.01554H3.01222H3.0089H3.00559H3.00227H2.99895H2.99564H2.99233H2.98901H2.9857H2.98238H2.97907H2.97576H2.97244H2.96913H2.96582H2.96251H2.9592H2.95589H2.95258H2.94926H2.94595H2.94265H2.93934H2.93603H2.93272H2.92941H2.9261H2.92279H2.91949H2.91618H2.91287H2.90957H2.90626H2.90296H2.89965H2.89635H2.89304H2.88974H2.88644H2.88313H2.87983H2.87653H2.87322H2.86992H2.86662H2.86332H2.86002H2.85672H2.85342H2.85012H2.84682H2.84352H2.84323C2.63804 0.994304 2.22384 0.810637 1.7668 0.85718L1.7668 0.857167L1.76485 0.857392C1.31826 0.908802 0.974207 1.20325 0.888795 1.6411L0.876436 1.67382L0.866761 1.69944V1.72682C0.866761 1.73246 0.865601 1.74155 0.861344 1.76222C0.861045 1.76367 0.860709 1.76528 0.860346 1.76702C0.858654 1.77515 0.856382 1.78605 0.854641 1.79604C0.852514 1.80824 0.849756 1.82657 0.849756 1.84689V1.87691V5.89921V5.8993V5.89939V5.89947V5.89956V5.89965V5.89973V5.89982V5.8999V5.89999V5.90007V5.90016V5.90024V5.90033V5.90041V5.90049V5.90058V5.90066V5.90074V5.90082V5.9009V5.90098V5.90107V5.90115V5.90123V5.90131V5.90139V5.90147V5.90154V5.90162V5.9017V5.90178V5.90186V5.90193V5.90201V5.90209V5.90217V5.90224V5.90232V5.90239V5.90247V5.90254V5.90262V5.90269V5.90277V5.90284V5.90292V5.90299V5.90306V5.90313V5.90321V5.90328V5.90335V5.90342V5.90349V5.90357V5.90364V5.90371V5.90378V5.90385V5.90392V5.90399V5.90406V5.90413V5.9042V5.90426V5.90433V5.9044V5.90447V5.90454V5.9046V5.90467V5.90474V5.9048V5.90487V5.90494V5.905V5.90507V5.90513V5.9052V5.90526V5.90533V5.90539V5.90546V5.90552V5.90558V5.90565V5.90571V5.90577V5.90584V5.9059V5.90596V5.90602V5.90608V5.90615V5.90621V5.90627V5.90633V5.90639V5.90645V5.90651V5.90657V5.90663V5.90669V5.90675V5.90681V5.90687V5.90693V5.90699V5.90705V5.9071V5.90716V5.90722V5.90728V5.90734V5.90739V5.90745V5.90751V5.90756V5.90762V5.90768V5.90773V5.90779V5.90785V5.9079V5.90796V5.90801V5.90807V5.90812V5.90818V5.90823V5.90829V5.90834V5.9084V5.90845V5.9085V5.90856V5.90861V5.90866V5.90872V5.90877V5.90882V5.90888V5.90893V5.90898V5.90903V5.90909V5.90914V5.90919V5.90924V5.90929V5.90934V5.9094V5.90945V5.9095V5.90955V5.9096V5.90965V5.9097V5.90975V5.9098V5.90985V5.9099V5.90995V5.91V5.91005V5.9101V5.91015V5.9102V5.91025V5.9103V5.91035V5.91039V5.91044V5.91049V5.91054V5.91059V5.91064V5.91068V5.91073V5.91078V5.91083V5.91088V5.91092V5.91097V5.91102V5.91107V5.91111V5.91116V5.91121V5.91125V5.9113V5.91135V5.91139V5.91144V5.91149V5.91153V5.91158V5.91163V5.91167V5.91172V5.91176V5.91181V5.91186V5.9119V5.91195V5.91199V5.91204V5.91209V5.91213V5.91218V5.91222V5.91227V5.91231V5.91236V5.9124V5.91245V5.91249V5.91254V5.91258V5.91263V5.91267V5.91272V5.91276V5.91281V5.91285V5.9129V5.91294V5.91298V5.91303V5.91307V5.91312V5.91316V5.91321V5.91325V5.91329V5.91334V5.91338V5.91343V5.91347V5.91352V5.91356V5.9136V5.91365V5.91369V5.91374V5.91378V5.91382V5.91387V5.91391V5.91396V5.914V5.91404V5.91409V5.91413V5.91418V5.91422V5.91426V5.91431V5.91435V5.9144V5.91444V5.91448V5.91453V5.91457V5.91462V5.91466V5.9147V5.91475V5.91479V5.91484V5.91488V5.91492V5.91497V5.91501V5.91506V5.9151V5.91515V5.91519V5.91523V5.91528V5.91532V5.91537V5.91541V5.91546V5.9155V5.91555V5.91559V5.91563V5.91568V5.91572V5.91577V5.91581V5.91586V5.9159V5.91595V5.91599V5.91604V5.91608V5.91613V5.91617V5.91622V5.91627V5.91631V5.91636V5.9164V5.91645V5.91649V5.91654V5.91658V5.91663V5.91668V5.91672V5.91677V5.91681V5.91686V5.91691V5.91695V5.917V5.91705V5.91709V5.91714V5.91719V5.91723V5.91728V5.91733V5.91738V5.91742V5.91747V5.91752V5.91756V5.91761V5.91766V5.91771V5.91776V5.9178V5.91785V5.9179V5.91795V5.918V5.91805V5.9181V5.91814V5.91819V5.91824V5.91829V5.91834V5.91839V5.91844V5.91849V5.91854V5.91859V5.91864V5.91869V5.91874V5.91879V5.91884V5.91889V5.91894V5.91899V5.91904V5.9191V5.91915V5.9192V5.91925V5.9193V5.91935V5.91941V5.91946V5.91951V5.91956V5.91962V5.91967V5.91972V5.91978V5.91983V5.91988V5.91994V5.91999V5.92004V5.9201V5.92015V5.92021V5.92026V5.92032V5.92037V5.92043V5.92048V5.92054V5.92059V5.92065V5.92071V5.92076V5.92082V5.92088V5.92093V5.92099V5.92105V5.9211V5.92116V5.92122V5.92128V5.92134V5.92139V5.92145V5.92151V5.92157V5.92163V5.92169V5.92175V5.92181V5.92187V5.92193V5.92199V5.92205V5.92211V5.92217V5.92223V5.92229V5.92236V5.92242V5.92248V5.92254V5.92261V5.92267V5.92273V5.92279V5.92286V5.92292V5.92299V5.92305V5.92311V5.92318V5.92324V5.92331V5.92337V5.92344V5.92351V5.92357V5.92364V5.9237V5.92377V5.92384V5.92391V5.92397V5.92404V5.92411V5.92418V5.92425V5.92431V5.92438V5.92445V5.92452V5.92459V5.92466V5.92473V5.9248V5.92487V5.92495V5.92502V5.92509V5.92516V5.92523V5.92531V5.92538V5.92545V5.92553V5.9256V5.92567V5.92575V5.92582V5.9259V5.92597V5.92605V5.92612V5.9262V5.92628V5.92635V5.92643V5.92651V5.92658V5.92666V5.92674V5.92682V5.9269V5.92698V5.92705V5.92713V5.92721V5.92729V5.92738V5.92746V5.92754V5.92762V5.9277V5.92778V5.92787V5.92795V5.92803V5.92811V5.9282V5.92828V5.92837V5.92845V5.92854V5.92862V5.92871V5.92879V5.92888V5.92897V5.92905V5.92914V5.92923V13.7187V14.1539V14.156V14.158V14.16V14.162V14.1641V14.1661V14.1681V14.1701V14.1721V14.1742V14.1762V14.1782V14.1802V14.1822V14.1842V14.1863V14.1883V14.1903V14.1923V14.1943V14.1963V14.1984V14.2004V14.2024V14.2044V14.2064V14.2084V14.2104V14.2125V14.2145V14.2165V14.2185V14.2205V14.2225V14.2245V14.2265V14.2286V14.2306V14.2326V14.2346V14.2366V14.2386V14.2406V14.2426V14.2446V14.2466V14.2486V14.2507V14.2527V14.2547V14.2567V14.2587V14.2607V14.2627V14.2647V14.2667V14.2687V14.2707V14.2727V14.2747V14.2767V14.2787V14.2807V14.2827V14.2847V14.2868V14.2888V14.2908V14.2928V14.2948V14.2968V14.2988V14.3008V14.3028V14.3048V14.3068V14.3088V14.3108V14.3128V14.3148V14.3168V14.3188V14.3208V14.3228V14.3248V14.3268V14.3288V14.3308V14.3328V14.3348V14.3367V14.3387V14.3407V14.3427V14.3447V14.3467V14.3487V14.3507V14.3527V14.3547V14.3567V14.3587V14.3607V14.3627V14.3647V14.3667V14.3687V14.3707V14.3727V14.3747V14.3766V14.3786V14.3806V14.3826V14.3846V14.3866V14.3886V14.3906V14.3926V14.3946V14.3966V14.3986V14.4005V14.4025V14.4045V14.4065V14.4085V14.4105V14.4125V14.4145V14.4165V14.4185V14.4204V14.4224V14.4244V14.4264V14.4284V14.4304V14.4324V14.4344V14.4363V14.4383V14.4403V14.4423V14.4443V14.4463V14.4483V14.4503V14.4522V14.4542V14.4562V14.4582V14.4602V14.4622V14.4642V14.4661V14.4681V14.4701V14.4721V14.4741V14.4761V14.4781V14.48V14.482V14.484V14.486V14.488V14.49V14.4919V14.4939V14.4959V14.4979V14.4999V14.5019V14.5038V14.5058V14.5078V14.5098V14.5118V14.5138V14.5157V14.5177V14.5197V14.5217V14.5237V14.5257V14.5276V14.5296V14.5316V14.5336V14.5356V14.5375V14.5395V14.5415V14.5435V14.5455V14.5474V14.5494V14.5514V14.5534V14.5554V14.5574V14.5593V14.5613V14.5633V14.5653V14.5673V14.5692V14.5712V14.5732V14.5752V14.5772V14.5791V14.5811V14.5831V14.5851V14.5871V14.589V14.591V14.593V14.595V14.597V14.5989V14.6009V14.6029V14.6049V14.6068V14.6088V14.6108V14.6128V14.6148V14.6167V14.6187V14.6207V14.6227V14.6247V14.6266V14.6286V14.6306V14.6326V14.6346V14.6365V14.6385V14.6405V14.6425V14.6444V14.6464V14.6484V14.6504V14.6524V14.6543V14.6563V14.6583V14.6603V14.6623V14.6642V14.6662V14.6682V14.6702V14.6721V14.6741V14.6761V14.6781V14.6801V14.682V14.684V14.686V14.688V14.69V14.6919V14.6939V14.6959V14.6979V14.6999V14.7018V14.7038V14.7058V14.7078V14.7097V14.7117V14.7137V14.7157V14.7177V14.7196V14.7216V14.7236V14.7256V14.7276V14.7295V14.7315V14.7335V14.7355V14.7375V14.7394V14.7414V14.7434V14.7454V14.7474V14.7493V14.7513V14.7533V14.7553V14.7573V14.7592V14.7612V14.7632V14.7652V14.7672V14.7691V14.7711V14.7731V14.7751V14.7771V14.779V14.781V14.783V14.785V14.787V14.7889V14.7909V14.7929V14.7949V14.7969V14.7989V14.8008V14.8028V14.8048V14.8068V14.8088V14.8107V14.8127V14.8147V14.8167V14.8187V14.8207V14.8226V14.8246V14.8266V14.8286V14.8306V14.8326V14.8345V14.8365V14.8385V14.8405V14.8425V14.8445V14.8464V14.8484V14.8504V14.8524V14.8544V14.8564V14.8584V14.8603V14.8623V14.8643V14.8663V14.8683V14.8703V14.8723V14.8742V14.8762V14.8782V14.8802V14.8822V14.8842V14.8862V14.8881V14.8901V14.8921V14.8941V14.8961V14.8981V14.9001V14.9021V14.904V14.906V14.908V14.91V14.912V14.914V14.916V14.918V14.92V14.922V14.9239V14.9259V14.9279V14.9299V14.9319V14.9339V14.9359V14.9379V14.9399V14.9419V14.9439V14.9458V14.9478V14.9498V14.9518V14.9538V14.9558V14.9578V14.9598V14.9618V14.9638V14.9658V14.9678V14.9698V14.9718V14.9738V14.9758V14.9777V14.9797V14.9817V14.9837V14.9857V14.9877V14.9897V14.9917V14.9937V14.9957V14.9977V14.9997V15.0017V15.0037V15.0057V15.0077V15.0097V15.0117V15.0137V15.0157V15.0177V15.0197V15.0217V15.0237V15.0257V15.0277V15.0297V15.0317V15.0337V15.0357V15.0377V15.0397V15.0417V15.0437V15.0457V15.0477V15.0497V15.0517V15.0537V15.0557V15.0577V15.0598V15.0618V15.0638V15.0658V15.0678V15.0698V15.0718V15.0738V15.0758V15.0778V15.0798V15.0818V15.0838V15.0858V15.0879V15.0899V15.0919V15.0939V15.0959V15.0979V15.0999V15.1019V15.1039V15.1059V15.108V15.11V15.112V15.114V15.116V15.118V15.12V15.1221V15.1241V15.1261V15.1281V15.1301V15.1321V15.1341V15.1362V15.1382V15.1402V15.1422V15.1442V15.1462V15.1483V15.1503V15.1523V15.1543V15.1563V15.1584V15.1604V15.1624V15.1644V15.1664V15.1685V15.1705V15.1725V15.1745C0.849756 15.4754 0.989823 15.7602 1.23211 15.9393C1.4168 16.0835 1.65494 16.15 1.90104 16.15H1.90351C1.92731 16.15 1.95797 16.15 1.98743 16.1476C2.01097 16.1458 2.04198 16.1419 2.07391 16.1313C2.5977 16.0551 2.95232 15.6497 2.95232 15.1145V9.48618H12.0022C12.4242 9.48618 12.8032 9.32497 12.9933 9.03073C13.2232 8.71364 13.1896 8.32958 12.9595 7.99113ZM9.22423 6.02695L9.22418 6.02697L9.22647 6.03024C9.58167 6.5378 9.92023 7.06067 10.2605 7.5862C10.2606 7.58635 10.2607 7.5865 10.2608 7.58665L10.2663 7.59527H2.98633V3.2426H10.2726L10.0917 3.5199C10.0916 3.52006 10.0915 3.52022 10.0914 3.52038C9.8023 3.95561 9.51403 4.38961 9.22589 4.80847C9.09323 5.00081 9.02081 5.20256 9.02081 5.41331C9.02081 5.62365 9.09294 5.82831 9.22423 6.02695Z" fill="black" stroke="black" stroke-width="0.3"/>
</svg>
