<svg width="100" height="100" viewBox="0 0 100 100" fill="none" xmlns="http://www.w3.org/2000/svg">
<path d="M92.8 66.9C85.5 66.9 78.3 66.9 71 66.9C70.6 66.9 70.2 66.9 69.8 67C69.8 72.8 69.8 78.5 69.8 84.4C70.1 84 70.3 83.8 70.5 83.5C72.9 80.6 75.9 79 79.6 78.8C85.9 78.5 90.8 82 92.8 87.9C93 88.5 93.3 88.7 93.9 88.7C95 88.7 96.1 88.7 97.3 88.7C99 88.7 99.4 88.2 99.4 86.6C99.4 82.3 99.4 77.9 99.4 73.6C99.4 69.3 97.1 66.9 92.8 66.9Z" fill="black"/>
<path d="M87.6002 50C86.9002 47 84.7002 45.2 81.5002 45.2C77.9002 45.2 74.4002 45.2 70.8002 45.2C70.4002 45.2 70.1002 45.1999 69.7002 45.2999C69.7002 50.5999 69.7002 55.7 69.7002 60.9C76.6002 60.9 83.3002 60.9 90.1002 60.9C89.3002 57.2 88.5002 53.6 87.6002 50Z" fill="black"/>
<path d="M81.2 83.4C76.6 83.4 72.9 87 72.8 91.6C72.7 96.3 76.5 100 81.1 100C85.7 100 89.4 96.3 89.4 91.7C89.4 87.2 85.8 83.4 81.2 83.4Z" fill="black"/>
<path d="M21.2002 83.7C16.8002 83.7 13.2002 87.3 13.2002 91.8C13.2002 96.2 16.8002 99.8 21.2002 99.8C25.6002 99.8 29.2002 96.2 29.2002 91.8C29.3002 87.2 25.7002 83.6 21.2002 83.7Z" fill="black"/>
<path d="M65.8001 40.6C65.8001 36.5 63.4001 34.1 59.3001 34.1C55.4001 34.1 51.5001 34.1 47.6001 34.1C46.1001 35.7 44.8001 37.1 39.8001 42C37.7001 44.1 35.5001 45.1 33.2001 45.1C31.0001 45.1 28.7001 44.1 26.6001 42C21.6001 37 20.3001 35.7 18.8001 34.1C14.9001 34.1 11.0001 34.1 7.1001 34.1C3.0001 34.1 0.600098 36.5 0.600098 40.6C0.600098 50.4 0.600098 60.2 0.600098 70C0.600098 70.4 0.600098 70.8 0.700098 71.3C1.3001 71.3 1.7001 71.3 2.1001 71.3C4.1001 71.3 6.2001 71.3 8.2001 71.3C9.8001 71.4 10.9001 72.5 11.0001 74C11.1001 75.5 10.1001 76.8 8.5001 77.1C8.0001 77.2 7.5001 77.2 7.0001 77.2C4.9001 77.2 2.9001 77.2 0.700098 77.2C0.700098 79.4 0.500098 81.5 0.700098 83.6C1.0001 86.1 2.5001 87.8 4.9001 88.5C5.9001 88.8 6.9001 88.7 7.9001 88.8C8.5001 88.9 8.8001 88.6 9.0001 88C10.8001 82.5 15.6001 78.9 21.2001 78.8C26.9001 78.7 31.7001 82.2 33.6001 87.8C33.9001 88.6 34.2001 88.8 35.0001 88.8C44.9001 88.8 54.8001 88.8 64.7001 88.8C65.1001 88.8 65.4001 88.8 65.9001 88.7C65.9001 88.2 65.9001 87.8 65.9001 87.5C65.8001 71.8 65.8001 56.2 65.8001 40.6Z" fill="black"/>
<path d="M29.1001 25.9C29.1001 24.1 29.1001 22.8 29.1001 21.6C29.1001 11.4 29.1001 14.7 29.1001 4.59997C29.1001 1.29997 32.0001 -0.800025 34.8001 0.399975C36.6001 1.19997 37.3001 2.69997 37.3001 4.59997C37.3001 12.6 37.3001 7.09998 37.3001 15C37.3001 18.4 37.3001 21.9 37.3001 25.6C37.8001 25.2 38.1001 25 38.4001 24.7C40.5001 22.6 42.5001 20.5 44.6001 18.5C46.5001 16.6 49.0001 16.6 50.6001 18.3C52.3001 20 52.2001 22.4 50.3001 24.3C45.7001 29 41.1001 33.6 36.4001 38.2C34.3001 40.2 32.0001 40.3 30.0001 38.2C25.3001 33.6 20.6001 28.9 16.0001 24.2C14.1001 22.3 14.1001 19.9 15.8001 18.2C17.5001 16.6 19.8001 16.6 21.7001 18.5C24.1001 20.8 26.4001 23.2 29.1001 25.9Z" fill="black"/>
</svg>
