<svg width="23" height="15" viewBox="0 0 23 15" fill="none" xmlns="http://www.w3.org/2000/svg">
<path d="M0.0112619 9.78263C0.517525 9.78263 1.00078 9.78263 1.48403 9.78263C1.59909 9.78263 1.71415 9.78263 1.82921 9.76014C2.1974 9.69267 2.45053 9.4228 2.42752 9.06298C2.40451 8.72565 2.15138 8.45579 1.78318 8.45579C1.32294 8.4333 0.839693 8.45579 0.379454 8.45579C0.264394 8.45579 0.172346 8.45579 0.0342738 8.45579C0.0342738 8.34334 0.0112619 8.25339 0.0112619 8.16343C0.0112619 5.93704 0.0112619 3.71065 0.0112619 1.48426C0.0112619 0.56222 0.563549 0 1.53005 0C5.58016 0 9.63027 0 13.6804 0C14.6239 0 15.1992 0.539731 15.1992 1.48426C15.1992 5.03749 15.1992 8.59072 15.1992 12.1215C15.1992 12.2114 15.1992 12.2789 15.1992 12.3913C15.1071 12.3913 15.0151 12.4138 14.923 12.4138C12.6218 12.4138 10.3206 12.4138 8.01943 12.4138C7.83534 12.4138 7.74329 12.3688 7.69726 12.1889C7.26004 10.9296 6.13245 10.1424 4.79775 10.1424C3.48607 10.1424 2.3815 10.9745 1.96728 12.2339C1.92126 12.3688 1.85222 12.4363 1.71415 12.4138C1.48403 12.3913 1.2309 12.4138 1.02379 12.3463C0.44849 12.1889 0.10331 11.8066 0.0572858 11.2444C-0.0347621 10.7721 0.0112619 10.2999 0.0112619 9.78263ZM6.6157 6.83659C6.31655 6.49926 6.01739 6.16193 5.71823 5.8246C5.41908 5.48727 5.00486 5.46478 4.70571 5.71215C4.40655 5.95953 4.40655 6.38682 4.68269 6.70166C5.11992 7.19641 5.55715 7.69117 6.01739 8.18592C6.33956 8.54574 6.73076 8.56823 7.09895 8.25339C8.22654 7.24139 9.33112 6.20691 10.4357 5.19491C10.7809 4.85758 10.8269 4.47527 10.5277 4.18292C10.2516 3.89056 9.83738 3.91305 9.4922 4.22789C9.12401 4.56523 8.75582 4.90256 8.38762 5.23989C7.78931 5.75713 7.21401 6.27437 6.6157 6.83659Z" fill="black"/>
<path d="M16.0962 11.4244C16.0962 10.0975 16.0962 8.79318 16.0962 7.46634C16.1882 7.46634 16.2803 7.44385 16.3723 7.44385C18.0752 7.44385 19.7551 7.44385 21.458 7.44385C22.4475 7.44385 22.9998 7.98358 22.9998 8.9506C22.9998 9.9401 22.9998 10.9296 22.9998 11.9191C22.9998 12.3014 22.8847 12.4139 22.5165 12.4139C22.2634 12.4139 21.9873 12.4139 21.7341 12.4139C21.5961 12.4139 21.527 12.3689 21.481 12.234C21.0208 10.8846 19.8702 10.0975 18.4204 10.165C17.5459 10.21 16.8556 10.5698 16.3033 11.222C16.2343 11.2669 16.1882 11.3344 16.0962 11.4244Z" fill="black"/>
<path d="M16.0962 6.09427C16.0962 4.90237 16.0962 3.73295 16.0962 2.54104C16.1882 2.54104 16.2573 2.51855 16.3493 2.51855C17.1778 2.51855 18.0062 2.51855 18.8346 2.51855C19.571 2.51855 20.0773 2.92335 20.2383 3.62051C20.4455 4.4301 20.6296 5.26219 20.8367 6.09427C19.2718 6.09427 17.684 6.09427 16.0962 6.09427Z" fill="black"/>
<path d="M20.6756 13.1109C20.6756 14.1454 19.8011 15 18.7426 15C17.661 15 16.8096 14.1454 16.8096 13.0884C16.8326 12.054 17.707 11.2219 18.7656 11.2219C19.8241 11.1994 20.6756 12.054 20.6756 13.1109Z" fill="black"/>
<path d="M2.93359 13.0885C2.93359 12.0765 3.76202 11.2669 4.77455 11.2444C5.81009 11.2444 6.66154 12.054 6.66154 13.0885C6.66154 14.1005 5.8331 14.9101 4.79756 14.9101C3.78504 14.9101 2.95661 14.1005 2.93359 13.0885Z" fill="black"/>
<rect x="4.09277" y="3" width="7.16285" height="6" fill="black"/>
</svg>
