<svg width="88" height="100" viewBox="0 0 88 100" fill="none" xmlns="http://www.w3.org/2000/svg">
<path d="M78.6 60.5C67.5 56.6 58.2 58.7 50.9 68C47.8 72.1 46.5 76.9 46.8 82C47.1 87.1 48.9 91.6 52.4 95.6C51.8 95.6 51.4 95.7 51 95.7C36.8 95.7 22.5 95.6 8.3 95.7C3.6 95.7 0.5 92.3 0.5 87.9C0.6 63.9 0.5 39.9 0.5 15.9C0.5 11 3.4 8.09998 8.2 8.09998C10.8 8.09998 13.4 8.09998 16 8.09998C16.4 8.09998 16.8 8.09998 17.3 8.09998C17.3 11.1 17.3 13.9 17.3 16.8C17.8 16.8 18.2 16.9 18.6 16.9C32.4 16.9 46.2 16.9 59.9 16.9C60.9 16.9 61.3 16.7 61.2 15.6C61.1 13.5 61.2 11.3 61.2 9.19998C61.2 8.29998 61.5 8.09998 62.3 8.09998C65.1 8.09998 68 8.09998 70.8 8.09998C75.6 8.09998 78.4 11 78.4 15.7C78.4 24.8 78.4 33.9 78.4 43C78.4 48.3 78.4 53.7 78.4 59C78.6 59.6 78.6 60 78.6 60.5ZM39.5 44.2C33.7 44.2 27.8 44.2 22 44.2C19.4 44.2 17.9 45.4 17.9 47.5C17.9 49.5 19.4 50.7 22 50.7C33.6 50.7 45.3 50.7 56.9 50.7C59.4 50.7 61 49.5 61 47.4C61 45.4 59.5 44.2 56.9 44.2C51.1 44.2 45.3 44.2 39.5 44.2ZM39.5 36.8C45.3 36.8 51.2 36.8 57 36.8C59.6 36.8 61.1 35.6 61 33.5C61 31.5 59.5 30.3 56.9 30.3C45.3 30.3 33.6 30.3 22 30.3C21.5 30.3 21.1 30.3 20.6 30.4C18.6 30.7 17.5 32.7 18.1 34.6C18.6 36.1 19.7 36.8 21.7 36.8C27.7 36.8 33.6 36.8 39.5 36.8Z" fill="black"/>
<path d="M69.0001 99.8C58.5001 99.8 50.1001 91.3 50.1001 80.8C50.1001 70.4 58.7001 61.9 69.1001 61.9C79.6001 61.9 88.0001 70.5 88.0001 80.9C88.0001 91.4 79.5001 99.9 69.0001 99.8ZM65.7001 83C65.4001 82.9 65.3001 82.9 65.3001 82.9C64.4001 82 63.5001 81.1 62.5001 80.2C61.3001 79 59.5001 78.9 58.5001 80C57.4001 81.1 57.4001 82.8 58.7001 84C60.2001 85.6 61.8001 87.2 63.4001 88.7C64.7001 90 66.3001 90 67.7001 88.7C71.6001 84.8 75.6001 80.9 79.5001 77C80.8001 75.7 80.9001 74 79.7001 72.8C78.6001 71.7 76.9001 71.8 75.6001 73.1C74.4001 74.3 73.1001 75.6 71.9001 76.8C69.7001 78.9 67.7001 81 65.7001 83Z" fill="black"/>
<path d="M54.5001 0H24.4001C22.9001 0.3 22.1001 1.3 22.1001 3.2C22.1001 5.8 22.1001 8.5 22.1001 11.1C22.1001 12.1 22.4001 12.3 23.3001 12.3C28.6001 12.3 34.0001 12.3 39.3001 12.3C44.7001 12.3 50.0001 12.3 55.4001 12.3C56.2001 12.3 56.5001 12.1 56.5001 11.2C56.4001 8.4 56.5001 5.7 56.5001 2.9C56.5001 1.4 55.8001 0.4 54.5001 0Z" fill="black"/>
</svg>
