<svg width="100" height="98" viewBox="0 0 100 98" fill="none" xmlns="http://www.w3.org/2000/svg">
<path d="M45.3999 89.1C56.9999 89.1 68.6999 89.1 80.2999 89.1C81.2999 89.1 82.3999 88.7 83.2999 88.2C85.5999 86.9 88.3999 87.3 90.0999 89.3C91.6999 91.2 91.6999 94.1 90.0999 96C88.3999 98 85.5999 98.4 83.3999 97.1C82.4999 96.6 81.2999 96.2 80.2999 96.2C56.9999 96.1 57.0999 96.2 33.7999 96.2C26.5999 96.2 20.6999 91.9 18.5999 85.3C15.4999 75.3 22.7999 65.1 33.1999 65.1C44.6999 65 32.8999 65.1 44.3999 65.1C48.8999 65.1 52.1999 62.4 53.0999 58.2C54.0999 53.1 50.2999 48.2 45.0999 48.1C36.1999 48 27.2999 48.1 18.4999 48.1C17.8999 48.1 17.1999 48.4 16.5999 48.8C14.1999 50.4 11.3999 50.1 9.59993 47.9C7.89993 45.9 7.89993 43 9.69993 41.1C11.4999 39.1 14.3999 38.9 16.7999 40.4C17.3999 40.8 18.1999 41.1 18.9999 41.1C27.4999 41.1 36.0999 41.3 44.5999 41.1C51.9999 40.9 59.1999 46.5 60.2999 54.8C61.1999 62.2 56.4999 69.3 48.9999 71.4C47.4999 71.8 45.7999 72 44.1999 72C32.9999 72 45.0999 72 33.7999 72C30.0999 72 27.2999 73.6 25.7999 77C24.2999 80.2 24.6999 83.3 26.8999 86.1C28.6999 88.4 31.1999 89.3 33.9999 89.3C45.4999 89.1 33.7999 89.1 45.3999 89.1Z" fill="black"/>
<path d="M27.3999 11.2C26.0999 4.49995 19.4999 -0.500047 12.6999 0.199953C6.69993 0.699952 1.69993 5.09995 0.299928 11C-0.100072 12.5 -0.100072 14.1 0.199928 15.8C0.399928 16.8 0.599928 17.9 0.999928 19C3.29993 25.4 7.69993 30.2 11.6999 34C12.3999 34.6 13.0999 34.9 13.8999 34.9C14.6999 34.9 15.4999 34.6 16.1999 33.9C20.5999 29.8 23.5999 25.9 25.6999 21.7C27.4999 18 28.0999 14.5 27.3999 11.2ZM21.9999 19.6C20.3999 22.9 17.9999 25.9 14.5999 29.1C13.8999 29.7 13.4999 29.4 13.1999 29.2C10.0999 26.2 6.59993 22.6 4.89993 17.7C4.89993 17.6 4.79993 17.4 4.79993 17.3C3.79993 13.8 4.49993 10.1 6.79993 7.69995C8.39993 5.89995 10.6999 4.79995 13.0999 4.59995C13.3999 4.59995 13.6999 4.59995 13.8999 4.59995C18.2999 4.59995 22.3999 7.89995 23.2999 12.3C23.6999 14.6 23.2999 17 21.9999 19.6Z" fill="black"/>
<path d="M13.7999 7C10.3999 7 7.59985 9.8 7.59985 13.2C7.59985 16.6 10.3999 19.4 13.7999 19.4C17.1999 19.4 19.9999 16.6 19.9999 13.2C19.9999 9.8 17.2999 7 13.7999 7ZM16.0999 13.2C16.0999 14.5 15.0999 15.5 13.7999 15.5C12.4999 15.5 11.4999 14.5 11.4999 13.2C11.4999 11.9 12.4999 10.9 13.7999 10.9C15.0999 10.9 16.0999 12 16.0999 13.2Z" fill="black"/>
<path d="M99.6999 60.5C98.3999 53.8 91.7999 48.8 84.9999 49.5C78.9999 50.1 73.9999 54.4 72.4999 60.4C72.0999 61.9 72.0999 63.5 72.3999 65.2C72.5999 66.1 72.7999 67.3 73.1999 68.4C75.4999 74.8 79.8999 79.6 83.8999 83.4C84.5999 84 85.2999 84.3 86.0999 84.3C86.8999 84.3 87.6999 84 88.3999 83.3C92.7999 79.2 95.7999 75.3 97.8999 71.1C99.7999 67.3 100.4 63.9 99.6999 60.5ZM94.2999 69C92.6999 72.3 90.2999 75.3 86.8999 78.5C86.1999 79.1 85.7999 78.8 85.4999 78.6C82.3999 75.6 78.8999 72 77.1999 67.1C77.1999 67 77.0999 66.9 77.0999 66.7C76.0999 63.2 76.7999 59.5 79.0999 57.1C80.6999 55.3 82.9999 54.2 85.3999 54C85.6999 54 85.9999 54 86.1999 54C90.5999 54 94.6999 57.3 95.5999 61.7C95.9999 63.9 95.5999 66.4 94.2999 69Z" fill="black"/>
<path d="M86.0999 56.4C82.6999 56.4 79.8999 59.2 79.8999 62.6C79.8999 66 82.6999 68.8 86.0999 68.8C89.4999 68.8 92.2999 66 92.2999 62.6C92.2999 59.2 89.4999 56.4 86.0999 56.4ZM88.3999 62.6C88.3999 63.9 87.3999 64.9 86.0999 64.9C84.7999 64.9 83.7999 63.9 83.7999 62.6C83.7999 61.3 84.7999 60.3 86.0999 60.3C87.3999 60.3 88.3999 61.3 88.3999 62.6Z" fill="black"/>
</svg>
