<svg width="100" height="100" viewBox="0 0 100 100" fill="none" xmlns="http://www.w3.org/2000/svg">
<path d="M77.4 99.4C69.6 99.2 63.7 97 58 94.3C33.5 82.5 15.3 64.4 3.99995 39.6C1.99995 35 0.299951 30.3 0.399951 25.1C0.499951 18.2 2.99995 12.3 7.79995 7.30002C9.49995 5.50002 11.2 3.80002 13 2.10002C15.2 2.44379e-05 17.4 2.44379e-05 19.5 2.10002C25.2 7.70002 30.8 13.3 36.4 19C38.6 21.2 38.6 23.3 36.4 25.5C33.3 28.7 30.1 31.8 27 34.9C23.2 38.8 22.9 43.1 26.2 47.4C33.9 57.6 42.9 66.5 53.4 74C58 77.3 62.2999 77 66.2 73C69.1 70.1 71.9 67.2 74.8 64.3C77.2 61.9 79.4 61.9 81.8 64.3C87.3 69.8 92.7999 75.2 98.2 80.7C100.6 83.1 100.7 85.2 98.3 87.6C94.1 91.9 90 96.3 84.1 98C81.5 98.7 78.7 99.1 77.4 99.4Z" fill="black"/>
</svg>
