<svg width="84" height="100" viewBox="0 0 84 100" fill="none" xmlns="http://www.w3.org/2000/svg">
<path d="M41.5993 99.9C33.6993 99.9 25.7993 100.1 17.8993 99.8C14.9993 99.7 11.7993 99.1 9.09926 98C3.59926 95.6 0.599258 91 0.299258 85.1C-0.200742 75.9 0.699258 66.8 5.19926 58.5C8.39926 52.5 13.3993 48.9 20.2993 48.5C22.0993 48.4 24.0993 49.1 25.7993 49.9C28.7993 51.3 31.4993 53.3 34.4993 54.5C41.2993 57.2 47.7993 55.9 53.8993 52.3C54.4993 52 54.9993 51.6 55.4993 51.2C61.5993 47.3 67.8993 47.7 73.4993 52.4C77.2993 55.6 79.4993 59.9 80.9993 64.6C82.8993 70.6 83.5993 76.9 83.3993 83.1C82.9993 93.2 76.2993 99.7 66.1993 99.8C57.9993 99.9 49.7993 99.8 41.5993 99.9Z" fill="black"/>
<path d="M41.0992 48.1C27.6992 48.1 17.0992 37.6 16.9992 24.2C16.8992 10.9 27.6992 0.0999756 41.0992 0.0999756C54.3992 0.0999756 65.0992 10.8 65.0992 24.1C65.1992 37.3 54.3992 48.1 41.0992 48.1Z" fill="black"/>
</svg>
