<svg width="100" height="100" viewBox="0 0 100 100" fill="none" xmlns="http://www.w3.org/2000/svg">
<path d="M20.9489 85V10H52.4818C62.5547 10 70.4745 12.1429 76.2409 16.4286C82.0803 20.6429 85 26.8929 85 35.1786C85 43.3929 82.0803 49.6429 76.2409 53.9286C70.4745 58.1429 62.5547 60.25 52.4818 60.25H28.8321L35.1825 53.8214V85H20.9489ZM35.1825 55.3214L28.8321 49H52.3723C58.2117 49 62.7007 47.8214 65.8394 45.4643C69.0511 43.0357 70.6569 39.6429 70.6569 35.2857C70.6569 30.9286 69.0511 27.6071 65.8394 25.3214C62.7007 22.9643 58.2117 21.7857 52.3723 21.7857H28.8321L35.1825 14.9286V55.3214ZM10 73.8571V66.3571H59.2701V73.8571H10Z" fill="black"/>
</svg>
