<svg width="100" height="100" viewBox="0 0 100 100" fill="none" xmlns="http://www.w3.org/2000/svg">
<g clip-path="url(#clip0_551_5230)">
<path d="M50 0C22.3858 0.000102535 0.000102535 22.3858 0 50C0.000105358 77.6142 22.3858 99.9999 50 100C77.6142 99.9999 99.9999 77.6142 100 50C99.9999 22.3858 77.6142 0.000105358 50 0ZM75.9003 22.4572C77.9316 22.3831 79.4694 24.2219 78.6452 27.5263L68.7385 74.2155C68.0469 77.5335 66.0408 78.3273 63.2634 76.795L48.1701 65.6427C44.625 69.0895 41.4493 72.1764 40.9146 72.6997C40.0737 73.5212 39.4039 74.21 37.8941 74.21C35.9377 74.21 36.2706 73.4696 35.5956 71.6065L30.0434 54.5859L15.5324 50.0551C12.3088 49.0675 12.2854 46.853 16.2563 45.2598L74.4378 22.8191C74.936 22.593 75.4315 22.4743 75.9003 22.4572ZM66.6716 32.3877C66.2341 32.3816 65.6395 32.5382 65.0272 32.9095L32.3216 53.5441L37.8316 70.4417L38.923 58.8116L66.9288 33.5434C67.697 32.8615 67.4007 32.3979 66.6716 32.3877Z" fill="black"/>
</g>
<defs>
<clipPath id="clip0_551_5230">
<rect width="100" height="100" fill="white"/>
</clipPath>
</defs>
</svg>
