<svg width="100" height="100" viewBox="0 0 100 100" fill="none" xmlns="http://www.w3.org/2000/svg">
<g clip-path="url(#clip0_551_5226)">
<path d="M78.2 70.5C78.2 72.8 78.2 75 78.2 77.2C78.2 78 78.2 78.7 78.2 79.5C78.2 81.5 76.9 83 75 83.1C73.2 83.2 71.6 81.9 71.4 79.8C71.3 77.9 71.3 76 71.3 74.1C71.2001 71.8 71.2 69.4 71.1 67.1C71.1 66.7 70.9 66.2 70.6 66C64.9 62.7 59.2001 59.4 53.4001 56.1C53.3001 56.1 53.3 56.1 53.1 56C53.1 56.4 53 56.7 53 57.1C53 63.2 53 69.3 53 75.5C53 76.3 53.3 76.7 54 77.1C57.6 79.2 61.1 81.3 64.6 83.4C65.9 84.2 66.5001 85.4 66.3001 86.9C66.1001 88.3 65.3001 89.3 63.9001 89.7C62.8001 90.1 61.8 89.8 60.8 89.2C58.3 87.7 55.8 86.2 53 84.5C53 85.1 53 85.5 53 85.9C53 89.5 53 93 53 96.6C53 98.3 51.8 99.6 50.1 99.9C48.6 100.1 47 99.2 46.5 97.7C46.3 97.1 46.3 96.5 46.3 95.9C46.3 92.7 46.3 89.5 46.3 86.3C46.3 85.9 46.3 85.5 46.2001 84.9C43.5 86.5 41.1 88 38.6 89.4C37.8 89.8 36.7 90.1 35.8 90C34.4 89.9 33.4 88.8 33.1 87.4C32.8 86 33.4001 84.6 34.7001 83.8C38.2001 81.7 41.7001 79.6 45.2001 77.5C45.9001 77.1 46.3 76.6 46.3 75.7C46.3 69.5 46.3 63.4 46.3 57.2C46.3 56.9 46.3 56.5 46.2001 56C45.6001 56.3 45.2001 56.6 44.7001 56.8C39.6001 59.8 34.5 62.7 29.3 65.7C28.6 66.1 28.3 66.6 28.3 67.4C28.3 71.3 28.2 75.2 28.1 79.1C28.1 79.8 28 80.5 27.8 81.1C27.2 82.6 25.6 83.4 24.1 83.1C22.5 82.8 21.3 81.5 21.3 79.8C21.3 77.1 21.4 74.4 21.4 71.8C21.4 71.4 21.4 71 21.4 70.4C21 70.6 20.7 70.7 20.4 70.9C17.4 72.6 14.4 74.3 11.5 76.1C9.50005 77.3 7.40005 76.8 6.40005 75.1C5.40005 73.3 6.00005 71.4 8.10005 70.2C11 68.5 13.9 66.9 16.7 65.2C17 65 17.3 64.8 17.8 64.5C15.1 63 12.6 61.6 10 60.1C9.00005 59.6 8.20005 58.9 8.00005 57.7C7.70005 56.3 8.00005 55 9.20005 54.1C10.4 53.2 11.7 53.2 13 53.9C16.6 55.9 20.1 57.9 23.7001 59.9C24.5 60.3 25 60.3 25.8 59.9C31.4 56.6 37 53.4 42.7001 50.1C42.3 49.8 42 49.6 41.7001 49.4C36.5 46.4 31.2001 43.4 26 40.3C25.3 39.9 24.8 39.9 24 40.3C20.4 42.4 16.8 44.4 13.1 46.4C11 47.6 8.60005 46.5 8.00005 44.2C7.60005 42.7 8.30005 41.2 9.80005 40.3C12.1 39 14.3 37.8 16.6 36.5C17 36.3 17.4 36 18 35.7C16.2 34.7 14.5 33.7 12.9 32.7C11.2 31.7 9.50005 30.8 7.80005 29.8C5.80005 28.6 5.30005 26.7 6.30005 24.9C7.30005 23.2 9.30005 22.7 11.3 23.8C14.2 25.5 17.1 27.1 19.9 28.8C20.2 29 20.6 29.1 21 29.4C21 28.2 21 27.1 21 26C21 24.2 20.9 22.3 20.9 20.5C20.9 18.4 22.3001 16.9 24.2001 16.9C26.2001 16.9 27.7 18.4 27.8 20.5C27.9 24.6 27.9 28.6 28.1 32.7C28.1 33.1 28.4001 33.8 28.7001 34C34.3001 37.3 39.9001 40.5 45.5 43.7C45.7001 43.8 45.8 43.8 46.1 43.9C46.1 43.5 46.2001 43.1 46.2001 42.8C46.2001 36.7 46.2001 30.6 46.2001 24.6C46.2001 23.8 46 23.4 45.3 23C41.8 21 38.4001 18.9 35 16.8C34 16.2 33.2 15.4 33.1 14.2C32.9 12.8 33.3 11.6 34.5 10.8C35.7001 9.99997 37 9.99997 38.3 10.7C40.6 12 42.8 13.4 45.1 14.7C45.4 14.9 45.8 15.1 46.2001 15.3C46.2001 14.8 46.3 14.4 46.3 14C46.3 10.4 46.3 6.89997 46.3 3.29997C46.4 0.799973 48.7001 -0.700027 51 0.199973C52.2001 0.799973 53 1.99997 53 3.59997C53 6.99997 53 10.4 53 13.8C53 14.2 53 14.6 53 15.2C53.5 14.9 53.8 14.8 54.2001 14.6C56.4001 13.3 58.6 12 60.8 10.7C62.8 9.49997 64.8001 9.89997 65.9001 11.7C66.9001 13.4 66.3001 15.4 64.4001 16.6C61 18.7 57.5 20.7 54.1 22.8C53.4 23.2 53.1 23.6 53.1 24.5C53.1 30.6 53.1 36.7 53.1 42.9C53.1 43.2 53.1001 43.6 53.2001 44C53.5 43.9 53.8 43.8 54 43.7C59.5 40.6 64.9 37.4 70.4 34.3C71 33.9 71.2 33.5 71.2 32.8C71.2 28.9 71.2001 24.9 71.4 21C71.4 20.1 71.8 19 72.3 18.3C73.2001 17.1 74.5 16.9 75.9 17.4C77.2001 17.9 78.1 19.1 78.1 20.5C78.1 23.1 78.1 25.8 78 28.4C78 28.8 78 29.2 78 29.8C80.3 28.5 82.4 27.3 84.6 26C85.8 25.3 87 24.6 88.2 23.9C90 22.9 92 23.4 93 25.1C94 26.8 93.4 28.8 91.6 29.8C89.9 30.8 88.2 31.8 86.5 32.7C84.8 33.7 83.2001 34.6 81.4 35.7C83.3 36.8 85.1 37.8 86.9 38.8C87.8 39.3 88.7 39.8 89.6 40.3C91.4 41.4 92 43.3 91 45C90.1 46.7 88 47.3 86.2 46.3C82.5 44.3 78.9 42.2 75.2 40.2C74.8 40 74.1001 39.9 73.8 40.1C68.2001 43.3 62.7 46.5 57.1 49.7C56.9 49.8 56.8 49.9 56.6 50.1C58 50.9 59.4001 51.7 60.7001 52.5C64.9001 54.9 69.1 57.3 73.3 59.8C74.1001 60.2 74.6 60.3 75.4 59.8C78.9 57.7 82.5 55.8 86.1 53.8C87.4 53.1 88.7001 53.1 89.9 53.9C91 54.7 91.5 55.8 91.3 57.1C91.2001 58.3 90.5 59.2 89.4 59.8C87.1 61.1 84.8 62.4 82.5 63.7C82.1 63.9 81.8 64.1 81.3 64.4C83.9 65.9 86.5 67.4 89 68.9C89.9 69.4 90.7 69.9 91.6 70.4C93.3 71.5 93.9 73.5 92.8 75.2C91.8 76.8 89.8 77.3 88.1 76.3C85.1 74.6 82.2001 72.9 79.3 71.2C78.9 70.9 78.6 70.7 78.2 70.5Z" fill="black"/>
</g>
<defs>
<clipPath id="clip0_551_5226">
<rect width="100" height="100" fill="white"/>
</clipPath>
</defs>
</svg>
