<svg width="100" height="100" viewBox="0 0 100 100" fill="none" xmlns="http://www.w3.org/2000/svg">
<path d="M87.2999 50.1C87.2999 70.6 70.4999 87.3 49.8999 87.2C29.5999 87.2 12.8999 70.4 12.8999 50.1C12.8999 29.6 29.5999 12.8 49.9999 12.8C70.5999 12.8 87.1999 29.5 87.2999 50.1ZM46.5999 40.8C46.5999 43.7 46.5999 46.7 46.5999 49.6C46.5999 51.3 47.2999 52.6 48.8999 53.3C51.6999 54.7001 54.4999 56.1 57.3999 57.5C59.5999 58.6 61.5999 58.1001 62.4999 56.2001C63.4999 54.3 62.6999 52.4001 60.3999 51.2001C58.3999 50.2001 56.4999 49.2001 54.4999 48.3C53.7999 48 53.5999 47.6 53.5999 46.8C53.5999 41.8 53.5999 36.7001 53.5999 31.7001C53.5999 29.5 52.1999 27.9 50.0999 27.9C47.9999 27.9 46.5999 29.4001 46.5999 31.7001C46.4999 34.7001 46.5999 37.7 46.5999 40.8Z" fill="black"/>
<path d="M99.9999 50C99.9999 73.8 83.1999 94.3 59.9999 99C53.3999 100.3 46.7999 100.3 40.1999 99C38.1999 98.6 36.9999 96.9 37.3999 94.9C37.6999 93 39.5999 91.8 41.5999 92.2C52.4999 94.2 62.6999 92.5 72.1999 86.9C86.8999 78.1 95.0999 60.9 92.5999 44C89.7999 25.2 75.8999 10.9 57.0999 7.60005C52.7999 6.80005 48.4999 6.80005 44.1999 7.40005C41.9999 7.70005 40.1999 6.50005 39.9999 4.50005C39.6999 2.50005 41.0999 0.800046 43.2999 0.500046C68.9999 -2.99995 92.3999 13.6 98.4999 37.9C99.4999 41.8 99.9999 45.9 99.9999 50Z" fill="black"/>
<path d="M14.3999 74.8C14.3999 76.7 13.3999 78.1 11.9999 78.5C10.5999 78.9 8.89989 78.5 8.19989 77.2C6.59989 74.2 4.99989 71.2 3.49989 68.1C2.69989 66.4 3.69989 64.4 5.39989 63.7C7.09989 63 8.99989 63.7 9.89989 65.4C11.2999 68.1 12.5999 70.7 13.9999 73.4C14.1999 74 14.2999 74.5 14.3999 74.8Z" fill="black"/>
<path d="M4.19995 30.7001C4.39995 30.1001 4.49995 29.5001 4.79995 29.0001C6.29995 26.3001 7.79995 23.6001 9.49995 21.0001C10.7 19.1001 12.8 18.7001 14.5 19.9001C16.2 21.1001 16.4 23.1001 15.2 25.0001C13.7 27.4001 12.3 29.9001 10.9 32.3001C9.99995 33.8001 8.49995 34.6001 6.89995 34.1001C5.29995 33.7001 4.29995 32.3001 4.19995 30.7001Z" fill="black"/>
<path d="M22.1999 16.4C20.6999 16.3 19.4999 15.4001 18.9999 14.1C18.4999 12.8 18.6999 11 19.8999 10.3C22.7999 8.40005 25.7999 6.50005 28.8999 4.90005C30.4999 4.00005 32.4999 5.00005 33.2999 6.70005C34.0999 8.30005 33.4999 10.2 31.8999 11.2C29.2999 12.8 26.5999 14.4 23.9999 15.9C23.4999 16 22.7999 16.2 22.1999 16.4Z" fill="black"/>
<path d="M0 49.4001C0.2 47.7001 0.3 45.5001 0.6 43.4001C0.8 42.0001 1.7 41.1001 3.1 40.7001C5.4 40.1001 7.5 41.8001 7.5 44.2001C7.4 47.2001 7.3 50.3001 7.2 53.3001C7.1 55.1001 5.9 56.6001 4.2 56.7001C2.2 57.0001 0.6 55.9001 0.3 54.0001C0.1 52.7001 0.1 51.3001 0 49.4001Z" fill="black"/>
<path d="M27.7001 94.4001C27.1001 94.2001 26.4001 94.1001 25.9001 93.7001C23.2001 91.9001 20.6001 90.2001 18.0001 88.3001C16.4001 87.1001 16.2001 85.0001 17.3001 83.5001C18.5001 81.9001 20.6001 81.7001 22.2001 82.9001C24.6001 84.6001 27.0001 86.2001 29.4001 87.8001C30.8001 88.8001 31.4001 90.3001 31.0001 91.8001C30.6001 93.3001 29.3001 94.3001 27.7001 94.4001Z" fill="black"/>
</svg>
