<svg width="100" height="100" viewBox="0 0 100 100" fill="none" xmlns="http://www.w3.org/2000/svg">
<path d="M93.3 66.9C85.9 66.9 78.6 66.9 71.2 66.9C70.8 66.9 70.4 66.9 70 67C70 72.9 70 78.6 70 84.6C70.3 84.2 70.5 84 70.8 83.7C73.2 80.8 76.3 79.2 80 79C86.3 78.7 91.3 82.2 93.3 88.2C93.5 88.8 93.8 89 94.4 89C95.5 89 96.7 89 97.8 89C99.5 89 99.9 88.5 99.9 86.8C99.9 82.4 99.9 78 99.9 73.6C100 69.3 97.6 67 93.3 66.9Z" fill="black"/>
<path d="M88 49.9C87.3 46.8 85 45.1 81.9 45C78.3 45 74.7 45 71.1 45C70.7 45 70.4 45 70 45.1C70 50.4 70 55.6 70 60.9C76.9 60.9 83.8 60.9 90.7 60.9C89.8 57.1 88.9 53.5 88 49.9Z" fill="black"/>
<path d="M81.5002 83.6001C76.9002 83.6001 73.1002 87.3001 73.0002 91.9001C72.9002 96.6001 76.7002 100.4 81.4002 100.4C86.0002 100.4 89.8002 96.7001 89.8002 92.0001C89.9002 87.4001 86.2002 83.6001 81.5002 83.6001Z" fill="black"/>
<path d="M20.9002 83.9001C16.4002 83.9001 12.8002 87.6 12.9002 92.1C12.9002 96.6 16.5002 100.2 21.0002 100.2C25.5002 100.2 29.1002 96.6 29.1002 92.1C29.1002 87.5 25.4002 83.8001 20.9002 83.9001Z" fill="black"/>
<path d="M37.1002 15C37.1002 16.8 37.1002 18.1 37.1002 19.4C37.1002 29.7001 37.1002 26.4 37.1002 36.6C37.1002 40 34.2002 42.1 31.4002 40.8C29.6002 40 28.9002 38.5 28.9002 36.5C28.9002 28.5 28.9002 34 28.9002 26C28.9002 22.5 28.9002 19 28.9002 15.3C28.4002 15.7 28.1002 15.9 27.8002 16.2C25.7002 18.3 23.6002 20.4 21.5002 22.5C19.6002 24.4 17.1002 24.5 15.4002 22.7001C13.7002 21 13.8002 18.6 15.7002 16.6C20.4002 11.9 25.0002 7.20005 29.7002 2.50005C31.8002 0.400049 34.1002 0.400049 36.2002 2.50005C40.9002 7.20005 45.7002 11.9 50.4002 16.7C52.3002 18.6 52.3002 21.1 50.6002 22.8C48.9002 24.5 46.5002 24.4 44.6002 22.5C42.2002 20.2001 39.8002 17.8 37.1002 15Z" fill="black"/>
<path d="M66.0001 40.4001C66.0001 36.3001 63.5001 33.8 59.4001 33.8C53.2001 33.8 47.7001 33.8 41.4001 33.8C41.4001 37.6 41.3001 40.4001 41.2001 41.7001C40.9001 45.3001 36.6001 47.4001 33.3001 47.4001C30.0001 47.4001 24.8001 45.8 24.8001 41C24.8001 38.2 24.7001 36.7001 24.7001 33.9001C18.5001 33.9001 12.9001 33.9001 6.70012 33.9001C2.50012 33.9001 0.100119 36.3 0.100119 40.5C0.100119 50.4 0.100119 60.3 0.100119 70.2C0.100119 70.6 0.100119 71 0.200119 71.5C0.800119 71.5 1.20012 71.5 1.70012 71.5C3.70012 71.5 5.80012 71.5 7.80012 71.5C9.40012 71.6 10.5001 72.7 10.6001 74.2C10.7001 75.8 9.70012 77.0001 8.00012 77.3001C7.50012 77.4001 7.00012 77.4001 6.50012 77.4001C4.40012 77.4001 2.30012 77.4001 0.100119 77.4001C0.100119 79.7001 -0.0998806 81.8001 0.100119 83.9001C0.400119 86.4001 1.90012 88.2001 4.30012 88.8001C5.30012 89.1001 6.30012 89 7.30012 89.1C7.90012 89.2 8.20012 88.9001 8.40012 88.3001C10.2001 82.7001 15.1001 79.1 20.7001 79C26.5001 78.9001 31.4001 82.5 33.3001 88.1C33.6001 88.9 33.9001 89.1 34.7001 89.1C44.7001 89.1 54.7001 89.1 64.7001 89.1C65.1001 89.1 65.4001 89.1 65.9001 89C65.9001 88.5 65.9001 88.1001 65.9001 87.8001C66.0001 71.9001 66.0001 56.1001 66.0001 40.4001Z" fill="black"/>
</svg>
