<svg class="volume" width="100" height="100" viewBox="0 0 100 100" fill="none" xmlns="http://www.w3.org/2000/svg">
<g clip-path="url(#clip0_551_5151)">
<g clip-path="url(#clip1_551_5151)">
<g clip-path="url(#clip2_551_5151)">
<path d="M57.9909 11.1999C55.7909 8.8999 53.4909 6.6999 51.1909 4.3999C50.1909 3.3999 49.0909 3.3999 48.0909 4.3999C45.7909 6.5999 43.5909 8.8999 41.3909 11.0999C40.4909 11.9999 40.3909 13.1999 41.1909 13.9999C41.9909 14.7999 43.1909 14.7999 44.0909 13.8999C45.0909 12.8999 46.0909 11.8999 47.0909 10.8999C47.1909 10.7999 47.3909 10.6999 47.5909 10.4999C47.5909 12.2999 47.5909 15.6999 47.5909 17.3999C47.5909 18.0999 47.5909 18.0999 47.5909 18.6999C47.8909 20.1999 48.9909 20.1999 49.7909 20.1999C50.5909 20.1999 51.1909 19.9999 51.4909 18.5999C51.4909 16.8999 51.4909 14.1999 51.4909 12.4999C51.4909 11.8999 51.4909 11.2999 51.4909 10.3999C52.7909 11.6999 53.8909 12.8999 55.0909 13.9999C55.9909 14.8999 57.0909 14.8999 57.8909 14.0999C58.8909 13.2999 58.8909 12.0999 57.9909 11.1999Z" fill="black"/>
<path d="M92.491 67.4999C94.791 65.2999 96.991 62.9999 99.291 60.6999C100.291 59.6999 100.291 58.5999 99.291 57.5999C97.091 55.2999 94.791 53.0999 92.591 50.8999C91.691 49.9999 90.491 49.8999 89.691 50.6999C88.891 51.4999 88.891 52.6999 89.791 53.5999C90.791 54.5999 91.791 55.5999 92.791 56.5999C92.891 56.6999 92.991 56.8999 93.191 57.0999C91.391 57.0999 86.291 57.0999 84.591 57.0999C83.891 57.0999 83.891 57.0999 83.291 57.0999C81.791 57.3999 81.791 58.4999 81.791 59.2999C81.791 60.0999 81.991 60.6999 83.391 60.9999C85.091 60.9999 89.491 60.9999 91.191 60.9999C91.791 60.9999 92.391 60.9999 93.291 60.9999C91.991 62.2999 90.791 63.3999 89.691 64.5999C88.791 65.4999 88.791 66.5999 89.591 67.3999C90.391 68.3999 91.591 68.3999 92.491 67.4999Z" fill="black"/>
<path d="M7.49141 50.7999C5.19141 52.9999 2.99141 55.2999 0.691406 57.5999C-0.308594 58.5999 -0.308594 59.7 0.691406 60.7C2.99141 63 5.19141 65.2 7.49141 67.5C8.39141 68.4 9.59141 68.4999 10.3914 67.6999C11.1914 66.8999 11.1914 65.7 10.2914 64.8C9.29141 63.8 8.29141 62.7999 7.29141 61.7999C7.19141 61.6999 7.09141 61.4999 6.89141 61.2999C8.69141 61.2999 10.3914 61.2999 11.9914 61.2999C12.6914 61.2999 16.4914 61.2999 17.0914 61.2999C18.5914 60.9999 18.5914 59.8999 18.5914 59.0999C18.5914 58.2999 18.3914 57.7 16.9914 57.4C15.2914 57.4 10.4914 57.4 8.79141 57.4C8.19141 57.4 7.59141 57.4 6.69141 57.4C7.99141 56.1 9.19141 54.9999 10.2914 53.7999C11.1914 52.8999 11.1914 51.7999 10.3914 50.9999C9.59141 49.8999 8.39141 49.8999 7.49141 50.7999Z" fill="black"/>
<path d="M81.6906 30.5999C72.2906 25.8999 62.9906 21.0999 53.5906 16.3999V20.0999C53.5906 22.2999 51.7906 24.0999 49.5906 24.0999C47.3906 24.0999 45.5906 22.2999 45.5906 20.0999V16.6999C36.3906 21.2999 27.2906 25.8999 18.0906 30.4999C17.6906 30.6999 17.3906 30.8999 16.8906 31.0999C17.2906 31.2999 17.4906 31.3999 17.6906 31.4999C28.1906 36.6999 38.5906 41.8999 48.9906 47.0999C49.6906 47.4999 50.2906 47.2999 50.9906 46.9999C60.9906 41.7999 71.0906 36.7999 81.1906 31.6999C81.5906 31.4999 81.8906 31.2999 82.2906 31.0999C81.9906 30.7999 81.8906 30.6999 81.6906 30.5999Z" fill="black"/>
<path d="M81.1906 63.0999C78.9906 63.0999 77.1906 61.2999 77.1906 59.0999C77.1906 56.8999 78.9906 55.0999 81.1906 55.0999H85.9906C85.9906 49.7999 85.9906 44.3999 85.9906 39.0999C85.9906 38.6999 85.9906 38.1999 85.8906 37.5999C85.2906 37.8999 84.8906 38.0999 84.3906 38.2999C74.3906 43.2999 64.4906 48.2999 54.4906 53.2999C53.6906 53.6999 53.3906 54.1999 53.3906 55.0999C53.3906 68.2999 53.3906 81.5999 53.3906 94.7999C53.3906 95.1999 53.3906 95.4999 53.3906 96.0999C53.9906 95.7999 54.2906 95.6999 54.6906 95.4999C63.5906 90.9999 72.3906 86.3999 81.2906 81.9999C84.4906 80.3999 85.8906 77.9999 85.8906 74.3999C85.8906 70.5999 85.8906 66.7999 85.8906 62.9999H81.1906V63.0999Z" fill="black"/>
<path d="M45.0918 53.3999C34.8918 48.3999 24.7918 43.2999 14.5918 38.2999C14.2918 38.1999 13.9918 38.0999 13.5918 37.8999C13.5918 38.3999 13.5918 38.7999 13.5918 39.0999C13.5918 44.3999 13.5918 49.7999 13.5918 55.0999H18.8918C21.0918 55.0999 22.8918 56.8999 22.8918 59.0999C22.8918 61.2999 21.0918 63.0999 18.8918 63.0999H13.5918C13.5918 66.9999 13.5918 70.8999 13.5918 74.6999C13.5918 78.0999 14.9918 80.3999 18.0918 81.9999C26.9918 86.4999 35.7918 90.9999 44.6918 95.4999C45.0918 95.6999 45.4918 95.8999 45.9918 96.0999C45.9918 95.6999 46.0918 95.4999 46.0918 95.2999C46.0918 81.7999 46.0918 68.2999 46.0918 54.7999C45.9918 53.9999 45.6918 53.6999 45.0918 53.3999Z" fill="black"/>
</g>
</g>
</g>
<defs>
<clipPath id="clip0_551_5151">
<rect width="100" height="100" fill="white"/>
</clipPath>
<clipPath id="clip1_551_5151">
<rect width="100" height="100" fill="white"/>
</clipPath>
<clipPath id="clip2_551_5151">
<rect width="100" height="100" fill="white"/>
</clipPath>
</defs>
</svg>
