<svg width="92" height="100" viewBox="0 0 92 100" fill="none" xmlns="http://www.w3.org/2000/svg">
<path d="M33.1001 30.9C24.6001 20.8 28.4001 9.80003 34.3001 4.70003C41.2001 -1.19997 51.3001 -0.999971 58.1001 5.10003C63.9001 10.3 67.2001 21.2 58.7001 31.1C59.5001 31.1 60.0001 31.1 60.6001 31.1C65.4001 31.1 70.3001 31.1 75.1001 31.1C79.0001 31.1 80.6001 32.6 81.3001 36.4C83.1001 46.8 85.0001 57.2 86.9001 67.5C88.5001 76.2 90.0001 84.9 91.5001 93.6C92.2001 97.4 90.0001 99.9 86.1001 99.9C75.8001 99.9 65.4001 99.9 55.1001 99.9C38.8001 99.9 22.5001 99.9 6.20012 100C1.90012 100 -0.199878 97.5 0.500122 93.3C3.30012 77.8 6.10012 62.4 8.90012 46.9C9.50012 43.3 10.2001 39.7 10.7001 36.1C11.3001 32.5 13.2001 30.9 16.8001 30.9C22.2001 30.8 27.5001 30.9 33.1001 30.9ZM63.0001 69.9C62.6001 71.3 62.6001 72.7 61.9001 73.2C56.7001 76.6 51.7001 74 51.1001 69.3C51.0001 68.3 50.8001 67.2 50.8001 66.1C50.8001 62.9 52.2001 60.4 54.8001 59.6C57.6001 58.7 60.1001 58.9 62.1001 61.6C62.9001 62.7 64.1001 62.8 65.2001 62C66.3001 61.2 66.5001 60 65.7001 58.9C65.3001 58.2 64.7001 57.6 64.0001 57.1C58.8001 53.1 49.9001 55.3 47.2001 61.3C45.5001 65 45.6001 68.7 47.1001 72.5C48.4001 75.6 50.7001 77.6 53.9001 78.4C58.3001 79.6 62.3001 78.6 66.1001 76.2C66.7001 75.8 67.3001 74.8 67.3001 74.1C67.5001 72.1 67.5001 70.1 67.3001 68.1C67.2001 67.4 66.4001 66.3 65.9001 66.3C63.7001 66.1 61.4001 66.1 59.2001 66.3C58.1001 66.4 57.2001 67.2 57.6001 68.4C57.8001 69.1 58.7001 69.9 59.4001 70.1C60.3001 70.1 61.4001 69.9 63.0001 69.9ZM34.0001 67.7C34.2001 68 34.4001 68.2 34.5001 68.4C36.2001 71.3 37.8001 74.1 39.5001 77C40.3001 78.4 43.2001 79 44.3001 78.1C45.7001 76.9 44.6001 75.8 43.9001 74.7C42.0001 71.7 40.0001 68.6 38.0001 65.7C37.4001 64.8 37.5001 64.2 38.2001 63.5C39.9001 61.9 41.5001 60.2 43.1001 58.4C43.5001 58 43.7001 57.2 43.5001 56.7C43.3001 56.2 42.6001 55.8 42.0001 55.7C40.5001 55.5 39.1001 55.6 38.1001 57.1C37.4001 58.1 36.5001 59 35.7001 59.9C34.0001 61.8 32.3001 63.7 30.2001 65.9C30.2001 63 30.2001 60.6 30.2001 58.2C30.2001 56.9 29.5001 56 28.1001 55.9C26.7001 55.8 25.8001 56.7 25.8001 58C25.7001 64.1 25.7001 70.2 25.8001 76.2C25.8001 77.6 26.7001 78.4 28.1001 78.4C29.5001 78.4 30.2001 77.5 30.3001 76.1C30.4001 75 30.2001 73.8 30.3001 72.7C30.4001 72.1 30.6001 71.3 31.0001 70.8C31.9001 69.6 32.9001 68.7 34.0001 67.7ZM54.0001 18.2C54.0001 13.8 50.4001 10.2 46.0001 10.2C41.8001 10.2 38.1001 13.9 38.1001 18.2C38.1001 22.5 41.7001 26.1 45.9001 26.2C50.3001 26.2 54.0001 22.6 54.0001 18.2Z" fill="black"/>
</svg>
